<svg width="45" height="734" viewBox="0 0 45 734" fill="none" xmlns="http://www.w3.org/2000/svg">
<path d="M13.25 66.966L13.25 0.282959L9.694 0.282959L9.694 66.966L13.25 66.966Z" fill="#B04C7E"/>
<path d="M5.80566 66.966L5.80566 0.282959L0.323669 0.282959L0.323667 66.966L5.80566 66.966Z" fill="#B04C7E"/>
<path d="M21.859 33.6249C21.859 39.7049 18.389 45.7859 11.449 48.6459C9.09203 49.6169 11.127 52.9109 13.468 51.9459C21.738 48.5379 25.874 41.0819 25.874 33.6249C25.874 26.1679 21.739 18.7119 13.468 15.3039C11.127 14.3389 9.09204 17.6319 11.449 18.6039C18.39 21.4639 21.859 27.5439 21.859 33.6249Z" fill="#B04C7E"/>
<path d="M33.7969 33.625C33.7969 45.257 23.5129 54.499 12.1929 56.586C10.9309 56.819 11.4649 58.661 12.7249 58.428C24.8589 56.191 35.8819 46.063 35.7969 33.624C35.8819 21.185 24.8589 11.057 12.7249 8.81997C11.4649 8.58797 10.9309 10.43 12.1929 10.663C23.5129 12.751 33.7969 21.992 33.7969 33.625Z" fill="#B04C7E"/>
<path d="M15.6348 33.6249C15.6358 36.9999 13.8019 40.3749 10.1219 42.2869C8.99086 42.8739 9.99883 44.5249 11.1308 43.9369C15.4498 41.6929 17.6108 37.6589 17.6108 33.6249C17.6108 29.5909 15.4498 25.5569 11.1308 23.3129C9.99883 22.7249 8.98986 24.3749 10.1219 24.9629C13.8009 26.8739 15.6358 30.2499 15.6348 33.6249Z" fill="#B04C7E"/>
<path d="M24.7577 33.625C24.9497 34.256 25.8047 34.701 26.4087 34.081C26.5697 33.916 26.7367 33.764 26.9087 33.625C26.7367 33.486 26.5697 33.334 26.4087 33.169C25.8047 32.549 24.9497 32.994 24.7577 33.625Z" fill="#B04C7E"/>
<path d="M33.7166 32.9489C33.7166 33.3989 33.7166 33.8499 33.7166 34.2999C33.4946 34.0479 33.2567 33.8229 33.0087 33.6249C33.2577 33.4259 33.4946 33.2009 33.7166 32.9489C33.7166 33.3989 33.7166 33.8499 33.7166 34.2999C33.4946 34.0479 33.2567 33.8229 33.0087 33.6249C33.2577 33.4259 33.4946 33.2009 33.7166 32.9489ZM24.9937 32.7299C27.8137 29.8349 32.4526 29.9209 35.1306 32.9499C35.3166 33.1599 35.4106 33.3929 35.4106 33.6259C35.4106 33.8589 35.3176 34.0909 35.1306 34.3009C32.4526 37.3299 27.8137 37.4159 24.9937 34.5209C24.7197 34.2389 24.6697 33.9129 24.7567 33.6259C24.6697 33.3369 24.7197 33.0109 24.9937 32.7299ZM26.4077 33.1689C26.5687 33.3339 26.7357 33.4859 26.9087 33.6249C26.7367 33.7639 26.5687 33.9159 26.4077 34.0809C25.8037 34.7009 24.9487 34.2569 24.7567 33.6259C24.9487 32.9949 25.8047 32.5489 26.4077 33.1689Z" fill="#B04C7E"/>
<path d="M23.5747 37.524C25.8637 40.746 29.6047 42.165 33.5997 41.396C34.8607 41.153 34.3267 39.311 33.0677 39.554C30.0017 40.144 27.0547 39.029 25.3007 36.56C24.5827 35.547 22.8487 36.502 23.5747 37.524Z" fill="#B04C7E"/>
<path d="M23.5747 29.726C25.8637 26.504 29.6047 25.085 33.5997 25.854C34.8607 26.097 34.3267 27.939 33.0677 27.697C30.0017 27.107 27.0547 28.222 25.3007 30.691C24.5827 31.702 22.8487 30.747 23.5747 29.726Z" fill="#B04C7E"/>
<path d="M21.6908 41.9809C22.6388 45.3339 25.3358 47.9479 28.8228 48.9199C30.0608 49.2649 30.5898 47.4219 29.3548 47.0779C26.5288 46.2899 24.3868 44.1859 23.6198 41.4729C23.2838 40.2869 21.3538 40.7899 21.6908 41.9809Z" fill="#B04C7E"/>
<path d="M21.6908 25.2689C22.6388 21.9159 25.3358 19.3019 28.8228 18.3299C30.0608 17.9849 30.5898 19.8279 29.3548 20.1729C26.5288 20.9609 24.3868 23.0649 23.6198 25.7769C23.2838 26.9629 21.3538 26.4599 21.6908 25.2689Z" fill="#B04C7E"/>
<path d="M18.743 46.597C19.47 49.289 21.024 51.659 23.27 53.432C24.255 54.209 25.678 52.865 24.684 52.081C22.687 50.505 21.319 48.488 20.671 46.09C20.35 44.899 18.42 45.403 18.743 46.597Z" fill="#B04C7E"/>
<path d="M18.743 20.653C19.47 17.961 21.024 15.59 23.27 13.818C24.255 13.041 25.678 14.385 24.684 15.169C22.687 16.745 21.319 18.762 20.671 21.16C20.35 22.351 18.42 21.847 18.743 20.653Z" fill="#B04C7E"/>
<path d="M15.2777 48.7279C14.8117 51.3359 15.2857 53.8829 16.7667 56.1309C17.4507 57.1689 19.1817 56.2109 18.4937 55.1669C17.3117 53.3739 16.8317 51.3359 17.2067 49.2369C17.4217 48.0329 15.4947 47.5159 15.2777 48.7279Z" fill="#B04C7E"/>
<path d="M15.2777 18.5219C14.8117 15.9139 15.2857 13.3669 16.7667 11.1189C17.4507 10.0809 19.1817 11.0389 18.4937 12.0829C17.3117 13.8759 16.8317 15.9139 17.2067 18.0129C17.4217 19.2169 15.4947 19.7329 15.2777 18.5219Z" fill="#B04C7E"/>
<path d="M38.92 33.625C38.937 36.898 35.053 39.281 32.084 40.086C30.848 40.421 31.373 42.266 32.616 41.929C36.041 40.999 41.436 37.597 41.436 33.625C41.436 29.653 36.041 26.25 32.616 25.321C31.374 24.984 30.848 26.828 32.084 27.163C35.053 27.969 38.937 30.352 38.92 33.625Z" fill="#B04C7E"/>
<path d="M33.3111 41.074C34.5791 43.359 34.7561 45.953 33.4211 48.258C32.1461 50.458 29.1941 52.691 26.6011 50.864C25.5641 50.133 24.5661 51.791 25.5921 52.514C28.6681 54.681 32.4701 52.814 34.4981 50.184C36.8221 47.17 36.8381 43.352 35.0391 40.11C34.4341 39.023 32.7071 39.987 33.3111 41.074Z" fill="#B04C7E"/>
<path d="M33.3111 26.176C34.5791 23.891 34.7561 21.297 33.4211 18.992C32.1461 16.792 29.1941 14.559 26.6011 16.386C25.5641 17.116 24.5661 15.459 25.5921 14.736C28.6681 12.569 32.4701 14.436 34.4981 17.066C36.8221 20.08 36.8381 23.898 35.0391 27.14C34.4341 28.227 32.7071 27.263 33.3111 26.176Z" fill="#B04C7E"/>
<path d="M25.0559 52.5219C24.9049 54.9399 23.9149 57.1869 21.9379 58.7619C19.7259 60.5239 15.3999 61.9579 13.4749 59.0049C12.7959 57.9629 11.0649 58.9219 11.7479 59.9689C13.7949 63.1099 17.8909 63.0709 21.0829 61.5509C24.7509 59.8039 26.8159 56.3629 27.0549 52.5209C27.1329 51.2939 25.1319 51.2979 25.0559 52.5219Z" fill="#B04C7E"/>
<path d="M25.0559 14.728C24.9049 12.31 23.9149 10.063 21.9379 8.48801C19.7259 6.72601 15.3999 5.29201 13.4749 8.24501C12.7959 9.28701 11.0649 8.32801 11.7479 7.28101C13.7949 4.14001 17.8909 4.17901 21.0829 5.69901C24.7509 7.44601 26.8159 10.887 27.0549 14.728C27.1329 15.956 25.1319 15.952 25.0559 14.728Z" fill="#B04C7E"/>
<path d="M42.9059 33.6249C42.8459 33.7349 42.8049 33.8629 42.7909 34.0079C42.4739 37.3179 39.4979 39.4319 36.1149 39.1139C34.8349 38.9939 34.8439 40.9049 36.1149 41.0249C40.6659 41.4529 44.3809 38.2849 44.7909 34.0079C44.8049 33.8629 44.7889 33.7359 44.7499 33.6249C44.7889 33.5149 44.8049 33.3869 44.7909 33.2419C44.3809 28.9649 40.6659 25.7969 36.1149 26.2249C34.8439 26.3449 34.8349 28.2559 36.1149 28.1359C39.4979 27.8179 42.4739 29.9319 42.7909 33.2419C42.8049 33.3869 42.8459 33.5139 42.9059 33.6249Z" fill="#B04C7E"/>
<path d="M35.3841 41.732C37.9771 44.321 39.1211 48.366 37.1961 51.65C35.2081 55.041 29.3731 56.442 27.7891 51.86C27.3871 50.698 25.4551 51.196 25.8601 52.368C27.4841 57.067 33.5611 58.047 37.2041 54.757C41.5741 50.81 40.6861 44.265 36.7981 40.382C35.9071 39.491 34.4941 40.843 35.3841 41.732Z" fill="#B04C7E"/>
<path d="M35.3841 25.518C37.9771 22.929 39.1211 18.884 37.1961 15.601C35.2081 12.21 29.3731 10.809 27.7891 15.391C27.3871 16.553 25.4551 16.055 25.8601 14.883C27.4841 10.184 33.5611 9.20399 37.2041 12.494C41.5741 16.441 40.6861 22.986 36.7981 26.869C35.9071 27.759 34.4941 26.407 35.3841 25.518Z" fill="#B04C7E"/>
<path d="M26.1591 54.283C29.8561 61.757 16.226 69.011 14.119 60.823C13.812 59.629 11.8831 60.135 12.1901 61.331C13.4071 66.062 18.9331 67.497 23.1731 65.369C27.7781 63.058 30.154 57.905 27.885 53.319C27.336 52.208 25.6121 53.176 26.1591 54.283Z" fill="#B04C7E"/>
<path d="M26.1591 12.967C29.8561 5.49297 16.226 -1.76103 14.119 6.42697C13.812 7.62097 11.8831 7.11497 12.1901 5.91897C13.4071 1.18797 18.9331 -0.247025 23.1731 1.88098C27.7781 4.19198 30.154 9.34497 27.885 13.931C27.336 15.042 25.6121 14.073 26.1591 12.967Z" fill="#B04C7E"/>
<path d="M13.25 133.649L13.25 66.9659L9.694 66.9659L9.694 133.649L13.25 133.649Z" fill="#B04C7E"/>
<path d="M5.80566 133.649L5.80566 66.9659L0.323669 66.9659L0.323667 133.649L5.80566 133.649Z" fill="#B04C7E"/>
<path d="M21.859 100.308C21.859 106.388 18.389 112.469 11.449 115.329C9.09203 116.3 11.127 119.594 13.468 118.629C21.738 115.221 25.874 107.765 25.874 100.308C25.874 92.8519 21.739 85.3959 13.468 81.9869C11.127 81.0219 9.09204 84.3149 11.449 85.2869C18.39 88.1469 21.859 94.2269 21.859 100.308Z" fill="#B04C7E"/>
<path d="M33.7969 100.308C33.7969 111.94 23.5129 121.182 12.1929 123.269C10.9309 123.502 11.4649 125.344 12.7249 125.112C24.8589 122.875 35.8819 112.747 35.7969 100.308C35.8819 87.8689 24.8589 77.7409 12.7249 75.5039C11.4649 75.2719 10.9309 77.1139 12.1929 77.3469C23.5129 79.4329 33.7969 88.6749 33.7969 100.308Z" fill="#B04C7E"/>
<path d="M15.6348 100.308C15.6358 103.683 13.8019 107.059 10.1219 108.97C8.99086 109.558 9.99883 111.208 11.1308 110.62C15.4498 108.376 17.6108 104.342 17.6108 100.308C17.6108 96.2739 15.4498 92.2399 11.1308 89.9959C9.99883 89.4079 8.98986 91.0579 10.1219 91.6459C13.8009 93.5569 15.6358 96.9329 15.6348 100.308Z" fill="#B04C7E"/>
<path d="M24.7577 100.308C24.9497 100.939 25.8047 101.384 26.4087 100.764C26.5697 100.599 26.7367 100.447 26.9087 100.308C26.7367 100.169 26.5697 100.017 26.4087 99.8519C25.8047 99.2319 24.9497 99.6769 24.7577 100.308Z" fill="#B04C7E"/>
<path d="M33.7166 99.6319C33.7166 100.082 33.7166 100.533 33.7166 100.983C33.4946 100.731 33.2567 100.506 33.0087 100.307C33.2577 100.109 33.4946 99.8839 33.7166 99.6319C33.7166 100.082 33.7166 100.533 33.7166 100.983C33.4946 100.732 33.2567 100.506 33.0087 100.307C33.2577 100.109 33.4946 99.8839 33.7166 99.6319ZM24.9937 99.4129C27.8137 96.5179 32.4526 96.6039 35.1306 99.6329C35.3166 99.8429 35.4106 100.076 35.4106 100.309C35.4106 100.542 35.3176 100.774 35.1306 100.985C32.4526 104.014 27.8137 104.1 24.9937 101.205C24.7197 100.923 24.6697 100.597 24.7567 100.31C24.6697 100.02 24.7197 99.6939 24.9937 99.4129ZM26.4077 99.8519C26.5687 100.017 26.7357 100.169 26.9087 100.308C26.7367 100.447 26.5687 100.599 26.4077 100.764C25.8037 101.384 24.9487 100.939 24.7567 100.308C24.9487 99.6769 25.8047 99.2319 26.4077 99.8519Z" fill="#B04C7E"/>
<path d="M23.5747 104.207C25.8637 107.429 29.6047 108.848 33.5997 108.079C34.8607 107.836 34.3267 105.994 33.0677 106.237C30.0017 106.827 27.0547 105.712 25.3007 103.243C24.5827 102.23 22.8487 103.185 23.5747 104.207Z" fill="#B04C7E"/>
<path d="M23.5747 96.409C25.8637 93.187 29.6047 91.768 33.5997 92.537C34.8607 92.78 34.3267 94.622 33.0677 94.38C30.0017 93.79 27.0547 94.905 25.3007 97.374C24.5827 98.385 22.8487 97.43 23.5747 96.409Z" fill="#B04C7E"/>
<path d="M21.6908 108.664C22.6388 112.017 25.3358 114.631 28.8228 115.603C30.0608 115.948 30.5898 114.105 29.3548 113.761C26.5288 112.973 24.3868 110.868 23.6198 108.156C23.2838 106.97 21.3538 107.473 21.6908 108.664Z" fill="#B04C7E"/>
<path d="M21.6908 91.9519C22.6388 88.5989 25.3358 85.9849 28.8228 85.0129C30.0608 84.6679 30.5898 86.5109 29.3548 86.8559C26.5288 87.6439 24.3868 89.7479 23.6198 92.4599C23.2838 93.6459 21.3538 93.1419 21.6908 91.9519Z" fill="#B04C7E"/>
<path d="M18.743 113.279C19.47 115.971 21.024 118.342 23.27 120.114C24.255 120.891 25.678 119.547 24.684 118.763C22.687 117.187 21.319 115.17 20.671 112.772C20.35 111.582 18.42 112.086 18.743 113.279Z" fill="#B04C7E"/>
<path d="M18.743 87.336C19.47 84.644 21.024 82.273 23.27 80.501C24.255 79.724 25.678 81.0679 24.684 81.8519C22.687 83.4279 21.319 85.445 20.671 87.843C20.35 89.034 18.42 88.53 18.743 87.336Z" fill="#B04C7E"/>
<path d="M15.2777 115.411C14.8117 118.019 15.2857 120.566 16.7667 122.814C17.4507 123.852 19.1817 122.894 18.4937 121.85C17.3117 120.057 16.8317 118.019 17.2067 115.92C17.4217 114.716 15.4947 114.199 15.2777 115.411Z" fill="#B04C7E"/>
<path d="M15.2777 85.205C14.8117 82.597 15.2857 80.05 16.7667 77.803C17.4507 76.765 19.1817 77.723 18.4937 78.768C17.3117 80.561 16.8317 82.599 17.2067 84.698C17.4217 85.9 15.4947 86.416 15.2777 85.205Z" fill="#B04C7E"/>
<path d="M38.92 100.308C38.937 103.581 35.053 105.964 32.084 106.769C30.848 107.104 31.373 108.949 32.616 108.612C36.041 107.682 41.436 104.28 41.436 100.308C41.436 96.336 36.041 92.933 32.616 92.004C31.374 91.667 30.848 93.511 32.084 93.846C35.053 94.652 38.937 97.035 38.92 100.308Z" fill="#B04C7E"/>
<path d="M33.3111 107.757C34.5791 110.042 34.7561 112.636 33.4211 114.941C32.1461 117.141 29.1941 119.374 26.6011 117.547C25.5641 116.817 24.5661 118.474 25.5921 119.197C28.6681 121.364 32.4701 119.497 34.4981 116.867C36.8221 113.853 36.8381 110.035 35.0391 106.793C34.4341 105.706 32.7071 106.67 33.3111 107.757Z" fill="#B04C7E"/>
<path d="M33.3111 92.859C34.5791 90.574 34.7561 87.98 33.4211 85.675C32.1461 83.475 29.1941 81.242 26.6011 83.069C25.5641 83.799 24.5661 82.142 25.5921 81.419C28.6681 79.252 32.4701 81.119 34.4981 83.749C36.8221 86.763 36.8381 90.581 35.0391 93.823C34.4341 94.91 32.7071 93.946 33.3111 92.859Z" fill="#B04C7E"/>
<path d="M25.0559 119.205C24.9049 121.623 23.9149 123.87 21.9379 125.445C19.7259 127.207 15.3999 128.641 13.4749 125.688C12.7959 124.646 11.0649 125.605 11.7479 126.652C13.7949 129.793 17.8909 129.754 21.0829 128.234C24.7509 126.487 26.8159 123.046 27.0549 119.205C27.1329 117.977 25.1319 117.981 25.0559 119.205Z" fill="#B04C7E"/>
<path d="M25.0559 81.411C24.9049 78.993 23.9149 76.746 21.9379 75.171C19.7259 73.409 15.3999 71.975 13.4749 74.928C12.7959 75.97 11.0649 75.012 11.7479 73.964C13.7949 70.823 17.8909 70.862 21.0829 72.382C24.7509 74.129 26.8159 77.57 27.0549 81.411C27.1329 82.639 25.1319 82.635 25.0559 81.411Z" fill="#B04C7E"/>
<path d="M42.9059 100.308C42.8459 100.418 42.8049 100.546 42.7909 100.691C42.4739 104.001 39.4979 106.115 36.1149 105.797C34.8349 105.677 34.8439 107.588 36.1149 107.708C40.6659 108.136 44.3809 104.968 44.7909 100.691C44.8049 100.546 44.7889 100.419 44.7499 100.308C44.7889 100.198 44.8049 100.07 44.7909 99.9249C44.3809 95.6479 40.6659 92.4799 36.1149 92.9079C34.8439 93.0279 34.8349 94.9389 36.1149 94.8189C39.4979 94.5009 42.4739 96.6149 42.7909 99.9249C42.8049 100.07 42.8459 100.197 42.9059 100.308Z" fill="#B04C7E"/>
<path d="M35.3841 108.415C37.9771 111.004 39.1211 115.049 37.1961 118.333C35.2081 121.724 29.3731 123.125 27.7891 118.543C27.3871 117.381 25.4551 117.879 25.8601 119.051C27.4841 123.75 33.5611 124.73 37.2041 121.44C41.5741 117.493 40.6861 110.948 36.7981 107.065C35.9071 106.174 34.4941 107.526 35.3841 108.415Z" fill="#B04C7E"/>
<path d="M35.3841 92.201C37.9771 89.612 39.1211 85.567 37.1961 82.283C35.2081 78.892 29.3731 77.491 27.7891 82.073C27.3871 83.235 25.4551 82.737 25.8601 81.565C27.4841 76.866 33.5611 75.886 37.2041 79.176C41.5741 83.123 40.6861 89.668 36.7981 93.551C35.9071 94.442 34.4941 93.09 35.3841 92.201Z" fill="#B04C7E"/>
<path d="M26.1591 120.966C29.8561 128.44 16.226 135.694 14.119 127.506C13.812 126.312 11.8831 126.818 12.1901 128.014C13.4071 132.745 18.9331 134.18 23.1731 132.052C27.7781 129.741 30.154 124.588 27.885 120.002C27.336 118.891 25.6121 119.859 26.1591 120.966Z" fill="#B04C7E"/>
<path d="M26.1591 79.649C29.8561 72.175 16.226 64.921 14.119 73.11C13.812 74.303 11.8831 73.798 12.1901 72.602C13.4071 67.871 18.9331 66.436 23.1731 68.564C27.7781 70.875 30.154 76.028 27.885 80.614C27.336 81.725 25.6121 80.756 26.1591 79.649Z" fill="#B04C7E"/>
<path d="M13.25 200.332L13.25 133.649L9.694 133.649L9.694 200.332L13.25 200.332Z" fill="#B04C7E"/>
<path d="M5.80566 200.332L5.80566 133.649L0.323669 133.649L0.323667 200.332L5.80566 200.332Z" fill="#B04C7E"/>
<path d="M21.859 166.991C21.859 173.071 18.389 179.152 11.449 182.012C9.09203 182.983 11.127 186.277 13.468 185.312C21.738 181.904 25.874 174.448 25.874 166.991C25.874 159.535 21.739 152.079 13.468 148.67C11.127 147.705 9.09204 150.998 11.449 151.97C18.39 154.83 21.859 160.91 21.859 166.991Z" fill="#B04C7E"/>
<path d="M33.7969 166.991C33.7969 178.623 23.5129 187.865 12.1929 189.952C10.9309 190.185 11.4649 192.027 12.7249 191.795C24.8589 189.558 35.8819 179.43 35.7969 166.991C35.8819 154.552 24.8589 144.424 12.7249 142.187C11.4649 141.955 10.9309 143.797 12.1929 144.03C23.5129 146.116 33.7969 155.358 33.7969 166.991Z" fill="#B04C7E"/>
<path d="M15.6348 166.991C15.6358 170.366 13.8019 173.742 10.1219 175.653C8.99086 176.241 9.99883 177.891 11.1308 177.303C15.4498 175.059 17.6108 171.025 17.6108 166.991C17.6108 162.957 15.4498 158.923 11.1308 156.679C9.99883 156.091 8.98986 157.741 10.1219 158.329C13.8009 160.24 15.6358 163.616 15.6348 166.991Z" fill="#B04C7E"/>
<path d="M24.7577 166.991C24.9497 167.622 25.8047 168.067 26.4087 167.447C26.5697 167.282 26.7367 167.13 26.9087 166.991C26.7367 166.852 26.5697 166.7 26.4087 166.535C25.8047 165.915 24.9497 166.36 24.7577 166.991Z" fill="#B04C7E"/>
<path d="M33.7166 166.315C33.7166 166.765 33.7166 167.216 33.7166 167.666C33.4946 167.414 33.2567 167.189 33.0087 166.99C33.2577 166.792 33.4946 166.567 33.7166 166.315C33.7166 166.765 33.7166 167.216 33.7166 167.666C33.4946 167.414 33.2567 167.189 33.0087 166.99C33.2577 166.792 33.4946 166.567 33.7166 166.315ZM24.9937 166.096C27.8137 163.201 32.4526 163.287 35.1306 166.316C35.3166 166.526 35.4106 166.759 35.4106 166.992C35.4106 167.225 35.3176 167.457 35.1306 167.668C32.4526 170.697 27.8137 170.783 24.9937 167.888C24.7197 167.606 24.6697 167.28 24.7567 166.993C24.6697 166.703 24.7197 166.377 24.9937 166.096ZM26.4077 166.535C26.5687 166.7 26.7357 166.852 26.9087 166.991C26.7367 167.13 26.5687 167.282 26.4077 167.447C25.8037 168.067 24.9487 167.622 24.7567 166.991C24.9487 166.36 25.8047 165.915 26.4077 166.535Z" fill="#B04C7E"/>
<path d="M23.5747 170.89C25.8637 174.112 29.6047 175.531 33.5997 174.762C34.8607 174.519 34.3267 172.677 33.0677 172.92C30.0017 173.51 27.0547 172.395 25.3007 169.926C24.5827 168.913 22.8487 169.868 23.5747 170.89Z" fill="#B04C7E"/>
<path d="M23.5747 163.092C25.8637 159.87 29.6047 158.451 33.5997 159.22C34.8607 159.463 34.3267 161.305 33.0677 161.062C30.0017 160.472 27.0547 161.587 25.3007 164.056C24.5827 165.068 22.8487 164.113 23.5747 163.092Z" fill="#B04C7E"/>
<path d="M21.6908 175.347C22.6388 178.7 25.3358 181.314 28.8228 182.286C30.0608 182.631 30.5898 180.788 29.3548 180.443C26.5288 179.655 24.3868 177.551 23.6198 174.838C23.2838 173.653 21.3538 174.156 21.6908 175.347Z" fill="#B04C7E"/>
<path d="M21.6908 158.635C22.6388 155.282 25.3358 152.668 28.8228 151.696C30.0608 151.351 30.5898 153.194 29.3548 153.538C26.5288 154.326 24.3868 156.431 23.6198 159.143C23.2838 160.329 21.3538 159.826 21.6908 158.635Z" fill="#B04C7E"/>
<path d="M18.743 179.962C19.47 182.654 21.024 185.025 23.27 186.797C24.255 187.574 25.678 186.23 24.684 185.446C22.687 183.87 21.319 181.853 20.671 179.455C20.35 178.265 18.42 178.769 18.743 179.962Z" fill="#B04C7E"/>
<path d="M18.743 154.019C19.47 151.327 21.024 148.956 23.27 147.184C24.255 146.407 25.678 147.751 24.684 148.535C22.687 150.111 21.319 152.128 20.671 154.526C20.35 155.717 18.42 155.213 18.743 154.019Z" fill="#B04C7E"/>
<path d="M15.2777 182.094C14.8117 184.702 15.2857 187.249 16.7667 189.497C17.4507 190.535 19.1817 189.577 18.4937 188.532C17.3117 186.739 16.8317 184.701 17.2067 182.602C17.4217 181.399 15.4947 180.882 15.2777 182.094Z" fill="#B04C7E"/>
<path d="M15.2777 151.888C14.8117 149.28 15.2857 146.733 16.7667 144.486C17.4507 143.448 19.1817 144.406 18.4937 145.45C17.3117 147.243 16.8317 149.281 17.2067 151.38C17.4217 152.583 15.4947 153.099 15.2777 151.888Z" fill="#B04C7E"/>
<path d="M38.92 166.991C38.937 170.264 35.053 172.647 32.084 173.453C30.848 173.788 31.373 175.633 32.616 175.295C36.041 174.366 41.436 170.963 41.436 166.991C41.436 163.019 36.041 159.616 32.616 158.687C31.374 158.35 30.848 160.194 32.084 160.53C35.053 161.335 38.937 163.718 38.92 166.991Z" fill="#B04C7E"/>
<path d="M33.3111 174.44C34.5791 176.725 34.7561 179.319 33.4211 181.624C32.1461 183.824 29.1941 186.057 26.6011 184.23C25.5641 183.5 24.5661 185.157 25.5921 185.88C28.6681 188.047 32.4701 186.18 34.4981 183.55C36.8221 180.535 36.8381 176.718 35.0391 173.476C34.4341 172.389 32.7071 173.353 33.3111 174.44Z" fill="#B04C7E"/>
<path d="M33.3111 159.542C34.5791 157.257 34.7561 154.663 33.4211 152.358C32.1461 150.158 29.1941 147.925 26.6011 149.752C25.5641 150.482 24.5661 148.825 25.5921 148.102C28.6681 145.935 32.4701 147.802 34.4981 150.432C36.8221 153.447 36.8381 157.264 35.0391 160.506C34.4341 161.593 32.7071 160.629 33.3111 159.542Z" fill="#B04C7E"/>
<path d="M25.0559 185.888C24.9049 188.306 23.9149 190.553 21.9379 192.128C19.7259 193.89 15.3999 195.324 13.4749 192.371C12.7959 191.329 11.0649 192.288 11.7479 193.335C13.7949 196.476 17.8909 196.437 21.0829 194.917C24.7509 193.17 26.8159 189.729 27.0549 185.888C27.1329 184.66 25.1319 184.664 25.0559 185.888Z" fill="#B04C7E"/>
<path d="M25.0559 148.094C24.9049 145.676 23.9149 143.429 21.9379 141.854C19.7259 140.092 15.3999 138.658 13.4749 141.611C12.7959 142.653 11.0649 141.694 11.7479 140.647C13.7949 137.506 17.8909 137.545 21.0829 139.065C24.7509 140.812 26.8159 144.253 27.0549 148.094C27.1329 149.322 25.1319 149.318 25.0559 148.094Z" fill="#B04C7E"/>
<path d="M42.9059 166.991C42.8459 167.101 42.8049 167.229 42.7909 167.374C42.4739 170.684 39.4979 172.798 36.1149 172.48C34.8349 172.36 34.8439 174.271 36.1149 174.391C40.6659 174.819 44.3809 171.651 44.7909 167.374C44.8049 167.229 44.7889 167.102 44.7499 166.991C44.7889 166.881 44.8049 166.753 44.7909 166.608C44.3809 162.331 40.6659 159.163 36.1149 159.591C34.8439 159.711 34.8349 161.622 36.1149 161.502C39.4979 161.184 42.4739 163.298 42.7909 166.608C42.8049 166.753 42.8459 166.88 42.9059 166.991Z" fill="#B04C7E"/>
<path d="M35.3841 175.098C37.9771 177.687 39.1211 181.732 37.1961 185.015C35.2081 188.406 29.3731 189.807 27.7891 185.225C27.3871 184.063 25.4551 184.561 25.8601 185.733C27.4841 190.432 33.5611 191.412 37.2041 188.122C41.5741 184.175 40.6861 177.63 36.7981 173.747C35.9071 172.857 34.4941 174.209 35.3841 175.098Z" fill="#B04C7E"/>
<path d="M35.3841 158.884C37.9771 156.295 39.1211 152.25 37.1961 148.966C35.2081 145.575 29.3731 144.174 27.7891 148.756C27.3871 149.918 25.4551 149.42 25.8601 148.248C27.4841 143.549 33.5611 142.569 37.2041 145.859C41.5741 149.806 40.6861 156.351 36.7981 160.234C35.9071 161.125 34.4941 159.773 35.3841 158.884Z" fill="#B04C7E"/>
<path d="M26.1591 187.649C29.8561 195.123 16.226 202.377 14.119 194.189C13.812 192.995 11.8831 193.501 12.1901 194.697C13.4071 199.428 18.9331 200.863 23.1731 198.735C27.7781 196.424 30.154 191.271 27.885 186.685C27.336 185.574 25.6121 186.542 26.1591 187.649Z" fill="#B04C7E"/>
<path d="M26.1591 146.332C29.8561 138.858 16.226 131.604 14.119 139.792C13.812 140.986 11.8831 140.48 12.1901 139.284C13.4071 134.553 18.9331 133.118 23.1731 135.246C27.7781 137.557 30.154 142.71 27.885 147.296C27.336 148.408 25.6121 147.439 26.1591 146.332Z" fill="#B04C7E"/>
<path d="M13.25 267.015L13.25 200.332L9.694 200.332L9.694 267.015L13.25 267.015Z" fill="#B04C7E"/>
<path d="M5.80566 267.015L5.80566 200.332L0.323669 200.332L0.323667 267.015L5.80566 267.015Z" fill="#B04C7E"/>
<path d="M21.859 233.674C21.859 239.754 18.389 245.835 11.449 248.695C9.09203 249.666 11.127 252.96 13.468 251.995C21.738 248.587 25.874 241.13 25.874 233.674C25.874 226.218 21.739 218.762 13.468 215.353C11.127 214.388 9.09204 217.681 11.449 218.653C18.39 221.513 21.859 227.593 21.859 233.674Z" fill="#B04C7E"/>
<path d="M33.7969 233.674C33.7969 245.307 23.5129 254.548 12.1929 256.635C10.9309 256.868 11.4649 258.71 12.7249 258.478C24.8589 256.241 35.8819 246.113 35.7969 233.674C35.8819 221.235 24.8589 211.107 12.7249 208.87C11.4649 208.638 10.9309 210.48 12.1929 210.712C23.5129 212.799 33.7969 222.041 33.7969 233.674Z" fill="#B04C7E"/>
<path d="M15.6348 233.674C15.6358 237.049 13.8019 240.424 10.1219 242.336C8.99086 242.924 9.99883 244.574 11.1308 243.986C15.4498 241.742 17.6108 237.708 17.6108 233.674C17.6108 229.64 15.4498 225.606 11.1308 223.362C9.99883 222.774 8.98986 224.424 10.1219 225.012C13.8009 226.923 15.6358 230.299 15.6348 233.674Z" fill="#B04C7E"/>
<path d="M24.7577 233.674C24.9497 234.305 25.8047 234.75 26.4087 234.13C26.5697 233.965 26.7367 233.813 26.9087 233.674C26.7367 233.535 26.5697 233.383 26.4087 233.218C25.8047 232.598 24.9497 233.043 24.7577 233.674Z" fill="#B04C7E"/>
<path d="M33.7166 232.998C33.7166 233.448 33.7166 233.899 33.7166 234.349C33.4946 234.097 33.2567 233.872 33.0087 233.673C33.2577 233.475 33.4946 233.25 33.7166 232.998C33.7166 233.448 33.7166 233.899 33.7166 234.349C33.4946 234.098 33.2567 233.872 33.0087 233.673C33.2577 233.475 33.4946 233.25 33.7166 232.998ZM24.9937 232.779C27.8137 229.884 32.4526 229.97 35.1306 232.999C35.3166 233.209 35.4106 233.442 35.4106 233.675C35.4106 233.908 35.3176 234.14 35.1306 234.351C32.4526 237.38 27.8137 237.466 24.9937 234.571C24.7197 234.289 24.6697 233.963 24.7567 233.676C24.6697 233.386 24.7197 233.06 24.9937 232.779ZM26.4077 233.218C26.5687 233.383 26.7357 233.535 26.9087 233.674C26.7367 233.813 26.5687 233.965 26.4077 234.13C25.8037 234.75 24.9487 234.305 24.7567 233.674C24.9487 233.043 25.8047 232.598 26.4077 233.218Z" fill="#B04C7E"/>
<path d="M23.5747 237.572C25.8637 240.794 29.6047 242.213 33.5997 241.444C34.8607 241.201 34.3267 239.359 33.0677 239.601C30.0017 240.191 27.0547 239.076 25.3007 236.607C24.5827 235.596 22.8487 236.551 23.5747 237.572Z" fill="#B04C7E"/>
<path d="M23.5747 229.775C25.8637 226.553 29.6047 225.134 33.5997 225.903C34.8607 226.146 34.3267 227.988 33.0677 227.745C30.0017 227.155 27.0547 228.27 25.3007 230.739C24.5827 231.751 22.8487 230.796 23.5747 229.775Z" fill="#B04C7E"/>
<path d="M21.6908 242.03C22.6388 245.383 25.3358 247.997 28.8228 248.969C30.0608 249.314 30.5898 247.471 29.3548 247.126C26.5288 246.338 24.3868 244.234 23.6198 241.522C23.2838 240.336 21.3538 240.839 21.6908 242.03Z" fill="#B04C7E"/>
<path d="M21.6908 225.318C22.6388 221.965 25.3358 219.351 28.8228 218.379C30.0608 218.034 30.5898 219.877 29.3548 220.221C26.5288 221.009 24.3868 223.114 23.6198 225.826C23.2838 227.012 21.3538 226.508 21.6908 225.318Z" fill="#B04C7E"/>
<path d="M18.743 246.645C19.47 249.337 21.024 251.708 23.27 253.48C24.255 254.257 25.678 252.913 24.684 252.129C22.687 250.553 21.319 248.536 20.671 246.138C20.35 244.948 18.42 245.452 18.743 246.645Z" fill="#B04C7E"/>
<path d="M18.743 220.702C19.47 218.01 21.024 215.64 23.27 213.868C24.255 213.091 25.678 214.435 24.684 215.219C22.687 216.795 21.319 218.812 20.671 221.21C20.35 222.4 18.42 221.895 18.743 220.702Z" fill="#B04C7E"/>
<path d="M15.2777 248.777C14.8117 251.385 15.2857 253.932 16.7667 256.179C17.4507 257.217 19.1817 256.259 18.4937 255.215C17.3117 253.422 16.8317 251.384 17.2067 249.285C17.4217 248.082 15.4947 247.565 15.2777 248.777Z" fill="#B04C7E"/>
<path d="M15.2777 218.571C14.8117 215.963 15.2857 213.416 16.7667 211.169C17.4507 210.131 19.1817 211.089 18.4937 212.133C17.3117 213.926 16.8317 215.964 17.2067 218.063C17.4217 219.266 15.4947 219.782 15.2777 218.571Z" fill="#B04C7E"/>
<path d="M38.92 233.674C38.937 236.947 35.053 239.33 32.084 240.135C30.848 240.47 31.373 242.315 32.616 241.977C36.041 241.048 41.436 237.645 41.436 233.673C41.436 229.701 36.041 226.298 32.616 225.369C31.374 225.032 30.848 226.876 32.084 227.212C35.053 228.018 38.937 230.401 38.92 233.674Z" fill="#B04C7E"/>
<path d="M33.3111 241.123C34.5791 243.408 34.7561 246.002 33.4211 248.307C32.1461 250.507 29.1941 252.74 26.6011 250.913C25.5641 250.183 24.5661 251.84 25.5921 252.563C28.6681 254.73 32.4701 252.863 34.4981 250.233C36.8221 247.219 36.8381 243.401 35.0391 240.159C34.4341 239.072 32.7071 240.036 33.3111 241.123Z" fill="#B04C7E"/>
<path d="M33.3111 226.225C34.5791 223.94 34.7561 221.346 33.4211 219.041C32.1461 216.841 29.1941 214.608 26.6011 216.435C25.5641 217.165 24.5661 215.508 25.5921 214.785C28.6681 212.618 32.4701 214.485 34.4981 217.115C36.8221 220.129 36.8381 223.947 35.0391 227.189C34.4341 228.276 32.7071 227.312 33.3111 226.225Z" fill="#B04C7E"/>
<path d="M25.0559 252.571C24.9049 254.989 23.9149 257.236 21.9379 258.811C19.7259 260.573 15.3999 262.007 13.4749 259.054C12.7959 258.012 11.0649 258.971 11.7479 260.019C13.7949 263.16 17.8909 263.121 21.0829 261.601C24.7509 259.854 26.8159 256.413 27.0549 252.572C27.1329 251.343 25.1319 251.347 25.0559 252.571Z" fill="#B04C7E"/>
<path d="M25.0559 214.777C24.9049 212.359 23.9149 210.112 21.9379 208.537C19.7259 206.775 15.3999 205.341 13.4749 208.294C12.7959 209.336 11.0649 208.377 11.7479 207.33C13.7949 204.189 17.8909 204.228 21.0829 205.748C24.7509 207.495 26.8159 210.936 27.0549 214.777C27.1329 216.005 25.1319 216.001 25.0559 214.777Z" fill="#B04C7E"/>
<path d="M42.9059 233.674C42.8459 233.785 42.8049 233.912 42.7909 234.057C42.4739 237.367 39.4979 239.481 36.1149 239.163C34.8349 239.043 34.8439 240.954 36.1149 241.074C40.6659 241.502 44.3809 238.334 44.7909 234.057C44.8049 233.912 44.7889 233.785 44.7499 233.674C44.7889 233.564 44.8049 233.436 44.7909 233.291C44.3809 229.014 40.6659 225.846 36.1149 226.274C34.8439 226.394 34.8349 228.305 36.1149 228.185C39.4979 227.867 42.4739 229.981 42.7909 233.291C42.8049 233.436 42.8459 233.563 42.9059 233.674Z" fill="#B04C7E"/>
<path d="M35.3841 241.781C37.9771 244.37 39.1211 248.415 37.1961 251.698C35.2081 255.089 29.3731 256.49 27.7891 251.908C27.3871 250.746 25.4551 251.244 25.8601 252.416C27.4841 257.115 33.5611 258.095 37.2041 254.805C41.5741 250.858 40.6861 244.313 36.7981 240.43C35.9071 239.54 34.4941 240.892 35.3841 241.781Z" fill="#B04C7E"/>
<path d="M35.3841 225.567C37.9771 222.978 39.1211 218.933 37.1961 215.649C35.2081 212.258 29.3731 210.857 27.7891 215.439C27.3871 216.601 25.4551 216.103 25.8601 214.931C27.4841 210.232 33.5611 209.252 37.2041 212.542C41.5741 216.489 40.6861 223.034 36.7981 226.917C35.9071 227.808 34.4941 226.456 35.3841 225.567Z" fill="#B04C7E"/>
<path d="M26.1591 254.332C29.8561 261.806 16.226 269.06 14.119 260.872C13.812 259.678 11.8831 260.184 12.1901 261.38C13.4071 266.111 18.9331 267.546 23.1731 265.418C27.7781 263.107 30.154 257.954 27.885 253.368C27.336 252.257 25.6121 253.225 26.1591 254.332Z" fill="#B04C7E"/>
<path d="M26.1591 213.015C29.8561 205.541 16.226 198.287 14.119 206.475C13.812 207.669 11.8831 207.163 12.1901 205.967C13.4071 201.236 18.9331 199.801 23.1731 201.929C27.7781 204.24 30.154 209.393 27.885 213.979C27.336 215.091 25.6121 214.122 26.1591 213.015Z" fill="#B04C7E"/>
<path d="M13.25 333.698L13.25 267.015L9.694 267.015L9.694 333.698L13.25 333.698Z" fill="#B04C7E"/>
<path d="M5.80566 333.698L5.80566 267.015L0.323669 267.015L0.323667 333.698L5.80566 333.698Z" fill="#B04C7E"/>
<path d="M21.859 300.357C21.859 306.437 18.389 312.518 11.449 315.378C9.09203 316.349 11.127 319.643 13.468 318.678C21.738 315.27 25.874 307.813 25.874 300.357C25.874 292.901 21.739 285.445 13.468 282.036C11.127 281.071 9.09204 284.364 11.449 285.336C18.39 288.196 21.859 294.276 21.859 300.357Z" fill="#B04C7E"/>
<path d="M33.7969 300.357C33.7969 311.99 23.5129 321.231 12.1929 323.318C10.9309 323.551 11.4649 325.393 12.7249 325.161C24.8589 322.924 35.8819 312.796 35.7969 300.357C35.8819 287.918 24.8589 277.79 12.7249 275.553C11.4649 275.321 10.9309 277.163 12.1929 277.395C23.5129 279.482 33.7969 288.724 33.7969 300.357Z" fill="#B04C7E"/>
<path d="M15.6348 300.357C15.6358 303.732 13.8019 307.108 10.1219 309.019C8.99086 309.607 9.99883 311.257 11.1308 310.669C15.4498 308.425 17.6108 304.391 17.6108 300.357C17.6108 296.323 15.4498 292.289 11.1308 290.045C9.99883 289.457 8.98986 291.107 10.1219 291.695C13.8009 293.606 15.6358 296.982 15.6348 300.357Z" fill="#B04C7E"/>
<path d="M24.7577 300.357C24.9497 300.988 25.8047 301.433 26.4087 300.813C26.5697 300.648 26.7367 300.496 26.9087 300.357C26.7367 300.218 26.5697 300.066 26.4087 299.901C25.8047 299.281 24.9497 299.726 24.7577 300.357Z" fill="#B04C7E"/>
<path d="M33.7166 299.681C33.7166 300.131 33.7166 300.582 33.7166 301.032C33.4946 300.78 33.2567 300.555 33.0087 300.356C33.2577 300.158 33.4946 299.933 33.7166 299.681C33.7166 300.131 33.7166 300.582 33.7166 301.032C33.4946 300.781 33.2567 300.555 33.0087 300.356C33.2577 300.158 33.4946 299.933 33.7166 299.681ZM24.9937 299.462C27.8137 296.567 32.4526 296.653 35.1306 299.682C35.3166 299.892 35.4106 300.125 35.4106 300.358C35.4106 300.591 35.3176 300.823 35.1306 301.034C32.4526 304.063 27.8137 304.149 24.9937 301.254C24.7197 300.972 24.6697 300.646 24.7567 300.359C24.6697 300.069 24.7197 299.743 24.9937 299.462ZM26.4077 299.901C26.5687 300.066 26.7357 300.218 26.9087 300.357C26.7367 300.496 26.5687 300.648 26.4077 300.813C25.8037 301.433 24.9487 300.988 24.7567 300.357C24.9487 299.726 25.8047 299.281 26.4077 299.901Z" fill="#B04C7E"/>
<path d="M23.5747 304.255C25.8637 307.477 29.6047 308.896 33.5997 308.127C34.8607 307.884 34.3267 306.042 33.0677 306.284C30.0017 306.874 27.0547 305.759 25.3007 303.29C24.5827 302.279 22.8487 303.234 23.5747 304.255Z" fill="#B04C7E"/>
<path d="M23.5747 296.458C25.8637 293.236 29.6047 291.817 33.5997 292.586C34.8607 292.829 34.3267 294.671 33.0677 294.429C30.0017 293.839 27.0547 294.954 25.3007 297.423C24.5827 298.434 22.8487 297.479 23.5747 296.458Z" fill="#B04C7E"/>
<path d="M21.6908 308.713C22.6388 312.066 25.3358 314.68 28.8228 315.652C30.0608 315.997 30.5898 314.154 29.3548 313.809C26.5288 313.021 24.3868 310.917 23.6198 308.205C23.2838 307.019 21.3538 307.522 21.6908 308.713Z" fill="#B04C7E"/>
<path d="M21.6908 292.001C22.6388 288.648 25.3358 286.034 28.8228 285.062C30.0608 284.717 30.5898 286.56 29.3548 286.905C26.5288 287.693 24.3868 289.797 23.6198 292.51C23.2838 293.695 21.3538 293.191 21.6908 292.001Z" fill="#B04C7E"/>
<path d="M18.743 313.328C19.47 316.02 21.024 318.391 23.27 320.163C24.255 320.94 25.678 319.596 24.684 318.812C22.687 317.236 21.319 315.219 20.671 312.821C20.35 311.631 18.42 312.135 18.743 313.328Z" fill="#B04C7E"/>
<path d="M18.743 287.385C19.47 284.693 21.024 282.323 23.27 280.55C24.255 279.773 25.678 281.117 24.684 281.901C22.687 283.477 21.319 285.494 20.671 287.892C20.35 289.083 18.42 288.578 18.743 287.385Z" fill="#B04C7E"/>
<path d="M15.2777 315.46C14.8117 318.068 15.2857 320.615 16.7667 322.863C17.4507 323.901 19.1817 322.943 18.4937 321.899C17.3117 320.106 16.8317 318.068 17.2067 315.969C17.4217 314.765 15.4947 314.248 15.2777 315.46Z" fill="#B04C7E"/>
<path d="M15.2777 285.254C14.8117 282.646 15.2857 280.099 16.7667 277.852C17.4507 276.814 19.1817 277.772 18.4937 278.816C17.3117 280.609 16.8317 282.647 17.2067 284.746C17.4217 285.949 15.4947 286.465 15.2777 285.254Z" fill="#B04C7E"/>
<path d="M38.92 300.357C38.937 303.63 35.053 306.013 32.084 306.819C30.848 307.154 31.373 308.999 32.616 308.661C36.041 307.732 41.436 304.329 41.436 300.357C41.436 296.385 36.041 292.983 32.616 292.053C31.374 291.716 30.848 293.56 32.084 293.896C35.053 294.701 38.937 297.084 38.92 300.357Z" fill="#B04C7E"/>
<path d="M33.3111 307.806C34.5791 310.091 34.7561 312.685 33.4211 314.99C32.1461 317.19 29.1941 319.423 26.6011 317.596C25.5641 316.866 24.5661 318.523 25.5921 319.246C28.6681 321.413 32.4701 319.546 34.4981 316.916C36.8221 313.902 36.8381 310.084 35.0391 306.842C34.4341 305.755 32.7071 306.719 33.3111 307.806Z" fill="#B04C7E"/>
<path d="M33.3111 292.908C34.5791 290.623 34.7561 288.029 33.4211 285.725C32.1461 283.525 29.1941 281.292 26.6011 283.119C25.5641 283.849 24.5661 282.192 25.5921 281.469C28.6681 279.302 32.4701 281.169 34.4981 283.799C36.8221 286.813 36.8381 290.631 35.0391 293.873C34.4341 294.959 32.7071 293.995 33.3111 292.908Z" fill="#B04C7E"/>
<path d="M25.0559 319.254C24.9049 321.672 23.9149 323.919 21.9379 325.494C19.7259 327.256 15.3999 328.69 13.4749 325.737C12.7959 324.695 11.0649 325.654 11.7479 326.702C13.7949 329.843 17.8909 329.804 21.0829 328.284C24.7509 326.537 26.8159 323.096 27.0549 319.255C27.1329 318.026 25.1319 318.03 25.0559 319.254Z" fill="#B04C7E"/>
<path d="M25.0559 281.46C24.9049 279.042 23.9149 276.795 21.9379 275.22C19.7259 273.458 15.3999 272.024 13.4749 274.977C12.7959 276.019 11.0649 275.06 11.7479 274.013C13.7949 270.872 17.8909 270.911 21.0829 272.431C24.7509 274.178 26.8159 277.619 27.0549 281.46C27.1329 282.688 25.1319 282.684 25.0559 281.46Z" fill="#B04C7E"/>
<path d="M42.9059 300.357C42.8459 300.468 42.8049 300.595 42.7909 300.74C42.4739 304.05 39.4979 306.164 36.1149 305.846C34.8349 305.726 34.8439 307.637 36.1149 307.757C40.6659 308.185 44.3809 305.017 44.7909 300.74C44.8049 300.595 44.7889 300.468 44.7499 300.357C44.7889 300.247 44.8049 300.119 44.7909 299.974C44.3809 295.697 40.6659 292.529 36.1149 292.957C34.8439 293.077 34.8349 294.988 36.1149 294.868C39.4979 294.55 42.4739 296.664 42.7909 299.974C42.8049 300.119 42.8459 300.246 42.9059 300.357Z" fill="#B04C7E"/>
<path d="M35.3841 308.464C37.9771 311.053 39.1211 315.098 37.1961 318.382C35.2081 321.773 29.3731 323.174 27.7891 318.592C27.3871 317.43 25.4551 317.928 25.8601 319.1C27.4841 323.799 33.5611 324.779 37.2041 321.489C41.5741 317.542 40.6861 310.997 36.7981 307.114C35.9071 306.223 34.4941 307.575 35.3841 308.464Z" fill="#B04C7E"/>
<path d="M35.3841 292.25C37.9771 289.661 39.1211 285.616 37.1961 282.332C35.2081 278.941 29.3731 277.54 27.7891 282.122C27.3871 283.284 25.4551 282.786 25.8601 281.614C27.4841 276.915 33.5611 275.935 37.2041 279.225C41.5741 283.172 40.6861 289.717 36.7981 293.6C35.9071 294.491 34.4941 293.139 35.3841 292.25Z" fill="#B04C7E"/>
<path d="M26.1591 321.015C29.8561 328.489 16.226 335.743 14.119 327.554C13.812 326.36 11.8831 326.866 12.1901 328.062C13.4071 332.793 18.9331 334.228 23.1731 332.1C27.7781 329.789 30.154 324.636 27.885 320.05C27.336 318.94 25.6121 319.908 26.1591 321.015Z" fill="#B04C7E"/>
<path d="M26.1591 279.698C29.8561 272.224 16.226 264.97 14.119 273.158C13.812 274.351 11.8831 273.846 12.1901 272.65C13.4071 267.919 18.9331 266.484 23.1731 268.612C27.7781 270.923 30.154 276.076 27.885 280.662C27.336 281.774 25.6121 280.805 26.1591 279.698Z" fill="#B04C7E"/>
<path d="M13.25 400.381L13.25 333.698L9.694 333.698L9.694 400.381L13.25 400.381Z" fill="#B04C7E"/>
<path d="M5.80566 400.381L5.80566 333.698L0.323669 333.698L0.323667 400.381L5.80566 400.381Z" fill="#B04C7E"/>
<path d="M21.859 367.04C21.859 373.12 18.389 379.201 11.449 382.061C9.09203 383.032 11.127 386.326 13.468 385.361C21.738 381.953 25.874 374.497 25.874 367.04C25.874 359.583 21.739 352.128 13.468 348.719C11.127 347.754 9.09204 351.047 11.449 352.019C18.39 354.879 21.859 360.959 21.859 367.04Z" fill="#B04C7E"/>
<path d="M33.7969 367.04C33.7969 378.673 23.5129 387.914 12.1929 390.001C10.9309 390.234 11.4649 392.076 12.7249 391.844C24.8589 389.607 35.8819 379.479 35.7969 367.04C35.8819 354.601 24.8589 344.473 12.7249 342.236C11.4649 342.004 10.9309 343.846 12.1929 344.078C23.5129 346.165 33.7969 355.407 33.7969 367.04Z" fill="#B04C7E"/>
<path d="M15.6348 367.04C15.6358 370.415 13.8019 373.79 10.1219 375.702C8.99086 376.29 9.99883 377.94 11.1308 377.352C15.4498 375.108 17.6108 371.074 17.6108 367.04C17.6108 363.006 15.4498 358.972 11.1308 356.728C9.99883 356.14 8.98986 357.79 10.1219 358.378C13.8009 360.289 15.6358 363.665 15.6348 367.04Z" fill="#B04C7E"/>
<path d="M24.7577 367.04C24.9497 367.671 25.8047 368.116 26.4087 367.496C26.5697 367.331 26.7367 367.179 26.9087 367.04C26.7367 366.901 26.5697 366.749 26.4087 366.584C25.8047 365.964 24.9497 366.409 24.7577 367.04Z" fill="#B04C7E"/>
<path d="M33.7166 366.364C33.7166 366.814 33.7166 367.265 33.7166 367.715C33.4946 367.463 33.2567 367.238 33.0087 367.039C33.2577 366.841 33.4946 366.616 33.7166 366.364C33.7166 366.814 33.7166 367.265 33.7166 367.715C33.4946 367.463 33.2567 367.238 33.0087 367.039C33.2577 366.841 33.4946 366.616 33.7166 366.364ZM24.9937 366.145C27.8137 363.25 32.4526 363.336 35.1306 366.365C35.3166 366.575 35.4106 366.808 35.4106 367.041C35.4106 367.274 35.3176 367.506 35.1306 367.717C32.4526 370.746 27.8137 370.832 24.9937 367.937C24.7197 367.655 24.6697 367.329 24.7567 367.042C24.6697 366.752 24.7197 366.426 24.9937 366.145ZM26.4077 366.584C26.5687 366.749 26.7357 366.901 26.9087 367.04C26.7367 367.179 26.5687 367.331 26.4077 367.496C25.8037 368.116 24.9487 367.671 24.7567 367.04C24.9487 366.409 25.8047 365.964 26.4077 366.584Z" fill="#B04C7E"/>
<path d="M23.5747 370.938C25.8637 374.16 29.6047 375.579 33.5997 374.81C34.8607 374.567 34.3267 372.725 33.0677 372.967C30.0017 373.557 27.0547 372.442 25.3007 369.973C24.5827 368.962 22.8487 369.917 23.5747 370.938Z" fill="#B04C7E"/>
<path d="M23.5747 363.141C25.8637 359.919 29.6047 358.5 33.5997 359.269C34.8607 359.512 34.3267 361.354 33.0677 361.112C30.0017 360.522 27.0547 361.637 25.3007 364.106C24.5827 365.117 22.8487 364.162 23.5747 363.141Z" fill="#B04C7E"/>
<path d="M21.6908 375.396C22.6388 378.749 25.3358 381.363 28.8228 382.335C30.0608 382.68 30.5898 380.837 29.3548 380.492C26.5288 379.704 24.3868 377.6 23.6198 374.888C23.2838 373.702 21.3538 374.205 21.6908 375.396Z" fill="#B04C7E"/>
<path d="M21.6908 358.684C22.6388 355.331 25.3358 352.717 28.8228 351.745C30.0608 351.4 30.5898 353.243 29.3548 353.588C26.5288 354.376 24.3868 356.48 23.6198 359.193C23.2838 360.378 21.3538 359.874 21.6908 358.684Z" fill="#B04C7E"/>
<path d="M18.743 380.011C19.47 382.703 21.024 385.073 23.27 386.846C24.255 387.623 25.678 386.279 24.684 385.495C22.687 383.919 21.319 381.902 20.671 379.504C20.35 378.314 18.42 378.818 18.743 380.011Z" fill="#B04C7E"/>
<path d="M18.743 354.068C19.47 351.376 21.024 349.005 23.27 347.233C24.255 346.456 25.678 347.8 24.684 348.584C22.687 350.16 21.319 352.177 20.671 354.575C20.35 355.766 18.42 355.261 18.743 354.068Z" fill="#B04C7E"/>
<path d="M15.2777 382.143C14.8117 384.751 15.2857 387.298 16.7667 389.545C17.4507 390.583 19.1817 389.625 18.4937 388.581C17.3117 386.788 16.8317 384.75 17.2067 382.651C17.4217 381.448 15.4947 380.931 15.2777 382.143Z" fill="#B04C7E"/>
<path d="M15.2777 351.937C14.8117 349.329 15.2857 346.782 16.7667 344.535C17.4507 343.497 19.1817 344.455 18.4937 345.499C17.3117 347.292 16.8317 349.33 17.2067 351.429C17.4217 352.632 15.4947 353.148 15.2777 351.937Z" fill="#B04C7E"/>
<path d="M38.92 367.04C38.937 370.313 35.053 372.696 32.084 373.501C30.848 373.836 31.373 375.681 32.616 375.343C36.041 374.414 41.436 371.011 41.436 367.039C41.436 363.067 36.041 359.664 32.616 358.735C31.374 358.398 30.848 360.242 32.084 360.578C35.053 361.384 38.937 363.767 38.92 367.04Z" fill="#B04C7E"/>
<path d="M33.3111 374.489C34.5791 376.774 34.7561 379.368 33.4211 381.673C32.1461 383.873 29.1941 386.106 26.6011 384.279C25.5641 383.549 24.5661 385.206 25.5921 385.929C28.6681 388.096 32.4701 386.229 34.4981 383.599C36.8221 380.585 36.8381 376.767 35.0391 373.525C34.4341 372.438 32.7071 373.402 33.3111 374.489Z" fill="#B04C7E"/>
<path d="M33.3111 359.591C34.5791 357.306 34.7561 354.712 33.4211 352.407C32.1461 350.207 29.1941 347.974 26.6011 349.801C25.5641 350.531 24.5661 348.874 25.5921 348.151C28.6681 345.984 32.4701 347.851 34.4981 350.481C36.8221 353.495 36.8381 357.313 35.0391 360.555C34.4341 361.642 32.7071 360.678 33.3111 359.591Z" fill="#B04C7E"/>
<path d="M25.0559 385.937C24.9049 388.355 23.9149 390.602 21.9379 392.177C19.7259 393.939 15.3999 395.373 13.4749 392.42C12.7959 391.378 11.0649 392.337 11.7479 393.385C13.7949 396.526 17.8909 396.487 21.0829 394.967C24.7509 393.22 26.8159 389.779 27.0549 385.938C27.1329 384.709 25.1319 384.713 25.0559 385.937Z" fill="#B04C7E"/>
<path d="M25.0559 348.143C24.9049 345.725 23.9149 343.478 21.9379 341.903C19.7259 340.141 15.3999 338.707 13.4749 341.66C12.7959 342.702 11.0649 341.743 11.7479 340.696C13.7949 337.555 17.8909 337.594 21.0829 339.114C24.7509 340.861 26.8159 344.302 27.0549 348.143C27.1329 349.371 25.1319 349.367 25.0559 348.143Z" fill="#B04C7E"/>
<path d="M42.9059 367.04C42.8459 367.151 42.8049 367.278 42.7909 367.423C42.4739 370.733 39.4979 372.847 36.1149 372.529C34.8349 372.409 34.8439 374.32 36.1149 374.44C40.6659 374.868 44.3809 371.7 44.7909 367.423C44.8049 367.278 44.7889 367.151 44.7499 367.04C44.7889 366.93 44.8049 366.802 44.7909 366.657C44.3809 362.38 40.6659 359.212 36.1149 359.64C34.8439 359.76 34.8349 361.671 36.1149 361.551C39.4979 361.233 42.4739 363.347 42.7909 366.657C42.8049 366.802 42.8459 366.929 42.9059 367.04Z" fill="#B04C7E"/>
<path d="M35.3841 375.147C37.9771 377.736 39.1211 381.781 37.1961 385.064C35.2081 388.455 29.3731 389.856 27.7891 385.274C27.3871 384.112 25.4551 384.61 25.8601 385.782C27.4841 390.481 33.5611 391.461 37.2041 388.171C41.5741 384.224 40.6861 377.679 36.7981 373.796C35.9071 372.905 34.4941 374.258 35.3841 375.147Z" fill="#B04C7E"/>
<path d="M35.3841 358.933C37.9771 356.344 39.1211 352.299 37.1961 349.015C35.2081 345.624 29.3731 344.223 27.7891 348.806C27.3871 349.968 25.4551 349.47 25.8601 348.298C27.4841 343.599 33.5611 342.619 37.2041 345.909C41.5741 349.856 40.6861 356.401 36.7981 360.284C35.9071 361.174 34.4941 359.822 35.3841 358.933Z" fill="#B04C7E"/>
<path d="M26.1591 387.698C29.8561 395.172 16.226 402.426 14.119 394.238C13.812 393.044 11.8831 393.55 12.1901 394.746C13.4071 399.477 18.9331 400.912 23.1731 398.784C27.7781 396.473 30.154 391.32 27.885 386.734C27.336 385.623 25.6121 386.591 26.1591 387.698Z" fill="#B04C7E"/>
<path d="M26.1591 346.381C29.8561 338.907 16.226 331.653 14.119 339.842C13.812 341.036 11.8831 340.53 12.1901 339.334C13.4071 334.603 18.9331 333.168 23.1731 335.296C27.7781 337.607 30.154 342.76 27.885 347.346C27.336 348.457 25.6121 347.488 26.1591 346.381Z" fill="#B04C7E"/>
<path d="M13.25 467.064L13.25 400.381L9.694 400.381L9.694 467.064L13.25 467.064Z" fill="#B04C7E"/>
<path d="M5.80566 467.064L5.80566 400.381L0.323669 400.381L0.323667 467.064L5.80566 467.064Z" fill="#B04C7E"/>
<path d="M21.859 433.723C21.859 439.803 18.389 445.884 11.449 448.744C9.09203 449.715 11.127 453.009 13.468 452.044C21.738 448.636 25.874 441.179 25.874 433.723C25.874 426.267 21.739 418.811 13.468 415.402C11.127 414.437 9.09204 417.73 11.449 418.702C18.39 421.562 21.859 427.642 21.859 433.723Z" fill="#B04C7E"/>
<path d="M33.7969 433.723C33.7969 445.356 23.5129 454.597 12.1929 456.684C10.9309 456.917 11.4649 458.759 12.7249 458.527C24.8589 456.29 35.8819 446.162 35.7969 433.723C35.8819 421.284 24.8589 411.156 12.7249 408.919C11.4649 408.687 10.9309 410.529 12.1929 410.762C23.5129 412.848 33.7969 422.09 33.7969 433.723Z" fill="#B04C7E"/>
<path d="M15.6348 433.723C15.6358 437.098 13.8019 440.474 10.1219 442.385C8.99086 442.973 9.99883 444.623 11.1308 444.035C15.4498 441.791 17.6108 437.757 17.6108 433.723C17.6108 429.689 15.4498 425.655 11.1308 423.411C9.99883 422.823 8.98986 424.473 10.1219 425.061C13.8009 426.972 15.6358 430.348 15.6348 433.723Z" fill="#B04C7E"/>
<path d="M24.7577 433.723C24.9497 434.354 25.8047 434.799 26.4087 434.179C26.5697 434.014 26.7367 433.862 26.9087 433.723C26.7367 433.584 26.5697 433.432 26.4087 433.267C25.8047 432.647 24.9497 433.092 24.7577 433.723Z" fill="#B04C7E"/>
<path d="M33.7166 433.047C33.7166 433.497 33.7166 433.948 33.7166 434.398C33.4946 434.146 33.2567 433.921 33.0087 433.722C33.2577 433.524 33.4946 433.299 33.7166 433.047C33.7166 433.497 33.7166 433.948 33.7166 434.398C33.4946 434.146 33.2567 433.921 33.0087 433.722C33.2577 433.524 33.4946 433.299 33.7166 433.047ZM24.9937 432.828C27.8137 429.933 32.4526 430.019 35.1306 433.048C35.3166 433.258 35.4106 433.491 35.4106 433.724C35.4106 433.957 35.3176 434.189 35.1306 434.4C32.4526 437.429 27.8137 437.515 24.9937 434.62C24.7197 434.338 24.6697 434.012 24.7567 433.725C24.6697 433.435 24.7197 433.109 24.9937 432.828ZM26.4077 433.267C26.5687 433.432 26.7357 433.584 26.9087 433.723C26.7367 433.862 26.5687 434.014 26.4077 434.179C25.8037 434.799 24.9487 434.354 24.7567 433.723C24.9487 433.092 25.8047 432.647 26.4077 433.267Z" fill="#B04C7E"/>
<path d="M23.5747 437.621C25.8637 440.843 29.6047 442.262 33.5997 441.493C34.8607 441.25 34.3267 439.408 33.0677 439.651C30.0017 440.241 27.0547 439.126 25.3007 436.657C24.5827 435.645 22.8487 436.6 23.5747 437.621Z" fill="#B04C7E"/>
<path d="M23.5747 429.824C25.8637 426.602 29.6047 425.183 33.5997 425.952C34.8607 426.195 34.3267 428.037 33.0677 427.795C30.0017 427.205 27.0547 428.32 25.3007 430.789C24.5827 431.8 22.8487 430.845 23.5747 429.824Z" fill="#B04C7E"/>
<path d="M21.6908 442.079C22.6388 445.432 25.3358 448.046 28.8228 449.018C30.0608 449.363 30.5898 447.52 29.3548 447.175C26.5288 446.387 24.3868 444.283 23.6198 441.57C23.2838 440.385 21.3538 440.888 21.6908 442.079Z" fill="#B04C7E"/>
<path d="M21.6908 425.367C22.6388 422.014 25.3358 419.4 28.8228 418.428C30.0608 418.083 30.5898 419.926 29.3548 420.271C26.5288 421.059 24.3868 423.163 23.6198 425.875C23.2838 427.061 21.3538 426.557 21.6908 425.367Z" fill="#B04C7E"/>
<path d="M18.743 446.694C19.47 449.386 21.024 451.756 23.27 453.529C24.255 454.306 25.678 452.962 24.684 452.178C22.687 450.602 21.319 448.585 20.671 446.187C20.35 444.997 18.42 445.501 18.743 446.694Z" fill="#B04C7E"/>
<path d="M18.743 420.751C19.47 418.059 21.024 415.688 23.27 413.916C24.255 413.139 25.678 414.483 24.684 415.267C22.687 416.843 21.319 418.86 20.671 421.258C20.35 422.449 18.42 421.944 18.743 420.751Z" fill="#B04C7E"/>
<path d="M15.2777 448.826C14.8117 451.434 15.2857 453.981 16.7667 456.228C17.4507 457.266 19.1817 456.308 18.4937 455.264C17.3117 453.471 16.8317 451.433 17.2067 449.334C17.4217 448.131 15.4947 447.614 15.2777 448.826Z" fill="#B04C7E"/>
<path d="M15.2777 418.62C14.8117 416.012 15.2857 413.465 16.7667 411.218C17.4507 410.18 19.1817 411.138 18.4937 412.182C17.3117 413.975 16.8317 416.013 17.2067 418.112C17.4217 419.315 15.4947 419.831 15.2777 418.62Z" fill="#B04C7E"/>
<path d="M38.92 433.723C38.937 436.996 35.053 439.379 32.084 440.184C30.848 440.519 31.373 442.364 32.616 442.027C36.041 441.098 41.436 437.695 41.436 433.723C41.436 429.751 36.041 426.348 32.616 425.419C31.374 425.082 30.848 426.926 32.084 427.262C35.053 428.067 38.937 430.45 38.92 433.723Z" fill="#B04C7E"/>
<path d="M33.3111 441.172C34.5791 443.457 34.7561 446.051 33.4211 448.356C32.1461 450.556 29.1941 452.789 26.6011 450.962C25.5641 450.232 24.5661 451.889 25.5921 452.612C28.6681 454.779 32.4701 452.912 34.4981 450.282C36.8221 447.268 36.8381 443.45 35.0391 440.208C34.4341 439.121 32.7071 440.085 33.3111 441.172Z" fill="#B04C7E"/>
<path d="M33.3111 426.274C34.5791 423.99 34.7561 421.395 33.4211 419.09C32.1461 416.89 29.1941 414.657 26.6011 416.484C25.5641 417.214 24.5661 415.557 25.5921 414.834C28.6681 412.667 32.4701 414.534 34.4981 417.164C36.8221 420.179 36.8381 423.996 35.0391 427.238C34.4341 428.325 32.7071 427.361 33.3111 426.274Z" fill="#B04C7E"/>
<path d="M25.0559 452.62C24.9049 455.038 23.9149 457.285 21.9379 458.86C19.7259 460.622 15.3999 462.056 13.4749 459.103C12.7959 458.061 11.0649 459.02 11.7479 460.067C13.7949 463.208 17.8909 463.169 21.0829 461.649C24.7509 459.902 26.8159 456.461 27.0549 452.619C27.1329 451.391 25.1319 451.396 25.0559 452.62Z" fill="#B04C7E"/>
<path d="M25.0559 414.826C24.9049 412.408 23.9149 410.161 21.9379 408.586C19.7259 406.824 15.3999 405.39 13.4749 408.343C12.7959 409.385 11.0649 408.426 11.7479 407.378C13.7949 404.237 17.8909 404.276 21.0829 405.796C24.7509 407.543 26.8159 410.984 27.0549 414.825C27.1329 416.054 25.1319 416.05 25.0559 414.826Z" fill="#B04C7E"/>
<path d="M42.9059 433.723C42.8459 433.834 42.8049 433.961 42.7909 434.106C42.4739 437.416 39.4979 439.53 36.1149 439.212C34.8349 439.092 34.8439 441.003 36.1149 441.123C40.6659 441.551 44.3809 438.383 44.7909 434.106C44.8049 433.961 44.7889 433.834 44.7499 433.723C44.7889 433.613 44.8049 433.485 44.7909 433.34C44.3809 429.063 40.6659 425.895 36.1149 426.323C34.8439 426.443 34.8349 428.354 36.1149 428.234C39.4979 427.916 42.4739 430.03 42.7909 433.34C42.8049 433.485 42.8459 433.612 42.9059 433.723Z" fill="#B04C7E"/>
<path d="M35.3841 441.83C37.9771 444.419 39.1211 448.464 37.1961 451.748C35.2081 455.139 29.3731 456.54 27.7891 451.958C27.3871 450.796 25.4551 451.294 25.8601 452.466C27.4841 457.165 33.5611 458.145 37.2041 454.855C41.5741 450.908 40.6861 444.363 36.7981 440.48C35.9071 439.589 34.4941 440.941 35.3841 441.83Z" fill="#B04C7E"/>
<path d="M35.3841 425.616C37.9771 423.027 39.1211 418.982 37.1961 415.698C35.2081 412.307 29.3731 410.906 27.7891 415.488C27.3871 416.65 25.4551 416.152 25.8601 414.98C27.4841 410.281 33.5611 409.301 37.2041 412.591C41.5741 416.538 40.6861 423.083 36.7981 426.966C35.9071 427.857 34.4941 426.505 35.3841 425.616Z" fill="#B04C7E"/>
<path d="M26.1591 454.381C29.8561 461.855 16.226 469.109 14.119 460.92C13.812 459.726 11.8831 460.232 12.1901 461.428C13.4071 466.159 18.9331 467.594 23.1731 465.466C27.7781 463.155 30.154 458.002 27.885 453.416C27.336 452.306 25.6121 453.274 26.1591 454.381Z" fill="#B04C7E"/>
<path d="M26.1591 413.064C29.8561 405.59 16.226 398.336 14.119 406.525C13.812 407.718 11.8831 407.213 12.1901 406.017C13.4071 401.286 18.9331 399.851 23.1731 401.979C27.7781 404.29 30.154 409.443 27.885 414.029C27.336 415.14 25.6121 414.171 26.1591 413.064Z" fill="#B04C7E"/>
<path d="M13.25 533.747L13.25 467.064L9.694 467.064L9.694 533.747L13.25 533.747Z" fill="#B04C7E"/>
<path d="M5.80566 533.747L5.80566 467.064L0.323669 467.064L0.323667 533.747L5.80566 533.747Z" fill="#B04C7E"/>
<path d="M21.859 500.406C21.859 506.486 18.389 512.567 11.449 515.427C9.09203 516.398 11.127 519.692 13.468 518.727C21.738 515.319 25.874 507.863 25.874 500.406C25.874 492.95 21.739 485.494 13.468 482.085C11.127 481.12 9.09204 484.413 11.449 485.385C18.39 488.245 21.859 494.325 21.859 500.406Z" fill="#B04C7E"/>
<path d="M33.7969 500.406C33.7969 512.039 23.5129 521.28 12.1929 523.367C10.9309 523.6 11.4649 525.442 12.7249 525.21C24.8589 522.973 35.8819 512.845 35.7969 500.406C35.8819 487.967 24.8589 477.839 12.7249 475.602C11.4649 475.37 10.9309 477.212 12.1929 477.445C23.5129 479.531 33.7969 488.773 33.7969 500.406Z" fill="#B04C7E"/>
<path d="M15.6348 500.406C15.6358 503.781 13.8019 507.157 10.1219 509.068C8.99086 509.656 9.99883 511.306 11.1308 510.718C15.4498 508.474 17.6108 504.44 17.6108 500.406C17.6108 496.372 15.4498 492.338 11.1308 490.094C9.99883 489.506 8.98986 491.156 10.1219 491.744C13.8009 493.655 15.6358 497.031 15.6348 500.406Z" fill="#B04C7E"/>
<path d="M24.7577 500.406C24.9497 501.037 25.8047 501.482 26.4087 500.862C26.5697 500.697 26.7367 500.545 26.9087 500.406C26.7367 500.267 26.5697 500.115 26.4087 499.95C25.8047 499.33 24.9497 499.775 24.7577 500.406Z" fill="#B04C7E"/>
<path d="M33.7166 499.73C33.7166 500.18 33.7166 500.631 33.7166 501.081C33.4946 500.829 33.2567 500.604 33.0087 500.405C33.2577 500.207 33.4946 499.982 33.7166 499.73C33.7166 500.18 33.7166 500.631 33.7166 501.081C33.4946 500.829 33.2567 500.604 33.0087 500.405C33.2577 500.207 33.4946 499.982 33.7166 499.73ZM24.9937 499.511C27.8137 496.616 32.4526 496.702 35.1306 499.731C35.3166 499.941 35.4106 500.174 35.4106 500.407C35.4106 500.64 35.3176 500.872 35.1306 501.083C32.4526 504.112 27.8137 504.198 24.9937 501.303C24.7197 501.021 24.6697 500.695 24.7567 500.408C24.6697 500.118 24.7197 499.792 24.9937 499.511ZM26.4077 499.95C26.5687 500.115 26.7357 500.267 26.9087 500.406C26.7367 500.545 26.5687 500.697 26.4077 500.862C25.8037 501.482 24.9487 501.037 24.7567 500.406C24.9487 499.775 25.8047 499.33 26.4077 499.95Z" fill="#B04C7E"/>
<path d="M23.5747 504.305C25.8637 507.527 29.6047 508.946 33.5997 508.177C34.8607 507.934 34.3267 506.092 33.0677 506.335C30.0017 506.925 27.0547 505.81 25.3007 503.341C24.5827 502.328 22.8487 503.283 23.5747 504.305Z" fill="#B04C7E"/>
<path d="M23.5747 496.507C25.8637 493.285 29.6047 491.866 33.5997 492.635C34.8607 492.878 34.3267 494.72 33.0677 494.478C30.0017 493.888 27.0547 495.003 25.3007 497.472C24.5827 498.483 22.8487 497.528 23.5747 496.507Z" fill="#B04C7E"/>
<path d="M21.6908 508.762C22.6388 512.115 25.3358 514.729 28.8228 515.701C30.0608 516.046 30.5898 514.203 29.3548 513.858C26.5288 513.07 24.3868 510.965 23.6198 508.253C23.2838 507.068 21.3538 507.571 21.6908 508.762Z" fill="#B04C7E"/>
<path d="M21.6908 492.05C22.6388 488.697 25.3358 486.083 28.8228 485.111C30.0608 484.766 30.5898 486.609 29.3548 486.954C26.5288 487.742 24.3868 489.847 23.6198 492.559C23.2838 493.744 21.3538 493.24 21.6908 492.05Z" fill="#B04C7E"/>
<path d="M18.743 513.377C19.47 516.069 21.024 518.44 23.27 520.212C24.255 520.989 25.678 519.645 24.684 518.861C22.687 517.285 21.319 515.268 20.671 512.87C20.35 511.68 18.42 512.184 18.743 513.377Z" fill="#B04C7E"/>
<path d="M18.743 487.434C19.47 484.742 21.024 482.371 23.27 480.599C24.255 479.822 25.678 481.166 24.684 481.95C22.687 483.526 21.319 485.543 20.671 487.941C20.35 489.132 18.42 488.628 18.743 487.434Z" fill="#B04C7E"/>
<path d="M15.2777 515.509C14.8117 518.117 15.2857 520.664 16.7667 522.911C17.4507 523.949 19.1817 522.991 18.4937 521.947C17.3117 520.154 16.8317 518.116 17.2067 516.017C17.4217 514.814 15.4947 514.297 15.2777 515.509Z" fill="#B04C7E"/>
<path d="M15.2777 485.303C14.8117 482.695 15.2857 480.149 16.7667 477.901C17.4507 476.863 19.1817 477.821 18.4937 478.866C17.3117 480.659 16.8317 482.697 17.2067 484.796C17.4217 485.998 15.4947 486.514 15.2777 485.303Z" fill="#B04C7E"/>
<path d="M38.92 500.406C38.937 503.679 35.053 506.062 32.084 506.867C30.848 507.202 31.373 509.047 32.616 508.71C36.041 507.78 41.436 504.378 41.436 500.406C41.436 496.434 36.041 493.031 32.616 492.102C31.374 491.765 30.848 493.609 32.084 493.945C35.053 494.75 38.937 497.133 38.92 500.406Z" fill="#B04C7E"/>
<path d="M33.3111 507.855C34.5791 510.14 34.7561 512.734 33.4211 515.038C32.1461 517.238 29.1941 519.471 26.6011 517.644C25.5641 516.913 24.5661 518.571 25.5921 519.294C28.6681 521.461 32.4701 519.594 34.4981 516.964C36.8221 513.95 36.8381 510.132 35.0391 506.89C34.4341 505.804 32.7071 506.768 33.3111 507.855Z" fill="#B04C7E"/>
<path d="M33.3111 492.957C34.5791 490.672 34.7561 488.078 33.4211 485.774C32.1461 483.574 29.1941 481.341 26.6011 483.168C25.5641 483.898 24.5661 482.241 25.5921 481.518C28.6681 479.351 32.4701 481.218 34.4981 483.848C36.8221 486.863 36.8381 490.68 35.0391 493.922C34.4341 495.008 32.7071 494.044 33.3111 492.957Z" fill="#B04C7E"/>
<path d="M25.0559 519.303C24.9049 521.721 23.9149 523.968 21.9379 525.543C19.7259 527.305 15.3999 528.739 13.4749 525.786C12.7959 524.744 11.0649 525.703 11.7479 526.75C13.7949 529.891 17.8909 529.852 21.0829 528.332C24.7509 526.585 26.8159 523.144 27.0549 519.303C27.1329 518.074 25.1319 518.079 25.0559 519.303Z" fill="#B04C7E"/>
<path d="M25.0559 481.509C24.9049 479.091 23.9149 476.844 21.9379 475.269C19.7259 473.507 15.3999 472.073 13.4749 475.026C12.7959 476.068 11.0649 475.109 11.7479 474.062C13.7949 470.921 17.8909 470.96 21.0829 472.48C24.7509 474.227 26.8159 477.668 27.0549 481.509C27.1329 482.737 25.1319 482.733 25.0559 481.509Z" fill="#B04C7E"/>
<path d="M42.9059 500.406C42.8459 500.516 42.8049 500.644 42.7909 500.789C42.4739 504.099 39.4979 506.213 36.1149 505.895C34.8349 505.775 34.8439 507.686 36.1149 507.806C40.6659 508.234 44.3809 505.066 44.7909 500.789C44.8049 500.644 44.7889 500.517 44.7499 500.406C44.7889 500.296 44.8049 500.168 44.7909 500.023C44.3809 495.746 40.6659 492.578 36.1149 493.006C34.8439 493.126 34.8349 495.037 36.1149 494.917C39.4979 494.599 42.4739 496.713 42.7909 500.023C42.8049 500.168 42.8459 500.295 42.9059 500.406Z" fill="#B04C7E"/>
<path d="M35.3841 508.513C37.9771 511.102 39.1211 515.147 37.1961 518.431C35.2081 521.822 29.3731 523.223 27.7891 518.641C27.3871 517.479 25.4551 517.977 25.8601 519.149C27.4841 523.848 33.5611 524.828 37.2041 521.538C41.5741 517.591 40.6861 511.046 36.7981 507.163C35.9071 506.271 34.4941 507.624 35.3841 508.513Z" fill="#B04C7E"/>
<path d="M35.3841 492.299C37.9771 489.71 39.1211 485.665 37.1961 482.381C35.2081 478.99 29.3731 477.589 27.7891 482.172C27.3871 483.334 25.4551 482.836 25.8601 481.664C27.4841 476.965 33.5611 475.985 37.2041 479.275C41.5741 483.222 40.6861 489.767 36.7981 493.65C35.9071 494.54 34.4941 493.188 35.3841 492.299Z" fill="#B04C7E"/>
<path d="M26.1591 521.064C29.8561 528.538 16.226 535.792 14.119 527.604C13.812 526.41 11.8831 526.916 12.1901 528.112C13.4071 532.843 18.9331 534.278 23.1731 532.15C27.7781 529.839 30.154 524.686 27.885 520.1C27.336 518.989 25.6121 519.957 26.1591 521.064Z" fill="#B04C7E"/>
<path d="M26.1591 479.747C29.8561 472.273 16.226 465.019 14.119 473.208C13.812 474.402 11.8831 473.896 12.1901 472.7C13.4071 467.969 18.9331 466.534 23.1731 468.662C27.7781 470.973 30.154 476.126 27.885 480.712C27.336 481.823 25.6121 480.854 26.1591 479.747Z" fill="#B04C7E"/>
<path d="M13.25 600.43L13.25 533.747L9.694 533.747L9.694 600.43L13.25 600.43Z" fill="#B04C7E"/>
<path d="M5.80566 600.43L5.80566 533.747L0.323669 533.747L0.323667 600.43L5.80566 600.43Z" fill="#B04C7E"/>
<path d="M21.859 567.089C21.859 573.169 18.389 579.25 11.449 582.11C9.09203 583.081 11.127 586.375 13.468 585.41C21.738 582.002 25.874 574.546 25.874 567.089C25.874 559.633 21.739 552.177 13.468 548.768C11.127 547.803 9.09204 551.096 11.449 552.068C18.39 554.928 21.859 561.008 21.859 567.089Z" fill="#B04C7E"/>
<path d="M33.7969 567.089C33.7969 578.722 23.5129 587.963 12.1929 590.05C10.9309 590.283 11.4649 592.125 12.7249 591.893C24.8589 589.656 35.8819 579.528 35.7969 567.089C35.8819 554.65 24.8589 544.522 12.7249 542.285C11.4649 542.053 10.9309 543.895 12.1929 544.128C23.5129 546.214 33.7969 555.456 33.7969 567.089Z" fill="#B04C7E"/>
<path d="M15.6348 567.089C15.6358 570.464 13.8019 573.84 10.1219 575.751C8.99086 576.339 9.99883 577.989 11.1308 577.401C15.4498 575.157 17.6108 571.123 17.6108 567.089C17.6108 563.055 15.4498 559.021 11.1308 556.777C9.99883 556.189 8.98986 557.839 10.1219 558.427C13.8009 560.338 15.6358 563.714 15.6348 567.089Z" fill="#B04C7E"/>
<path d="M24.7577 567.089C24.9497 567.72 25.8047 568.165 26.4087 567.545C26.5697 567.38 26.7367 567.228 26.9087 567.089C26.7367 566.95 26.5697 566.798 26.4087 566.633C25.8047 566.013 24.9497 566.458 24.7577 567.089Z" fill="#B04C7E"/>
<path d="M33.7166 566.413C33.7166 566.863 33.7166 567.314 33.7166 567.764C33.4946 567.512 33.2567 567.287 33.0087 567.088C33.2577 566.89 33.4946 566.665 33.7166 566.413C33.7166 566.863 33.7166 567.314 33.7166 567.764C33.4946 567.512 33.2567 567.287 33.0087 567.088C33.2577 566.89 33.4946 566.665 33.7166 566.413ZM24.9937 566.193C27.8137 563.298 32.4526 563.384 35.1306 566.413C35.3166 566.623 35.4106 566.856 35.4106 567.088C35.4106 567.321 35.3176 567.553 35.1306 567.764C32.4526 570.793 27.8137 570.879 24.9937 567.984C24.7197 567.702 24.6697 567.376 24.7567 567.089C24.6697 566.801 24.7197 566.475 24.9937 566.193ZM26.4077 566.633C26.5687 566.798 26.7357 566.95 26.9087 567.089C26.7367 567.228 26.5687 567.38 26.4077 567.545C25.8037 568.165 24.9487 567.72 24.7567 567.089C24.9487 566.458 25.8047 566.013 26.4077 566.633Z" fill="#B04C7E"/>
<path d="M23.5747 570.987C25.8637 574.209 29.6047 575.628 33.5997 574.859C34.8607 574.616 34.3267 572.774 33.0677 573.016C30.0017 573.606 27.0547 572.491 25.3007 570.022C24.5827 569.011 22.8487 569.966 23.5747 570.987Z" fill="#B04C7E"/>
<path d="M23.5747 563.19C25.8637 559.968 29.6047 558.549 33.5997 559.318C34.8607 559.561 34.3267 561.403 33.0677 561.161C30.0017 560.571 27.0547 561.686 25.3007 564.155C24.5827 565.166 22.8487 564.211 23.5747 563.19Z" fill="#B04C7E"/>
<path d="M21.6908 575.445C22.6388 578.798 25.3358 581.412 28.8228 582.384C30.0608 582.729 30.5898 580.886 29.3548 580.541C26.5288 579.753 24.3868 577.649 23.6198 574.936C23.2838 573.751 21.3538 574.254 21.6908 575.445Z" fill="#B04C7E"/>
<path d="M21.6908 558.733C22.6388 555.38 25.3358 552.766 28.8228 551.794C30.0608 551.449 30.5898 553.292 29.3548 553.636C26.5288 554.424 24.3868 556.529 23.6198 559.241C23.2838 560.427 21.3538 559.923 21.6908 558.733Z" fill="#B04C7E"/>
<path d="M18.743 580.06C19.47 582.752 21.024 585.123 23.27 586.895C24.255 587.672 25.678 586.328 24.684 585.544C22.687 583.968 21.319 581.951 20.671 579.553C20.35 578.363 18.42 578.867 18.743 580.06Z" fill="#B04C7E"/>
<path d="M18.743 554.117C19.47 551.425 21.024 549.054 23.27 547.282C24.255 546.505 25.678 547.849 24.684 548.633C22.687 550.209 21.319 552.226 20.671 554.624C20.35 555.815 18.42 555.31 18.743 554.117Z" fill="#B04C7E"/>
<path d="M15.2777 582.192C14.8117 584.8 15.2857 587.347 16.7667 589.595C17.4507 590.633 19.1817 589.675 18.4937 588.631C17.3117 586.838 16.8317 584.8 17.2067 582.701C17.4217 581.497 15.4947 580.98 15.2777 582.192Z" fill="#B04C7E"/>
<path d="M15.2777 551.986C14.8117 549.378 15.2857 546.832 16.7667 544.584C17.4507 543.546 19.1817 544.504 18.4937 545.548C17.3117 547.341 16.8317 549.379 17.2067 551.478C17.4217 552.68 15.4947 553.197 15.2777 551.986Z" fill="#B04C7E"/>
<path d="M38.92 567.089C38.937 570.362 35.053 572.745 32.084 573.55C30.848 573.885 31.373 575.73 32.616 575.393C36.041 574.463 41.436 571.061 41.436 567.089C41.436 563.117 36.041 559.714 32.616 558.785C31.374 558.448 30.848 560.292 32.084 560.628C35.053 561.433 38.937 563.816 38.92 567.089Z" fill="#B04C7E"/>
<path d="M33.3111 574.538C34.5791 576.823 34.7561 579.417 33.4211 581.722C32.1461 583.922 29.1941 586.155 26.6011 584.328C25.5641 583.597 24.5661 585.255 25.5921 585.978C28.6681 588.145 32.4701 586.278 34.4981 583.648C36.8221 580.634 36.8381 576.816 35.0391 573.574C34.4341 572.487 32.7071 573.451 33.3111 574.538Z" fill="#B04C7E"/>
<path d="M33.3111 559.64C34.5791 557.355 34.7561 554.761 33.4211 552.456C32.1461 550.256 29.1941 548.023 26.6011 549.85C25.5641 550.58 24.5661 548.923 25.5921 548.2C28.6681 546.033 32.4701 547.9 34.4981 550.53C36.8221 553.544 36.8381 557.362 35.0391 560.604C34.4341 561.691 32.7071 560.727 33.3111 559.64Z" fill="#B04C7E"/>
<path d="M25.0559 585.986C24.9049 588.404 23.9149 590.651 21.9379 592.226C19.7259 593.988 15.3999 595.422 13.4749 592.469C12.7959 591.427 11.0649 592.386 11.7479 593.433C13.7949 596.574 17.8909 596.535 21.0829 595.015C24.7509 593.268 26.8159 589.827 27.0549 585.986C27.1329 584.758 25.1319 584.762 25.0559 585.986Z" fill="#B04C7E"/>
<path d="M25.0559 548.192C24.9049 545.774 23.9149 543.527 21.9379 541.952C19.7259 540.19 15.3999 538.756 13.4749 541.709C12.7959 542.751 11.0649 541.792 11.7479 540.745C13.7949 537.604 17.8909 537.643 21.0829 539.163C24.7509 540.91 26.8159 544.351 27.0549 548.192C27.1329 549.42 25.1319 549.416 25.0559 548.192Z" fill="#B04C7E"/>
<path d="M42.9059 567.089C42.8459 567.199 42.8049 567.327 42.7909 567.472C42.4739 570.782 39.4979 572.896 36.1149 572.578C34.8349 572.458 34.8439 574.369 36.1149 574.489C40.6659 574.917 44.3809 571.749 44.7909 567.472C44.8049 567.327 44.7889 567.2 44.7499 567.089C44.7889 566.979 44.8049 566.851 44.7909 566.706C44.3809 562.429 40.6659 559.261 36.1149 559.689C34.8439 559.809 34.8349 561.72 36.1149 561.6C39.4979 561.282 42.4739 563.396 42.7909 566.706C42.8049 566.851 42.8459 566.978 42.9059 567.089Z" fill="#B04C7E"/>
<path d="M35.3841 575.196C37.9771 577.785 39.1211 581.83 37.1961 585.114C35.2081 588.505 29.3731 589.906 27.7891 585.324C27.3871 584.162 25.4551 584.66 25.8601 585.832C27.4841 590.531 33.5611 591.511 37.2041 588.221C41.5741 584.274 40.6861 577.729 36.7981 573.846C35.9071 572.954 34.4941 574.307 35.3841 575.196Z" fill="#B04C7E"/>
<path d="M35.3841 558.982C37.9771 556.393 39.1211 552.348 37.1961 549.064C35.2081 545.673 29.3731 544.272 27.7891 548.855C27.3871 550.017 25.4551 549.519 25.8601 548.347C27.4841 543.648 33.5611 542.668 37.2041 545.958C41.5741 549.905 40.6861 556.45 36.7981 560.333C35.9071 561.223 34.4941 559.871 35.3841 558.982Z" fill="#B04C7E"/>
<path d="M26.1591 587.747C29.8561 595.221 16.226 602.475 14.119 594.287C13.812 593.093 11.8831 593.599 12.1901 594.795C13.4071 599.526 18.9331 600.961 23.1731 598.833C27.7781 596.522 30.154 591.369 27.885 586.783C27.336 585.672 25.6121 586.64 26.1591 587.747Z" fill="#B04C7E"/>
<path d="M26.1591 546.43C29.8561 538.956 16.226 531.702 14.119 539.891C13.812 541.085 11.8831 540.579 12.1901 539.383C13.4071 534.652 18.9331 533.217 23.1731 535.345C27.7781 537.656 30.154 542.809 27.885 547.395C27.336 548.506 25.6121 547.537 26.1591 546.43Z" fill="#B04C7E"/>
<path d="M13.25 667.113L13.25 600.43L9.694 600.43L9.694 667.113L13.25 667.113Z" fill="#B04C7E"/>
<path d="M5.80566 667.113L5.80566 600.43L0.323669 600.43L0.323667 667.113L5.80566 667.113Z" fill="#B04C7E"/>
<path d="M21.859 633.772C21.859 639.852 18.389 645.933 11.449 648.793C9.09203 649.764 11.127 653.058 13.468 652.093C21.738 648.685 25.874 641.229 25.874 633.772C25.874 626.316 21.739 618.86 13.468 615.451C11.127 614.486 9.09204 617.779 11.449 618.751C18.39 621.611 21.859 627.691 21.859 633.772Z" fill="#B04C7E"/>
<path d="M33.7969 633.772C33.7969 645.405 23.5129 654.646 12.1929 656.733C10.9309 656.966 11.4649 658.808 12.7249 658.576C24.8589 656.339 35.8819 646.211 35.7969 633.772C35.8819 621.333 24.8589 611.205 12.7249 608.968C11.4649 608.736 10.9309 610.578 12.1929 610.81C23.5129 612.897 33.7969 622.139 33.7969 633.772Z" fill="#B04C7E"/>
<path d="M15.6348 633.772C15.6358 637.147 13.8019 640.523 10.1219 642.434C8.99086 643.022 9.99883 644.672 11.1308 644.084C15.4498 641.84 17.6108 637.806 17.6108 633.772C17.6108 629.738 15.4498 625.704 11.1308 623.46C9.99883 622.872 8.98986 624.522 10.1219 625.11C13.8009 627.021 15.6358 630.397 15.6348 633.772Z" fill="#B04C7E"/>
<path d="M24.7577 633.772C24.9497 634.403 25.8047 634.848 26.4087 634.228C26.5697 634.063 26.7367 633.911 26.9087 633.772C26.7367 633.633 26.5697 633.481 26.4087 633.316C25.8047 632.696 24.9497 633.141 24.7577 633.772Z" fill="#B04C7E"/>
<path d="M33.7166 633.096C33.7166 633.546 33.7166 633.997 33.7166 634.447C33.4946 634.195 33.2567 633.97 33.0087 633.771C33.2577 633.573 33.4946 633.348 33.7166 633.096C33.7166 633.546 33.7166 633.997 33.7166 634.447C33.4946 634.196 33.2567 633.97 33.0087 633.771C33.2577 633.573 33.4946 633.348 33.7166 633.096ZM24.9937 632.876C27.8137 629.981 32.4526 630.067 35.1306 633.096C35.3166 633.306 35.4106 633.539 35.4106 633.771C35.4106 634.003 35.3176 634.236 35.1306 634.447C32.4526 637.476 27.8137 637.562 24.9937 634.667C24.7197 634.385 24.6697 634.059 24.7567 633.772C24.6697 633.484 24.7197 633.158 24.9937 632.876ZM26.4077 633.316C26.5687 633.481 26.7357 633.633 26.9087 633.772C26.7367 633.911 26.5687 634.063 26.4077 634.228C25.8037 634.848 24.9487 634.403 24.7567 633.772C24.9487 633.141 25.8047 632.696 26.4077 633.316Z" fill="#B04C7E"/>
<path d="M23.5747 637.67C25.8637 640.892 29.6047 642.311 33.5997 641.542C34.8607 641.299 34.3267 639.457 33.0677 639.699C30.0017 640.289 27.0547 639.174 25.3007 636.705C24.5827 635.694 22.8487 636.649 23.5747 637.67Z" fill="#B04C7E"/>
<path d="M23.5747 629.873C25.8637 626.651 29.6047 625.232 33.5997 626.001C34.8607 626.244 34.3267 628.086 33.0677 627.844C30.0017 627.254 27.0547 628.369 25.3007 630.838C24.5827 631.849 22.8487 630.894 23.5747 629.873Z" fill="#B04C7E"/>
<path d="M21.6908 642.128C22.6388 645.481 25.3358 648.095 28.8228 649.067C30.0608 649.412 30.5898 647.569 29.3548 647.224C26.5288 646.436 24.3868 644.332 23.6198 641.62C23.2838 640.434 21.3538 640.937 21.6908 642.128Z" fill="#B04C7E"/>
<path d="M21.6908 625.416C22.6388 622.063 25.3358 619.449 28.8228 618.477C30.0608 618.132 30.5898 619.975 29.3548 620.319C26.5288 621.107 24.3868 623.212 23.6198 625.924C23.2838 627.11 21.3538 626.606 21.6908 625.416Z" fill="#B04C7E"/>
<path d="M18.743 646.743C19.47 649.435 21.024 651.806 23.27 653.578C24.255 654.355 25.678 653.011 24.684 652.227C22.687 650.651 21.319 648.634 20.671 646.236C20.35 645.046 18.42 645.55 18.743 646.743Z" fill="#B04C7E"/>
<path d="M18.743 620.8C19.47 618.108 21.024 615.738 23.27 613.965C24.255 613.188 25.678 614.532 24.684 615.316C22.687 616.892 21.319 618.909 20.671 621.307C20.35 622.498 18.42 621.993 18.743 620.8Z" fill="#B04C7E"/>
<path d="M15.2777 648.875C14.8117 651.483 15.2857 654.03 16.7667 656.278C17.4507 657.316 19.1817 656.358 18.4937 655.314C17.3117 653.521 16.8317 651.483 17.2067 649.384C17.4217 648.18 15.4947 647.663 15.2777 648.875Z" fill="#B04C7E"/>
<path d="M15.2777 618.669C14.8117 616.061 15.2857 613.514 16.7667 611.266C17.4507 610.228 19.1817 611.186 18.4937 612.231C17.3117 614.024 16.8317 616.062 17.2067 618.161C17.4217 619.363 15.4947 619.88 15.2777 618.669Z" fill="#B04C7E"/>
<path d="M38.92 633.772C38.937 637.045 35.053 639.428 32.084 640.233C30.848 640.568 31.373 642.413 32.616 642.076C36.041 641.147 41.436 637.744 41.436 633.772C41.436 629.8 36.041 626.397 32.616 625.468C31.374 625.131 30.848 626.975 32.084 627.311C35.053 628.116 38.937 630.499 38.92 633.772Z" fill="#B04C7E"/>
<path d="M33.3111 641.221C34.5791 643.506 34.7561 646.1 33.4211 648.405C32.1461 650.605 29.1941 652.838 26.6011 651.011C25.5641 650.281 24.5661 651.938 25.5921 652.661C28.6681 654.828 32.4701 652.961 34.4981 650.331C36.8221 647.316 36.8381 643.499 35.0391 640.257C34.4341 639.17 32.7071 640.134 33.3111 641.221Z" fill="#B04C7E"/>
<path d="M33.3111 626.323C34.5791 624.038 34.7561 621.444 33.4211 619.139C32.1461 616.939 29.1941 614.706 26.6011 616.533C25.5641 617.264 24.5661 615.606 25.5921 614.883C28.6681 612.716 32.4701 614.583 34.4981 617.213C36.8221 620.227 36.8381 624.045 35.0391 627.287C34.4341 628.374 32.7071 627.409 33.3111 626.323Z" fill="#B04C7E"/>
<path d="M25.0559 652.669C24.9049 655.087 23.9149 657.334 21.9379 658.909C19.7259 660.671 15.3999 662.105 13.4749 659.152C12.7959 658.11 11.0649 659.069 11.7479 660.116C13.7949 663.257 17.8909 663.218 21.0829 661.698C24.7509 659.951 26.8159 656.51 27.0549 652.669C27.1329 651.44 25.1319 651.445 25.0559 652.669Z" fill="#B04C7E"/>
<path d="M25.0559 614.875C24.9049 612.457 23.9149 610.21 21.9379 608.635C19.7259 606.873 15.3999 605.439 13.4749 608.392C12.7959 609.434 11.0649 608.475 11.7479 607.428C13.7949 604.287 17.8909 604.326 21.0829 605.846C24.7509 607.593 26.8159 611.034 27.0549 614.875C27.1329 616.103 25.1319 616.099 25.0559 614.875Z" fill="#B04C7E"/>
<path d="M42.9059 633.772C42.8459 633.883 42.8049 634.01 42.7909 634.155C42.4739 637.465 39.4979 639.579 36.1149 639.261C34.8349 639.141 34.8439 641.052 36.1149 641.172C40.6659 641.6 44.3809 638.432 44.7909 634.155C44.8049 634.01 44.7889 633.883 44.7499 633.772C44.7889 633.662 44.8049 633.534 44.7909 633.389C44.3809 629.112 40.6659 625.944 36.1149 626.372C34.8439 626.492 34.8349 628.403 36.1149 628.283C39.4979 627.965 42.4739 630.079 42.7909 633.389C42.8049 633.534 42.8459 633.661 42.9059 633.772Z" fill="#B04C7E"/>
<path d="M35.3841 641.879C37.9771 644.468 39.1211 648.513 37.1961 651.796C35.2081 655.187 29.3731 656.588 27.7891 652.006C27.3871 650.844 25.4551 651.342 25.8601 652.514C27.4841 657.213 33.5611 658.193 37.2041 654.903C41.5741 650.956 40.6861 644.411 36.7981 640.528C35.9071 639.638 34.4941 640.99 35.3841 641.879Z" fill="#B04C7E"/>
<path d="M35.3841 625.665C37.9771 623.076 39.1211 619.031 37.1961 615.747C35.2081 612.356 29.3731 610.955 27.7891 615.537C27.3871 616.699 25.4551 616.201 25.8601 615.029C27.4841 610.33 33.5611 609.35 37.2041 612.64C41.5741 616.587 40.6861 623.132 36.7981 627.015C35.9071 627.906 34.4941 626.554 35.3841 625.665Z" fill="#B04C7E"/>
<path d="M26.1591 654.43C29.8561 661.904 16.226 669.158 14.119 660.97C13.812 659.776 11.8831 660.282 12.1901 661.478C13.4071 666.209 18.9331 667.644 23.1731 665.516C27.7781 663.205 30.154 658.052 27.885 653.466C27.336 652.355 25.6121 653.323 26.1591 654.43Z" fill="#B04C7E"/>
<path d="M26.1591 613.113C29.8561 605.639 16.226 598.385 14.119 606.573C13.812 607.767 11.8831 607.261 12.1901 606.065C13.4071 601.334 18.9331 599.899 23.1731 602.027C27.7781 604.338 30.154 609.491 27.885 614.077C27.336 615.189 25.6121 614.22 26.1591 613.113Z" fill="#B04C7E"/>
<path d="M13.25 733.796L13.25 667.113L9.694 667.113L9.694 733.796L13.25 733.796Z" fill="#B04C7E"/>
<path d="M5.80566 733.796L5.80566 667.113L0.323669 667.113L0.323667 733.796L5.80566 733.796Z" fill="#B04C7E"/>
<path d="M21.859 700.455C21.859 706.535 18.389 712.616 11.449 715.476C9.09203 716.447 11.127 719.741 13.468 718.776C21.738 715.368 25.874 707.912 25.874 700.455C25.874 692.999 21.739 685.543 13.468 682.134C11.127 681.169 9.09204 684.462 11.449 685.434C18.39 688.294 21.859 694.374 21.859 700.455Z" fill="#B04C7E"/>
<path d="M33.7969 700.455C33.7969 712.088 23.5129 721.329 12.1929 723.416C10.9309 723.649 11.4649 725.491 12.7249 725.259C24.8589 723.022 35.8819 712.894 35.7969 700.455C35.8819 688.016 24.8589 677.888 12.7249 675.651C11.4649 675.419 10.9309 677.261 12.1929 677.493C23.5129 679.58 33.7969 688.822 33.7969 700.455Z" fill="#B04C7E"/>
<path d="M15.6348 700.455C15.6358 703.83 13.8019 707.206 10.1219 709.117C8.99086 709.705 9.99883 711.355 11.1308 710.767C15.4498 708.523 17.6108 704.489 17.6108 700.455C17.6108 696.421 15.4498 692.387 11.1308 690.143C9.99883 689.555 8.98986 691.205 10.1219 691.793C13.8009 693.704 15.6358 697.08 15.6348 700.455Z" fill="#B04C7E"/>
<path d="M24.7577 700.455C24.9497 701.086 25.8047 701.531 26.4087 700.911C26.5697 700.746 26.7367 700.594 26.9087 700.455C26.7367 700.316 26.5697 700.164 26.4087 699.999C25.8047 699.379 24.9497 699.824 24.7577 700.455Z" fill="#B04C7E"/>
<path d="M33.7166 699.779C33.7166 700.229 33.7166 700.68 33.7166 701.13C33.4946 700.878 33.2567 700.653 33.0087 700.454C33.2577 700.256 33.4946 700.031 33.7166 699.779C33.7166 700.229 33.7166 700.68 33.7166 701.13C33.4946 700.878 33.2567 700.653 33.0087 700.454C33.2577 700.256 33.4946 700.031 33.7166 699.779ZM24.9937 699.56C27.8137 696.665 32.4526 696.751 35.1306 699.78C35.3166 699.99 35.4106 700.223 35.4106 700.455C35.4106 700.688 35.3176 700.92 35.1306 701.131C32.4526 704.16 27.8137 704.246 24.9937 701.351C24.7197 701.069 24.6697 700.743 24.7567 700.456C24.6697 700.167 24.7197 699.841 24.9937 699.56ZM26.4077 699.999C26.5687 700.164 26.7357 700.316 26.9087 700.455C26.7367 700.594 26.5687 700.746 26.4077 700.911C25.8037 701.531 24.9487 701.087 24.7567 700.456C24.9487 699.825 25.8047 699.379 26.4077 699.999Z" fill="#B04C7E"/>
<path d="M23.5747 704.353C25.8637 707.575 29.6047 708.994 33.5997 708.225C34.8607 707.982 34.3267 706.14 33.0677 706.382C30.0017 706.972 27.0547 705.857 25.3007 703.388C24.5827 702.377 22.8487 703.332 23.5747 704.353Z" fill="#B04C7E"/>
<path d="M23.5747 696.556C25.8637 693.334 29.6047 691.915 33.5997 692.684C34.8607 692.927 34.3267 694.769 33.0677 694.527C30.0017 693.937 27.0547 695.052 25.3007 697.521C24.5827 698.532 22.8487 697.577 23.5747 696.556Z" fill="#B04C7E"/>
<path d="M21.6908 708.811C22.6388 712.164 25.3358 714.778 28.8228 715.75C30.0608 716.095 30.5898 714.252 29.3548 713.907C26.5288 713.119 24.3868 711.015 23.6198 708.303C23.2838 707.117 21.3538 707.62 21.6908 708.811Z" fill="#B04C7E"/>
<path d="M21.6908 692.099C22.6388 688.746 25.3358 686.132 28.8228 685.16C30.0608 684.815 30.5898 686.658 29.3548 687.003C26.5288 687.791 24.3868 689.895 23.6198 692.608C23.2838 693.793 21.3538 693.289 21.6908 692.099Z" fill="#B04C7E"/>
<path d="M18.743 713.426C19.47 716.118 21.024 718.489 23.27 720.261C24.255 721.038 25.678 719.694 24.684 718.91C22.687 717.334 21.319 715.317 20.671 712.919C20.35 711.729 18.42 712.233 18.743 713.426Z" fill="#B04C7E"/>
<path d="M18.743 687.483C19.47 684.791 21.024 682.421 23.27 680.649C24.255 679.872 25.678 681.216 24.684 682C22.687 683.576 21.319 685.593 20.671 687.991C20.35 689.181 18.42 688.676 18.743 687.483Z" fill="#B04C7E"/>
<path d="M15.2777 715.558C14.8117 718.166 15.2857 720.713 16.7667 722.961C17.4507 723.999 19.1817 723.041 18.4937 721.997C17.3117 720.204 16.8317 718.166 17.2067 716.067C17.4217 714.863 15.4947 714.346 15.2777 715.558Z" fill="#B04C7E"/>
<path d="M15.2777 685.352C14.8117 682.744 15.2857 680.197 16.7667 677.949C17.4507 676.911 19.1817 677.869 18.4937 678.913C17.3117 680.706 16.8317 682.744 17.2067 684.843C17.4217 686.047 15.4947 686.563 15.2777 685.352Z" fill="#B04C7E"/>
<path d="M38.92 700.455C38.937 703.728 35.053 706.111 32.084 706.917C30.848 707.252 31.373 709.097 32.616 708.759C36.041 707.83 41.436 704.427 41.436 700.455C41.436 696.483 36.041 693.081 32.616 692.151C31.374 691.814 30.848 693.658 32.084 693.994C35.053 694.799 38.937 697.182 38.92 700.455Z" fill="#B04C7E"/>
<path d="M33.3111 707.904C34.5791 710.189 34.7561 712.783 33.4211 715.088C32.1461 717.288 29.1941 719.521 26.6011 717.694C25.5641 716.964 24.5661 718.621 25.5921 719.344C28.6681 721.511 32.4701 719.644 34.4981 717.014C36.8221 713.999 36.8381 710.182 35.0391 706.94C34.4341 705.852 32.7071 706.817 33.3111 707.904Z" fill="#B04C7E"/>
<path d="M33.3111 693.006C34.5791 690.721 34.7561 688.127 33.4211 685.823C32.1461 683.623 29.1941 681.39 26.6011 683.217C25.5641 683.948 24.5661 682.29 25.5921 681.567C28.6681 679.4 32.4701 681.267 34.4981 683.897C36.8221 686.912 36.8381 690.729 35.0391 693.971C34.4341 695.057 32.7071 694.092 33.3111 693.006Z" fill="#B04C7E"/>
<path d="M25.0559 719.352C24.9049 721.77 23.9149 724.017 21.9379 725.592C19.7259 727.354 15.3999 728.788 13.4749 725.835C12.7959 724.793 11.0649 725.752 11.7479 726.799C13.7949 729.94 17.8909 729.901 21.0829 728.381C24.7509 726.634 26.8159 723.193 27.0549 719.352C27.1329 718.123 25.1319 718.128 25.0559 719.352Z" fill="#B04C7E"/>
<path d="M25.0559 681.558C24.9049 679.14 23.9149 676.893 21.9379 675.318C19.7259 673.556 15.3999 672.122 13.4749 675.075C12.7959 676.117 11.0649 675.158 11.7479 674.111C13.7949 670.97 17.8909 671.009 21.0829 672.529C24.7509 674.276 26.8159 677.717 27.0549 681.558C27.1329 682.786 25.1319 682.782 25.0559 681.558Z" fill="#B04C7E"/>
<path d="M42.9059 700.455C42.8459 700.566 42.8049 700.693 42.7909 700.838C42.4739 704.148 39.4979 706.262 36.1149 705.944C34.8349 705.824 34.8439 707.735 36.1149 707.855C40.6659 708.283 44.3809 705.115 44.7909 700.838C44.8049 700.693 44.7889 700.566 44.7499 700.455C44.7889 700.345 44.8049 700.217 44.7909 700.072C44.3809 695.795 40.6659 692.627 36.1149 693.055C34.8439 693.175 34.8349 695.086 36.1149 694.966C39.4979 694.648 42.4739 696.762 42.7909 700.072C42.8049 700.217 42.8459 700.344 42.9059 700.455Z" fill="#B04C7E"/>
<path d="M35.3841 708.562C37.9771 711.151 39.1211 715.196 37.1961 718.479C35.2081 721.87 29.3731 723.271 27.7891 718.689C27.3871 717.527 25.4551 718.025 25.8601 719.197C27.4841 723.896 33.5611 724.876 37.2041 721.586C41.5741 717.639 40.6861 711.094 36.7981 707.211C35.9071 706.32 34.4941 707.673 35.3841 708.562Z" fill="#B04C7E"/>
<path d="M35.3841 692.347C37.9771 689.758 39.1211 685.713 37.1961 682.43C35.2081 679.039 29.3731 677.638 27.7891 682.22C27.3871 683.382 25.4551 682.884 25.8601 681.712C27.4841 677.013 33.5611 676.033 37.2041 679.323C41.5741 683.27 40.6861 689.815 36.7981 693.698C35.9071 694.589 34.4941 693.237 35.3841 692.347Z" fill="#B04C7E"/>
<path d="M26.1591 721.113C29.8561 728.587 16.226 735.841 14.119 727.652C13.812 726.459 11.8831 726.964 12.1901 728.16C13.4071 732.891 18.9331 734.326 23.1731 732.198C27.7781 729.887 30.154 724.734 27.885 720.148C27.336 719.038 25.6121 720.006 26.1591 721.113Z" fill="#B04C7E"/>
<path d="M26.1591 679.796C29.8561 672.322 16.226 665.068 14.119 673.256C13.812 674.45 11.8831 673.944 12.1901 672.748C13.4071 668.017 18.9331 666.582 23.1731 668.71C27.7781 671.021 30.154 676.174 27.885 680.76C27.336 681.872 25.6121 680.903 26.1591 679.796Z" fill="#B04C7E"/>
</svg>
