<svg width="45" height="67" viewBox="0 0 45 67" fill="none" xmlns="http://www.w3.org/2000/svg">
<path d="M12.9263 66.683L12.9263 0L9.37027 -1.55438e-07L9.37027 66.683L12.9263 66.683Z" fill="#B04C7E"/>
<path d="M5.48242 66.683L5.48242 0L0.000427246 -2.39626e-07L0.000424331 66.683L5.48242 66.683Z" fill="#B04C7E"/>
<path d="M21.5353 33.3419C21.5353 39.4219 18.0653 45.5029 11.1253 48.3629C8.7683 49.3339 10.8033 52.628 13.1443 51.663C21.4143 48.255 25.5503 40.7989 25.5503 33.3419C25.5503 25.8859 21.4153 18.43 13.1443 15.021C10.8033 14.056 8.7683 17.3489 11.1253 18.3209C18.0663 21.1809 21.5353 27.2609 21.5353 33.3419Z" fill="#B04C7E"/>
<path d="M33.4731 33.3419C33.4731 44.9749 23.1891 54.2159 11.8691 56.3029C10.6071 56.5359 11.1412 58.378 12.4012 58.146C24.5352 55.909 35.5581 45.7809 35.4731 33.3419C35.5581 20.9029 24.5352 10.775 12.4012 8.53798C11.1412 8.30598 10.6071 10.148 11.8691 10.38C23.1891 12.467 33.4731 21.7089 33.4731 33.3419Z" fill="#B04C7E"/>
<path d="M15.3111 33.3419C15.3121 36.7169 13.4781 40.093 9.79813 42.004C8.66713 42.592 9.6751 44.2419 10.8071 43.6539C15.1261 41.4099 17.2871 37.3759 17.2871 33.3419C17.2871 29.3079 15.1261 25.274 10.8071 23.03C9.6751 22.442 8.66613 24.0919 9.79813 24.6799C13.4771 26.5909 15.3121 29.9669 15.3111 33.3419Z" fill="#B04C7E"/>
<path d="M24.434 33.342C24.626 33.973 25.481 34.418 26.085 33.798C26.246 33.633 26.413 33.481 26.585 33.342C26.413 33.203 26.246 33.051 26.085 32.886C25.481 32.266 24.626 32.711 24.434 33.342Z" fill="#B04C7E"/>
<path d="M33.3929 32.666C33.3929 33.116 33.3929 33.567 33.3929 34.017C33.1709 33.765 32.9329 33.54 32.6849 33.341C32.9339 33.143 33.1709 32.918 33.3929 32.666C33.3929 33.116 33.3929 33.567 33.3929 34.017C33.1709 33.766 32.9329 33.54 32.6849 33.341C32.9339 33.143 33.1709 32.918 33.3929 32.666ZM24.6699 32.446C27.4899 29.551 32.1289 29.637 34.8069 32.666C34.9929 32.876 35.0869 33.109 35.0869 33.341C35.0869 33.573 34.9939 33.806 34.8069 34.017C32.1289 37.046 27.4899 37.132 24.6699 34.237C24.3959 33.955 24.3459 33.629 24.4329 33.342C24.3459 33.054 24.3959 32.728 24.6699 32.446ZM26.0839 32.886C26.2449 33.051 26.4119 33.203 26.5849 33.342C26.4129 33.481 26.2449 33.633 26.0839 33.798C25.4799 34.418 24.6249 33.973 24.4329 33.342C24.6249 32.711 25.4809 32.266 26.0839 32.886Z" fill="#B04C7E"/>
<path d="M23.251 37.24C25.54 40.462 29.281 41.881 33.276 41.112C34.537 40.869 34.003 39.027 32.744 39.269C29.678 39.859 26.731 38.744 24.977 36.275C24.259 35.264 22.525 36.219 23.251 37.24Z" fill="#B04C7E"/>
<path d="M23.251 29.4429C25.54 26.2209 29.281 24.8019 33.276 25.5709C34.537 25.8139 34.003 27.656 32.744 27.414C29.678 26.824 26.731 27.939 24.977 30.408C24.259 31.419 22.525 30.4639 23.251 29.4429Z" fill="#B04C7E"/>
<path d="M21.3671 41.698C22.3151 45.051 25.0121 47.665 28.4991 48.637C29.7371 48.982 30.266 47.139 29.031 46.794C26.205 46.006 24.0631 43.902 23.2961 41.19C22.9601 40.004 21.0301 40.507 21.3671 41.698Z" fill="#B04C7E"/>
<path d="M21.3671 24.986C22.3151 21.633 25.0121 19.019 28.4991 18.047C29.7371 17.702 30.266 19.5449 29.031 19.8889C26.205 20.6769 24.0631 22.782 23.2961 25.494C22.9601 26.68 21.0301 26.176 21.3671 24.986Z" fill="#B04C7E"/>
<path d="M18.4193 46.313C19.1463 49.005 20.7003 51.376 22.9463 53.148C23.9313 53.925 25.3543 52.581 24.3603 51.797C22.3633 50.221 20.9953 48.2041 20.3473 45.8061C20.0263 44.6161 18.0963 45.12 18.4193 46.313Z" fill="#B04C7E"/>
<path d="M18.4193 20.37C19.1463 17.678 20.7003 15.308 22.9463 13.535C23.9313 12.758 25.3543 14.102 24.3603 14.886C22.3633 16.462 20.9953 18.479 20.3473 20.877C20.0263 22.068 18.0963 21.563 18.4193 20.37Z" fill="#B04C7E"/>
<path d="M14.9539 48.445C14.4879 51.053 14.962 53.6 16.443 55.848C17.127 56.886 18.858 55.928 18.17 54.884C16.988 53.091 16.508 51.0529 16.883 48.9539C17.098 47.7499 15.1709 47.233 14.9539 48.445Z" fill="#B04C7E"/>
<path d="M14.9539 18.2389C14.4879 15.6309 14.962 13.0839 16.443 10.8359C17.127 9.79793 18.858 10.756 18.17 11.801C16.988 13.594 16.508 15.632 16.883 17.731C17.098 18.933 15.1709 19.4499 14.9539 18.2389Z" fill="#B04C7E"/>
<path d="M38.5963 33.342C38.6133 36.615 34.7293 38.998 31.7603 39.803C30.5243 40.138 31.0493 41.983 32.2923 41.646C35.7173 40.717 41.1123 37.314 41.1123 33.342C41.1123 29.37 35.7173 25.967 32.2923 25.038C31.0503 24.701 30.5243 26.545 31.7603 26.881C34.7293 27.686 38.6133 30.069 38.5963 33.342Z" fill="#B04C7E"/>
<path d="M32.9874 40.791C34.2554 43.076 34.4323 45.67 33.0973 47.975C31.8223 50.175 28.8703 52.408 26.2773 50.581C25.2403 49.851 24.2423 51.508 25.2683 52.231C28.3443 54.398 32.1463 52.531 34.1743 49.901C36.4983 46.886 36.5144 43.069 34.7154 39.827C34.1104 38.74 32.3834 39.704 32.9874 40.791Z" fill="#B04C7E"/>
<path d="M32.9874 25.893C34.2554 23.608 34.4323 21.014 33.0973 18.709C31.8223 16.509 28.8703 14.276 26.2773 16.103C25.2403 16.834 24.2423 15.176 25.2683 14.453C28.3443 12.286 32.1463 14.153 34.1743 16.783C36.4983 19.797 36.5144 23.615 34.7154 26.857C34.1104 27.944 32.3834 26.979 32.9874 25.893Z" fill="#B04C7E"/>
<path d="M24.7322 52.239C24.5812 54.657 23.5912 56.904 21.6142 58.479C19.4022 60.241 15.0762 61.6749 13.1512 58.7219C12.4722 57.6799 10.7412 58.639 11.4242 59.686C13.4712 62.827 17.5672 62.788 20.7592 61.268C24.4272 59.521 26.4922 56.08 26.7312 52.239C26.8092 51.01 24.8082 51.015 24.7322 52.239Z" fill="#B04C7E"/>
<path d="M24.7322 14.4449C24.5812 12.0269 23.5912 9.77994 21.6142 8.20494C19.4022 6.44294 15.0762 5.00896 13.1512 7.96196C12.4722 9.00396 10.7412 8.04491 11.4242 6.99791C13.4712 3.85691 17.5672 3.89594 20.7592 5.41594C24.4272 7.16294 26.4922 10.6039 26.7312 14.4449C26.8092 15.6729 24.8082 15.6689 24.7322 14.4449Z" fill="#B04C7E"/>
<path d="M42.5822 33.342C42.5222 33.453 42.4812 33.5801 42.4672 33.7251C42.1502 37.0351 39.1742 39.149 35.7912 38.831C34.5112 38.711 34.5202 40.6221 35.7912 40.7421C40.3422 41.1701 44.0572 38.0021 44.4672 33.7251C44.4812 33.5801 44.4652 33.453 44.4262 33.342C44.4652 33.232 44.4812 33.104 44.4672 32.959C44.0572 28.682 40.3422 25.5141 35.7912 25.9421C34.5202 26.0621 34.5112 27.9731 35.7912 27.8531C39.1742 27.5351 42.1502 29.649 42.4672 32.959C42.4812 33.104 42.5222 33.231 42.5822 33.342Z" fill="#B04C7E"/>
<path d="M35.0604 41.449C37.6534 44.038 38.7973 48.083 36.8723 51.366C34.8843 54.757 29.0494 56.1579 27.4654 51.5759C27.0634 50.4139 25.1313 50.9119 25.5363 52.0839C27.1603 56.7829 33.2373 57.763 36.8803 54.473C41.2503 50.526 40.3624 43.981 36.4744 40.098C35.5834 39.208 34.1704 40.56 35.0604 41.449Z" fill="#B04C7E"/>
<path d="M35.0604 25.2349C37.6534 22.6459 38.7973 18.6009 36.8723 15.3169C34.8843 11.9259 29.0494 10.5249 27.4654 15.1069C27.0634 16.2689 25.1313 15.7709 25.5363 14.5989C27.1603 9.89991 33.2373 8.91994 36.8803 12.2099C41.2503 16.1569 40.3624 22.7019 36.4744 26.5849C35.5834 27.4759 34.1704 26.1239 35.0604 25.2349Z" fill="#B04C7E"/>
<path d="M25.8353 54C29.5323 61.474 15.9023 68.728 13.7953 60.54C13.4883 59.346 11.5593 59.852 11.8663 61.048C13.0833 65.779 18.6093 67.214 22.8493 65.086C27.4543 62.775 29.8303 57.622 27.5613 53.036C27.0123 51.925 25.2883 52.893 25.8353 54Z" fill="#B04C7E"/>
<path d="M25.8353 12.6829C29.5323 5.20891 15.9023 -2.04507 13.7953 6.14293C13.4883 7.33693 11.5593 6.83094 11.8663 5.63494C13.0833 0.903936 18.6093 -0.531089 22.8493 1.59691C27.4543 3.90791 29.8303 9.06096 27.5613 13.647C27.0123 14.759 25.2883 13.7899 25.8353 12.6829Z" fill="#B04C7E"/>
</svg>
