<svg width="45" height="734" viewBox="0 0 45 734" fill="none" xmlns="http://www.w3.org/2000/svg">
<path d="M31.5459 666.83L31.5459 733.513L35.1019 733.513L35.1019 666.83L31.5459 666.83Z" fill="#B04C7E"/>
<path d="M38.9902 666.83L38.9902 733.513L44.4722 733.513L44.4722 666.83L38.9902 666.83Z" fill="#B04C7E"/>
<path d="M22.9369 700.171C22.9369 694.091 26.4069 688.01 33.3469 685.15C35.7039 684.179 33.6689 680.885 31.3279 681.85C23.0579 685.258 18.9219 692.714 18.9219 700.171C18.9219 707.628 23.0569 715.084 31.3279 718.492C33.6689 719.457 35.7039 716.164 33.3469 715.192C26.4059 712.332 22.9369 706.252 22.9369 700.171Z" fill="#B04C7E"/>
<path d="M10.999 700.171C10.999 688.539 21.283 679.297 32.603 677.21C33.865 676.977 33.331 675.135 32.071 675.368C19.937 677.605 8.91402 687.733 8.99902 700.172C8.91402 712.611 19.937 722.739 32.071 724.976C33.331 725.208 33.865 723.366 32.603 723.133C21.283 721.045 10.999 711.804 10.999 700.171Z" fill="#B04C7E"/>
<path d="M29.1611 700.171C29.1601 696.796 30.994 693.421 34.674 691.509C35.805 690.922 34.7971 689.271 33.6651 689.859C29.3461 692.103 27.1851 696.137 27.1851 700.171C27.1851 704.205 29.3461 708.239 33.6651 710.483C34.7971 711.071 35.806 709.421 34.674 708.833C30.995 706.922 29.1601 703.546 29.1611 700.171Z" fill="#B04C7E"/>
<path d="M20.0382 700.171C19.8462 699.54 18.9912 699.095 18.3872 699.715C18.2262 699.88 18.0592 700.032 17.8872 700.171C18.0592 700.31 18.2262 700.462 18.3872 700.627C18.9912 701.247 19.8462 700.802 20.0382 700.171Z" fill="#B04C7E"/>
<path d="M11.0793 700.847C11.0793 700.397 11.0793 699.946 11.0793 699.496C11.3013 699.748 11.5392 699.973 11.7872 700.171C11.5382 700.37 11.3013 700.595 11.0793 700.847C11.0793 700.397 11.0793 699.946 11.0793 699.496C11.3013 699.748 11.5392 699.973 11.7872 700.171C11.5382 700.37 11.3013 700.595 11.0793 700.847ZM19.8022 701.066C16.9822 703.961 12.3433 703.875 9.66525 700.846C9.47925 700.636 9.38525 700.403 9.38525 700.17C9.38525 699.937 9.47825 699.705 9.66525 699.495C12.3433 696.466 16.9822 696.38 19.8022 699.275C20.0762 699.557 20.1262 699.883 20.0392 700.17C20.1262 700.459 20.0762 700.785 19.8022 701.066ZM18.3882 700.627C18.2272 700.462 18.0602 700.31 17.8872 700.171C18.0592 700.032 18.2272 699.88 18.3882 699.715C18.9922 699.095 19.8472 699.539 20.0392 700.17C19.8472 700.801 18.9912 701.247 18.3882 700.627Z" fill="#B04C7E"/>
<path d="M21.2212 696.272C18.9322 693.05 15.1912 691.631 11.1962 692.4C9.93516 692.643 10.4692 694.485 11.7282 694.242C14.7942 693.652 17.7412 694.767 19.4952 697.236C20.2132 698.249 21.9472 697.294 21.2212 696.272Z" fill="#B04C7E"/>
<path d="M21.2212 704.07C18.9322 707.292 15.1912 708.711 11.1962 707.942C9.93516 707.699 10.4692 705.857 11.7282 706.099C14.7942 706.689 17.7412 705.574 19.4952 703.105C20.2132 702.094 21.9472 703.049 21.2212 704.07Z" fill="#B04C7E"/>
<path d="M23.1051 691.815C22.1571 688.462 19.4601 685.848 15.9731 684.876C14.7351 684.531 14.2061 686.374 15.4411 686.718C18.2671 687.506 20.4091 689.61 21.1761 692.323C21.5121 693.509 23.4421 693.006 23.1051 691.815Z" fill="#B04C7E"/>
<path d="M23.1051 708.527C22.1571 711.88 19.4601 714.494 15.9731 715.466C14.7351 715.811 14.2061 713.968 15.4411 713.623C18.2671 712.835 20.4091 710.731 21.1761 708.019C21.5121 706.833 23.4421 707.336 23.1051 708.527Z" fill="#B04C7E"/>
<path d="M26.0529 687.199C25.3259 684.507 23.7719 682.137 21.5259 680.364C20.5409 679.587 19.1179 680.931 20.1119 681.715C22.1089 683.291 23.4769 685.308 24.1249 687.706C24.4459 688.897 26.3759 688.393 26.0529 687.199Z" fill="#B04C7E"/>
<path d="M26.0529 713.143C25.3259 715.835 23.7719 718.206 21.5259 719.978C20.5409 720.755 19.1179 719.411 20.1119 718.627C22.1089 717.051 23.4769 715.034 24.1249 712.636C24.4459 711.445 26.3759 711.949 26.0529 713.143Z" fill="#B04C7E"/>
<path d="M29.5182 685.068C29.9842 682.46 29.5102 679.913 28.0292 677.665C27.3452 676.627 25.6142 677.585 26.3022 678.629C27.4842 680.422 27.9642 682.46 27.5892 684.559C27.3742 685.763 29.3012 686.28 29.5182 685.068Z" fill="#B04C7E"/>
<path d="M29.5182 715.274C29.9842 717.882 29.5102 720.429 28.0292 722.677C27.3452 723.715 25.6142 722.757 26.3022 721.713C27.4842 719.92 27.9642 717.882 27.5892 715.783C27.3742 714.579 29.3012 714.063 29.5182 715.274Z" fill="#B04C7E"/>
<path d="M5.87589 700.171C5.85889 696.898 9.74288 694.515 12.7119 693.71C13.9479 693.375 13.4229 691.53 12.1799 691.867C8.75487 692.797 3.35986 696.199 3.35986 700.171C3.35986 704.143 8.75487 707.546 12.1799 708.475C13.4219 708.812 13.9479 706.968 12.7119 706.633C9.74288 705.827 5.85889 703.444 5.87589 700.171Z" fill="#B04C7E"/>
<path d="M11.4848 692.722C10.2168 690.437 10.0398 687.843 11.3748 685.538C12.6498 683.338 15.6018 681.105 18.1948 682.932C19.2318 683.663 20.2298 682.005 19.2038 681.282C16.1278 679.115 12.3258 680.982 10.2978 683.612C7.97383 686.626 7.95781 690.444 9.75681 693.686C10.3618 694.773 12.0888 693.809 11.4848 692.722Z" fill="#B04C7E"/>
<path d="M11.4848 707.62C10.2168 709.905 10.0398 712.499 11.3748 714.804C12.6498 717.004 15.6018 719.237 18.1948 717.41C19.2318 716.68 20.2298 718.337 19.2038 719.06C16.1278 721.227 12.3258 719.36 10.2978 716.73C7.97383 713.716 7.95781 709.898 9.75681 706.656C10.3618 705.569 12.0888 706.533 11.4848 707.62Z" fill="#B04C7E"/>
<path d="M19.74 681.274C19.891 678.856 20.881 676.609 22.858 675.034C25.07 673.272 29.396 671.838 31.321 674.791C32 675.833 33.731 674.874 33.048 673.827C31.001 670.686 26.905 670.725 23.713 672.245C20.045 673.992 17.98 677.433 17.741 681.275C17.663 682.502 19.664 682.498 19.74 681.274Z" fill="#B04C7E"/>
<path d="M19.74 719.068C19.891 721.486 20.881 723.733 22.858 725.308C25.07 727.07 29.396 728.504 31.321 725.551C32 724.509 33.731 725.468 33.048 726.515C31.001 729.656 26.905 729.617 23.713 728.097C20.045 726.35 17.98 722.909 17.741 719.068C17.663 717.84 19.664 717.844 19.74 719.068Z" fill="#B04C7E"/>
<path d="M1.88997 700.171C1.94997 700.061 1.99099 699.933 2.00499 699.788C2.322 696.478 5.29799 694.364 8.68099 694.682C9.96099 694.802 9.95199 692.891 8.68099 692.771C4.12999 692.343 0.414995 695.511 0.00499503 699.788C-0.00900498 699.933 0.00698013 700.06 0.0459801 700.171C0.00698013 700.281 -0.00900498 700.409 0.00499502 700.554C0.414995 704.831 4.12999 707.999 8.68099 707.571C9.95199 707.451 9.96099 705.54 8.68099 705.66C5.29799 705.978 2.32199 703.864 2.00499 700.554C1.99099 700.409 1.94997 700.282 1.88997 700.171Z" fill="#B04C7E"/>
<path d="M9.41181 692.064C6.81881 689.475 5.67483 685.43 7.59983 682.146C9.58783 678.755 15.4228 677.354 17.0068 681.936C17.4088 683.098 19.3408 682.6 18.9358 681.428C17.3118 676.729 11.2348 675.749 7.59184 679.039C3.22184 682.986 4.10981 689.531 7.99781 693.414C8.88881 694.305 10.3018 692.953 9.41181 692.064Z" fill="#B04C7E"/>
<path d="M9.41181 708.278C6.81881 710.867 5.67483 714.912 7.59983 718.195C9.58783 721.586 15.4228 722.987 17.0068 718.405C17.4088 717.243 19.3408 717.741 18.9358 718.913C17.3118 723.612 11.2348 724.592 7.59184 721.302C3.22184 717.355 4.10981 710.81 7.99781 706.927C8.88881 706.037 10.3018 707.389 9.41181 708.278Z" fill="#B04C7E"/>
<path d="M18.6368 679.513C14.9398 672.039 28.5699 664.785 30.6769 672.973C30.9839 674.167 32.9128 673.661 32.6058 672.465C31.3888 667.734 25.8628 666.299 21.6228 668.427C17.0178 670.738 14.6419 675.891 16.9109 680.477C17.4599 681.588 19.1838 680.62 18.6368 679.513Z" fill="#B04C7E"/>
<path d="M18.6368 720.829C14.9398 728.303 28.5699 735.557 30.6769 727.369C30.9839 726.175 32.9128 726.681 32.6058 727.877C31.3888 732.608 25.8628 734.043 21.6228 731.915C17.0178 729.604 14.6419 724.451 16.9109 719.865C17.4599 718.754 19.1838 719.723 18.6368 720.829Z" fill="#B04C7E"/>
<path d="M31.5459 600.147L31.5459 666.83L35.1019 666.83L35.1019 600.147L31.5459 600.147Z" fill="#B04C7E"/>
<path d="M38.9902 600.147L38.9902 666.83L44.4722 666.83L44.4722 600.147L38.9902 600.147Z" fill="#B04C7E"/>
<path d="M22.9369 633.488C22.9369 627.408 26.4069 621.327 33.3469 618.467C35.7039 617.496 33.6689 614.202 31.3279 615.167C23.0579 618.575 18.9219 626.031 18.9219 633.488C18.9219 640.944 23.0569 648.4 31.3279 651.809C33.6689 652.774 35.7039 649.481 33.3469 648.509C26.4059 645.649 22.9369 639.569 22.9369 633.488Z" fill="#B04C7E"/>
<path d="M10.999 633.488C10.999 621.856 21.283 612.614 32.603 610.527C33.865 610.294 33.331 608.452 32.071 608.684C19.937 610.921 8.91402 621.049 8.99902 633.488C8.91402 645.927 19.937 656.055 32.071 658.292C33.331 658.524 33.865 656.682 32.603 656.449C21.283 654.363 10.999 645.121 10.999 633.488Z" fill="#B04C7E"/>
<path d="M29.1611 633.488C29.1601 630.113 30.994 626.737 34.674 624.826C35.805 624.238 34.7971 622.588 33.6651 623.176C29.3461 625.42 27.1851 629.454 27.1851 633.488C27.1851 637.522 29.3461 641.556 33.6651 643.8C34.7971 644.388 35.806 642.738 34.674 642.15C30.995 640.239 29.1601 636.863 29.1611 633.488Z" fill="#B04C7E"/>
<path d="M20.0382 633.488C19.8462 632.857 18.9912 632.412 18.3872 633.032C18.2262 633.197 18.0592 633.349 17.8872 633.488C18.0592 633.627 18.2262 633.779 18.3872 633.944C18.9912 634.564 19.8462 634.119 20.0382 633.488Z" fill="#B04C7E"/>
<path d="M11.0793 634.164C11.0793 633.714 11.0793 633.263 11.0793 632.813C11.3013 633.065 11.5392 633.29 11.7872 633.489C11.5382 633.687 11.3013 633.912 11.0793 634.164C11.0793 633.714 11.0793 633.263 11.0793 632.813C11.3013 633.064 11.5392 633.29 11.7872 633.489C11.5382 633.687 11.3013 633.912 11.0793 634.164ZM19.8022 634.383C16.9822 637.278 12.3433 637.192 9.66525 634.163C9.47925 633.953 9.38525 633.72 9.38525 633.487C9.38525 633.254 9.47825 633.022 9.66525 632.811C12.3433 629.782 16.9822 629.696 19.8022 632.591C20.0762 632.873 20.1262 633.199 20.0392 633.486C20.1262 633.776 20.0762 634.102 19.8022 634.383ZM18.3882 633.944C18.2272 633.779 18.0602 633.627 17.8872 633.488C18.0592 633.349 18.2272 633.197 18.3882 633.032C18.9922 632.412 19.8472 632.857 20.0392 633.488C19.8472 634.119 18.9912 634.564 18.3882 633.944Z" fill="#B04C7E"/>
<path d="M21.2212 629.589C18.9322 626.367 15.1912 624.948 11.1962 625.717C9.93516 625.96 10.4692 627.802 11.7282 627.559C14.7942 626.969 17.7412 628.084 19.4952 630.553C20.2132 631.566 21.9472 630.611 21.2212 629.589Z" fill="#B04C7E"/>
<path d="M21.2212 637.387C18.9322 640.609 15.1912 642.028 11.1962 641.259C9.93516 641.016 10.4692 639.174 11.7282 639.416C14.7942 640.006 17.7412 638.891 19.4952 636.422C20.2132 635.411 21.9472 636.366 21.2212 637.387Z" fill="#B04C7E"/>
<path d="M23.1051 625.132C22.1571 621.779 19.4601 619.165 15.9731 618.193C14.7351 617.848 14.2061 619.691 15.4411 620.035C18.2671 620.823 20.4091 622.928 21.1761 625.64C21.5121 626.826 23.4421 626.323 23.1051 625.132Z" fill="#B04C7E"/>
<path d="M23.1051 641.844C22.1571 645.197 19.4601 647.811 15.9731 648.783C14.7351 649.128 14.2061 647.285 15.4411 646.94C18.2671 646.152 20.4091 644.048 21.1761 641.336C21.5121 640.15 23.4421 640.654 23.1051 641.844Z" fill="#B04C7E"/>
<path d="M26.0529 620.517C25.3259 617.825 23.7719 615.454 21.5259 613.682C20.5409 612.905 19.1179 614.249 20.1119 615.033C22.1089 616.609 23.4769 618.626 24.1249 621.024C24.4459 622.214 26.3759 621.71 26.0529 620.517Z" fill="#B04C7E"/>
<path d="M26.0529 646.46C25.3259 649.152 23.7719 651.523 21.5259 653.295C20.5409 654.072 19.1179 652.728 20.1119 651.944C22.1089 650.368 23.4769 648.351 24.1249 645.953C24.4459 644.762 26.3759 645.266 26.0529 646.46Z" fill="#B04C7E"/>
<path d="M29.5182 618.385C29.9842 615.777 29.5102 613.23 28.0292 610.982C27.3452 609.944 25.6142 610.902 26.3022 611.946C27.4842 613.739 27.9642 615.777 27.5892 617.876C27.3742 619.08 29.3012 619.597 29.5182 618.385Z" fill="#B04C7E"/>
<path d="M29.5182 648.591C29.9842 651.199 29.5102 653.746 28.0292 655.993C27.3452 657.031 25.6142 656.073 26.3022 655.028C27.4842 653.235 27.9642 651.197 27.5892 649.098C27.3742 647.896 29.3012 647.38 29.5182 648.591Z" fill="#B04C7E"/>
<path d="M5.87589 633.488C5.85889 630.215 9.74288 627.832 12.7119 627.027C13.9479 626.692 13.4229 624.847 12.1799 625.184C8.75487 626.114 3.35986 629.516 3.35986 633.488C3.35986 637.46 8.75487 640.863 12.1799 641.792C13.4219 642.129 13.9479 640.285 12.7119 639.95C9.74288 639.144 5.85889 636.761 5.87589 633.488Z" fill="#B04C7E"/>
<path d="M11.4848 626.039C10.2168 623.754 10.0398 621.16 11.3748 618.855C12.6498 616.655 15.6018 614.422 18.1948 616.249C19.2318 616.979 20.2298 615.322 19.2038 614.599C16.1278 612.432 12.3258 614.299 10.2978 616.929C7.97383 619.943 7.95781 623.761 9.75681 627.003C10.3618 628.09 12.0888 627.126 11.4848 626.039Z" fill="#B04C7E"/>
<path d="M11.4848 640.937C10.2168 643.222 10.0398 645.816 11.3748 648.121C12.6498 650.321 15.6018 652.554 18.1948 650.727C19.2318 649.997 20.2298 651.654 19.2038 652.377C16.1278 654.544 12.3258 652.677 10.2978 650.047C7.97383 647.033 7.95781 643.215 9.75681 639.973C10.3618 638.886 12.0888 639.85 11.4848 640.937Z" fill="#B04C7E"/>
<path d="M19.74 614.591C19.891 612.173 20.881 609.926 22.858 608.351C25.07 606.589 29.396 605.155 31.321 608.108C32 609.15 33.731 608.191 33.048 607.144C31.001 604.003 26.905 604.042 23.713 605.562C20.045 607.309 17.98 610.75 17.741 614.591C17.663 615.819 19.664 615.815 19.74 614.591Z" fill="#B04C7E"/>
<path d="M19.74 652.385C19.891 654.803 20.881 657.05 22.858 658.625C25.07 660.387 29.396 661.821 31.321 658.868C32 657.826 33.731 658.784 33.048 659.832C31.001 662.973 26.905 662.934 23.713 661.414C20.045 659.667 17.98 656.226 17.741 652.385C17.663 651.157 19.664 651.161 19.74 652.385Z" fill="#B04C7E"/>
<path d="M1.88997 633.488C1.94997 633.378 1.99099 633.25 2.00499 633.105C2.322 629.795 5.29799 627.681 8.68099 627.999C9.96099 628.119 9.95199 626.208 8.68099 626.088C4.12999 625.66 0.414995 628.828 0.00499503 633.105C-0.00900498 633.25 0.00698013 633.377 0.0459801 633.488C0.00698013 633.598 -0.00900498 633.726 0.00499502 633.871C0.414995 638.148 4.12999 641.316 8.68099 640.888C9.95199 640.768 9.96099 638.857 8.68099 638.977C5.29799 639.295 2.32199 637.181 2.00499 633.871C1.99099 633.726 1.94997 633.599 1.88997 633.488Z" fill="#B04C7E"/>
<path d="M9.41181 625.381C6.81881 622.792 5.67483 618.747 7.59983 615.463C9.58783 612.072 15.4228 610.671 17.0068 615.253C17.4088 616.415 19.3408 615.917 18.9358 614.745C17.3118 610.046 11.2348 609.066 7.59184 612.356C3.22184 616.303 4.10981 622.848 7.99781 626.731C8.88881 627.622 10.3018 626.27 9.41181 625.381Z" fill="#B04C7E"/>
<path d="M9.41181 641.595C6.81881 644.184 5.67483 648.229 7.59983 651.513C9.58783 654.904 15.4228 656.305 17.0068 651.723C17.4088 650.561 19.3408 651.059 18.9358 652.231C17.3118 656.93 11.2348 657.91 7.59184 654.62C3.22184 650.673 4.10981 644.128 7.99781 640.245C8.88881 639.354 10.3018 640.706 9.41181 641.595Z" fill="#B04C7E"/>
<path d="M18.6368 612.83C14.9398 605.356 28.5699 598.102 30.6769 606.29C30.9839 607.484 32.9128 606.978 32.6058 605.782C31.3888 601.051 25.8628 599.616 21.6228 601.744C17.0178 604.055 14.6419 609.208 16.9109 613.794C17.4599 614.905 19.1838 613.937 18.6368 612.83Z" fill="#B04C7E"/>
<path d="M18.6368 654.147C14.9398 661.621 28.5699 668.875 30.6769 660.686C30.9839 659.493 32.9128 659.998 32.6058 661.194C31.3888 665.925 25.8628 667.36 21.6228 665.232C17.0178 662.921 14.6419 657.768 16.9109 653.182C17.4599 652.071 19.1838 653.04 18.6368 654.147Z" fill="#B04C7E"/>
<path d="M31.5459 533.464L31.5459 600.147L35.1019 600.147L35.1019 533.464L31.5459 533.464Z" fill="#B04C7E"/>
<path d="M38.9902 533.464L38.9902 600.147L44.4722 600.147L44.4722 533.464L38.9902 533.464Z" fill="#B04C7E"/>
<path d="M22.9369 566.805C22.9369 560.725 26.4069 554.644 33.3469 551.784C35.7039 550.813 33.6689 547.519 31.3279 548.484C23.0579 551.892 18.9219 559.348 18.9219 566.805C18.9219 574.261 23.0569 581.717 31.3279 585.126C33.6689 586.091 35.7039 582.798 33.3469 581.826C26.4059 578.966 22.9369 572.886 22.9369 566.805Z" fill="#B04C7E"/>
<path d="M10.999 566.805C10.999 555.173 21.283 545.931 32.603 543.844C33.865 543.611 33.331 541.769 32.071 542.001C19.937 544.238 8.91402 554.366 8.99902 566.805C8.91402 579.244 19.937 589.372 32.071 591.609C33.331 591.841 33.865 589.999 32.603 589.766C21.283 587.68 10.999 578.438 10.999 566.805Z" fill="#B04C7E"/>
<path d="M29.1611 566.805C29.1601 563.43 30.994 560.054 34.674 558.143C35.805 557.555 34.7971 555.905 33.6651 556.493C29.3461 558.737 27.1851 562.771 27.1851 566.805C27.1851 570.839 29.3461 574.873 33.6651 577.117C34.7971 577.705 35.806 576.055 34.674 575.467C30.995 573.556 29.1601 570.18 29.1611 566.805Z" fill="#B04C7E"/>
<path d="M20.0382 566.805C19.8462 566.174 18.9912 565.729 18.3872 566.349C18.2262 566.514 18.0592 566.666 17.8872 566.805C18.0592 566.944 18.2262 567.096 18.3872 567.261C18.9912 567.881 19.8462 567.436 20.0382 566.805Z" fill="#B04C7E"/>
<path d="M11.0793 567.481C11.0793 567.031 11.0793 566.58 11.0793 566.13C11.3013 566.382 11.5392 566.607 11.7872 566.806C11.5382 567.004 11.3013 567.229 11.0793 567.481C11.0793 567.031 11.0793 566.58 11.0793 566.13C11.3013 566.382 11.5392 566.607 11.7872 566.806C11.5382 567.004 11.3013 567.229 11.0793 567.481ZM19.8022 567.7C16.9822 570.595 12.3433 570.509 9.66525 567.48C9.47925 567.27 9.38525 567.037 9.38525 566.804C9.38525 566.571 9.47825 566.339 9.66525 566.128C12.3433 563.099 16.9822 563.013 19.8022 565.908C20.0762 566.19 20.1262 566.516 20.0392 566.803C20.1262 567.093 20.0762 567.419 19.8022 567.7ZM18.3882 567.261C18.2272 567.096 18.0602 566.944 17.8872 566.805C18.0592 566.666 18.2272 566.514 18.3882 566.349C18.9922 565.729 19.8472 566.174 20.0392 566.805C19.8472 567.436 18.9912 567.881 18.3882 567.261Z" fill="#B04C7E"/>
<path d="M21.2212 562.906C18.9322 559.684 15.1912 558.265 11.1962 559.034C9.93516 559.277 10.4692 561.119 11.7282 560.876C14.7942 560.286 17.7412 561.401 19.4952 563.87C20.2132 564.883 21.9472 563.928 21.2212 562.906Z" fill="#B04C7E"/>
<path d="M21.2212 570.704C18.9322 573.926 15.1912 575.345 11.1962 574.576C9.93516 574.333 10.4692 572.491 11.7282 572.734C14.7942 573.324 17.7412 572.209 19.4952 569.74C20.2132 568.728 21.9472 569.683 21.2212 570.704Z" fill="#B04C7E"/>
<path d="M23.1051 558.449C22.1571 555.096 19.4601 552.482 15.9731 551.51C14.7351 551.165 14.2061 553.008 15.4411 553.353C18.2671 554.141 20.4091 556.245 21.1761 558.958C21.5121 560.143 23.4421 559.64 23.1051 558.449Z" fill="#B04C7E"/>
<path d="M23.1051 575.161C22.1571 578.514 19.4601 581.128 15.9731 582.1C14.7351 582.445 14.2061 580.602 15.4411 580.258C18.2671 579.47 20.4091 577.365 21.1761 574.653C21.5121 573.467 23.4421 573.97 23.1051 575.161Z" fill="#B04C7E"/>
<path d="M26.0529 553.834C25.3259 551.142 23.7719 548.771 21.5259 546.999C20.5409 546.222 19.1179 547.566 20.1119 548.35C22.1089 549.926 23.4769 551.943 24.1249 554.341C24.4459 555.531 26.3759 555.027 26.0529 553.834Z" fill="#B04C7E"/>
<path d="M26.0529 579.777C25.3259 582.469 23.7719 584.84 21.5259 586.612C20.5409 587.389 19.1179 586.045 20.1119 585.261C22.1089 583.685 23.4769 581.668 24.1249 579.27C24.4459 578.079 26.3759 578.583 26.0529 579.777Z" fill="#B04C7E"/>
<path d="M29.5182 551.702C29.9842 549.094 29.5102 546.547 28.0292 544.299C27.3452 543.261 25.6142 544.219 26.3022 545.264C27.4842 547.057 27.9642 549.095 27.5892 551.194C27.3742 552.397 29.3012 552.914 29.5182 551.702Z" fill="#B04C7E"/>
<path d="M29.5182 581.908C29.9842 584.516 29.5102 587.063 28.0292 589.31C27.3452 590.348 25.6142 589.39 26.3022 588.346C27.4842 586.553 27.9642 584.515 27.5892 582.416C27.3742 581.213 29.3012 580.697 29.5182 581.908Z" fill="#B04C7E"/>
<path d="M5.87589 566.805C5.85889 563.532 9.74288 561.149 12.7119 560.343C13.9479 560.008 13.4229 558.163 12.1799 558.501C8.75487 559.43 3.35986 562.833 3.35986 566.805C3.35986 570.777 8.75487 574.18 12.1799 575.109C13.4219 575.446 13.9479 573.602 12.7119 573.266C9.74288 572.461 5.85889 570.078 5.87589 566.805Z" fill="#B04C7E"/>
<path d="M11.4848 559.356C10.2168 557.071 10.0398 554.477 11.3748 552.172C12.6498 549.972 15.6018 547.739 18.1948 549.566C19.2318 550.296 20.2298 548.639 19.2038 547.916C16.1278 545.749 12.3258 547.616 10.2978 550.246C7.97383 553.261 7.95781 557.078 9.75681 560.32C10.3618 561.407 12.0888 560.443 11.4848 559.356Z" fill="#B04C7E"/>
<path d="M11.4848 574.254C10.2168 576.539 10.0398 579.133 11.3748 581.438C12.6498 583.638 15.6018 585.871 18.1948 584.044C19.2318 583.314 20.2298 584.971 19.2038 585.694C16.1278 587.861 12.3258 585.994 10.2978 583.364C7.97383 580.349 7.95781 576.532 9.75681 573.29C10.3618 572.203 12.0888 573.167 11.4848 574.254Z" fill="#B04C7E"/>
<path d="M19.74 547.908C19.891 545.49 20.881 543.243 22.858 541.668C25.07 539.906 29.396 538.472 31.321 541.425C32 542.467 33.731 541.508 33.048 540.461C31.001 537.32 26.905 537.359 23.713 538.879C20.045 540.626 17.98 544.067 17.741 547.908C17.663 549.136 19.664 549.132 19.74 547.908Z" fill="#B04C7E"/>
<path d="M19.74 585.702C19.891 588.12 20.881 590.367 22.858 591.942C25.07 593.704 29.396 595.138 31.321 592.185C32 591.143 33.731 592.102 33.048 593.149C31.001 596.29 26.905 596.251 23.713 594.731C20.045 592.984 17.98 589.543 17.741 585.702C17.663 584.474 19.664 584.478 19.74 585.702Z" fill="#B04C7E"/>
<path d="M1.88997 566.805C1.94997 566.695 1.99099 566.567 2.00499 566.422C2.322 563.112 5.29799 560.998 8.68099 561.316C9.96099 561.436 9.95199 559.525 8.68099 559.405C4.12999 558.977 0.414995 562.145 0.00499503 566.422C-0.00900498 566.567 0.00698013 566.694 0.0459801 566.805C0.00698013 566.915 -0.00900498 567.043 0.00499502 567.188C0.414995 571.465 4.12999 574.633 8.68099 574.205C9.95199 574.085 9.96099 572.174 8.68099 572.294C5.29799 572.612 2.32199 570.498 2.00499 567.188C1.99099 567.043 1.94997 566.916 1.88997 566.805Z" fill="#B04C7E"/>
<path d="M9.41181 558.698C6.81881 556.109 5.67483 552.064 7.59983 548.781C9.58783 545.39 15.4228 543.989 17.0068 548.571C17.4088 549.733 19.3408 549.235 18.9358 548.063C17.3118 543.364 11.2348 542.384 7.59184 545.674C3.22184 549.621 4.10981 556.166 7.99781 560.049C8.88881 560.939 10.3018 559.587 9.41181 558.698Z" fill="#B04C7E"/>
<path d="M9.41181 574.912C6.81881 577.501 5.67483 581.546 7.59983 584.83C9.58783 588.221 15.4228 589.622 17.0068 585.04C17.4088 583.878 19.3408 584.376 18.9358 585.548C17.3118 590.247 11.2348 591.227 7.59184 587.937C3.22184 583.99 4.10981 577.445 7.99781 573.562C8.88881 572.671 10.3018 574.023 9.41181 574.912Z" fill="#B04C7E"/>
<path d="M18.6368 546.147C14.9398 538.673 28.5699 531.419 30.6769 539.607C30.9839 540.801 32.9128 540.295 32.6058 539.099C31.3888 534.368 25.8628 532.933 21.6228 535.061C17.0178 537.372 14.6419 542.525 16.9109 547.111C17.4599 548.222 19.1838 547.254 18.6368 546.147Z" fill="#B04C7E"/>
<path d="M18.6368 587.464C14.9398 594.938 28.5699 602.192 30.6769 594.004C30.9839 592.81 32.9128 593.316 32.6058 594.512C31.3888 599.243 25.8628 600.678 21.6228 598.55C17.0178 596.239 14.6419 591.086 16.9109 586.5C17.4599 585.388 19.1838 586.357 18.6368 587.464Z" fill="#B04C7E"/>
<path d="M31.5459 466.781L31.5459 533.464L35.1019 533.464L35.1019 466.781L31.5459 466.781Z" fill="#B04C7E"/>
<path d="M38.9902 466.781L38.9902 533.464L44.4722 533.464L44.4722 466.781L38.9902 466.781Z" fill="#B04C7E"/>
<path d="M22.9369 500.122C22.9369 494.042 26.4069 487.961 33.3469 485.101C35.7039 484.13 33.6689 480.836 31.3279 481.801C23.0579 485.209 18.9219 492.666 18.9219 500.122C18.9219 507.578 23.0569 515.034 31.3279 518.443C33.6689 519.408 35.7039 516.115 33.3469 515.143C26.4059 512.283 22.9369 506.203 22.9369 500.122Z" fill="#B04C7E"/>
<path d="M10.999 500.122C10.999 488.489 21.283 479.248 32.603 477.161C33.865 476.928 33.331 475.086 32.071 475.318C19.937 477.555 8.91402 487.683 8.99902 500.122C8.91402 512.561 19.937 522.689 32.071 524.926C33.331 525.158 33.865 523.316 32.603 523.084C21.283 520.997 10.999 511.755 10.999 500.122Z" fill="#B04C7E"/>
<path d="M29.1611 500.122C29.1601 496.747 30.994 493.372 34.674 491.46C35.805 490.872 34.7971 489.222 33.6651 489.81C29.3461 492.054 27.1851 496.088 27.1851 500.122C27.1851 504.156 29.3461 508.19 33.6651 510.434C34.7971 511.022 35.806 509.372 34.674 508.784C30.995 506.873 29.1601 503.497 29.1611 500.122Z" fill="#B04C7E"/>
<path d="M20.0382 500.122C19.8462 499.491 18.9912 499.046 18.3872 499.666C18.2262 499.831 18.0592 499.983 17.8872 500.122C18.0592 500.261 18.2262 500.413 18.3872 500.578C18.9912 501.198 19.8462 500.753 20.0382 500.122Z" fill="#B04C7E"/>
<path d="M11.0793 500.798C11.0793 500.348 11.0793 499.897 11.0793 499.447C11.3013 499.699 11.5392 499.924 11.7872 500.123C11.5382 500.321 11.3013 500.546 11.0793 500.798C11.0793 500.348 11.0793 499.897 11.0793 499.447C11.3013 499.698 11.5392 499.924 11.7872 500.123C11.5382 500.321 11.3013 500.546 11.0793 500.798ZM19.8022 501.017C16.9822 503.912 12.3433 503.826 9.66525 500.797C9.47925 500.587 9.38525 500.354 9.38525 500.121C9.38525 499.888 9.47825 499.656 9.66525 499.445C12.3433 496.416 16.9822 496.33 19.8022 499.225C20.0762 499.507 20.1262 499.833 20.0392 500.12C20.1262 500.41 20.0762 500.736 19.8022 501.017ZM18.3882 500.578C18.2272 500.413 18.0602 500.261 17.8872 500.122C18.0592 499.983 18.2272 499.831 18.3882 499.666C18.9922 499.046 19.8472 499.491 20.0392 500.122C19.8472 500.753 18.9912 501.198 18.3882 500.578Z" fill="#B04C7E"/>
<path d="M21.2212 496.224C18.9322 493.002 15.1912 491.583 11.1962 492.352C9.93516 492.595 10.4692 494.437 11.7282 494.195C14.7942 493.605 17.7412 494.72 19.4952 497.189C20.2132 498.2 21.9472 497.245 21.2212 496.224Z" fill="#B04C7E"/>
<path d="M21.2212 504.021C18.9322 507.243 15.1912 508.662 11.1962 507.893C9.93516 507.65 10.4692 505.808 11.7282 506.051C14.7942 506.641 17.7412 505.526 19.4952 503.057C20.2132 502.045 21.9472 503 21.2212 504.021Z" fill="#B04C7E"/>
<path d="M23.1051 491.766C22.1571 488.413 19.4601 485.799 15.9731 484.827C14.7351 484.482 14.2061 486.325 15.4411 486.67C18.2671 487.458 20.4091 489.562 21.1761 492.274C21.5121 493.46 23.4421 492.957 23.1051 491.766Z" fill="#B04C7E"/>
<path d="M23.1051 508.478C22.1571 511.831 19.4601 514.445 15.9731 515.417C14.7351 515.762 14.2061 513.919 15.4411 513.575C18.2671 512.787 20.4091 510.682 21.1761 507.97C21.5121 506.784 23.4421 507.288 23.1051 508.478Z" fill="#B04C7E"/>
<path d="M26.0529 487.151C25.3259 484.459 23.7719 482.088 21.5259 480.316C20.5409 479.539 19.1179 480.883 20.1119 481.667C22.1089 483.243 23.4769 485.26 24.1249 487.658C24.4459 488.848 26.3759 488.344 26.0529 487.151Z" fill="#B04C7E"/>
<path d="M26.0529 513.094C25.3259 515.786 23.7719 518.156 21.5259 519.928C20.5409 520.705 19.1179 519.361 20.1119 518.577C22.1089 517.001 23.4769 514.984 24.1249 512.586C24.4459 511.396 26.3759 511.901 26.0529 513.094Z" fill="#B04C7E"/>
<path d="M29.5182 485.019C29.9842 482.411 29.5102 479.864 28.0292 477.617C27.3452 476.579 25.6142 477.537 26.3022 478.581C27.4842 480.374 27.9642 482.412 27.5892 484.511C27.3742 485.714 29.3012 486.231 29.5182 485.019Z" fill="#B04C7E"/>
<path d="M29.5182 515.225C29.9842 517.833 29.5102 520.38 28.0292 522.627C27.3452 523.665 25.6142 522.707 26.3022 521.663C27.4842 519.87 27.9642 517.832 27.5892 515.733C27.3742 514.53 29.3012 514.014 29.5182 515.225Z" fill="#B04C7E"/>
<path d="M5.87589 500.122C5.85889 496.849 9.74288 494.466 12.7119 493.661C13.9479 493.326 13.4229 491.481 12.1799 491.819C8.75487 492.748 3.35986 496.151 3.35986 500.123C3.35986 504.095 8.75487 507.498 12.1799 508.427C13.4219 508.764 13.9479 506.92 12.7119 506.584C9.74288 505.778 5.85889 503.395 5.87589 500.122Z" fill="#B04C7E"/>
<path d="M11.4848 492.673C10.2168 490.388 10.0398 487.794 11.3748 485.489C12.6498 483.289 15.6018 481.056 18.1948 482.883C19.2318 483.613 20.2298 481.956 19.2038 481.233C16.1278 479.066 12.3258 480.933 10.2978 483.563C7.97383 486.577 7.95781 490.395 9.75681 493.637C10.3618 494.724 12.0888 493.76 11.4848 492.673Z" fill="#B04C7E"/>
<path d="M11.4848 507.571C10.2168 509.856 10.0398 512.45 11.3748 514.755C12.6498 516.955 15.6018 519.188 18.1948 517.361C19.2318 516.631 20.2298 518.288 19.2038 519.011C16.1278 521.178 12.3258 519.311 10.2978 516.681C7.97383 513.667 7.95781 509.849 9.75681 506.607C10.3618 505.52 12.0888 506.484 11.4848 507.571Z" fill="#B04C7E"/>
<path d="M19.74 481.225C19.891 478.807 20.881 476.56 22.858 474.985C25.07 473.223 29.396 471.789 31.321 474.742C32 475.784 33.731 474.825 33.048 473.777C31.001 470.636 26.905 470.675 23.713 472.195C20.045 473.942 17.98 477.383 17.741 481.224C17.663 482.453 19.664 482.449 19.74 481.225Z" fill="#B04C7E"/>
<path d="M19.74 519.019C19.891 521.437 20.881 523.684 22.858 525.259C25.07 527.021 29.396 528.455 31.321 525.502C32 524.46 33.731 525.419 33.048 526.466C31.001 529.607 26.905 529.568 23.713 528.048C20.045 526.301 17.98 522.86 17.741 519.019C17.663 517.791 19.664 517.795 19.74 519.019Z" fill="#B04C7E"/>
<path d="M1.88997 500.122C1.94997 500.011 1.99099 499.884 2.00499 499.739C2.322 496.429 5.29799 494.315 8.68099 494.633C9.96099 494.753 9.95199 492.842 8.68099 492.722C4.12999 492.294 0.414995 495.462 0.00499503 499.739C-0.00900498 499.884 0.00698013 500.011 0.0459801 500.122C0.00698013 500.232 -0.00900498 500.36 0.00499502 500.505C0.414995 504.782 4.12999 507.95 8.68099 507.522C9.95199 507.402 9.96099 505.491 8.68099 505.611C5.29799 505.929 2.32199 503.815 2.00499 500.505C1.99099 500.36 1.94997 500.233 1.88997 500.122Z" fill="#B04C7E"/>
<path d="M9.41181 492.015C6.81881 489.426 5.67483 485.381 7.59983 482.098C9.58783 478.707 15.4228 477.306 17.0068 481.888C17.4088 483.05 19.3408 482.552 18.9358 481.38C17.3118 476.681 11.2348 475.701 7.59184 478.991C3.22184 482.938 4.10981 489.483 7.99781 493.366C8.88881 494.256 10.3018 492.904 9.41181 492.015Z" fill="#B04C7E"/>
<path d="M9.41181 508.229C6.81881 510.818 5.67483 514.863 7.59983 518.147C9.58783 521.538 15.4228 522.939 17.0068 518.357C17.4088 517.195 19.3408 517.693 18.9358 518.865C17.3118 523.564 11.2348 524.544 7.59184 521.254C3.22184 517.307 4.10981 510.762 7.99781 506.879C8.88881 505.988 10.3018 507.34 9.41181 508.229Z" fill="#B04C7E"/>
<path d="M18.6368 479.464C14.9398 471.99 28.5699 464.736 30.6769 472.924C30.9839 474.118 32.9128 473.612 32.6058 472.416C31.3888 467.685 25.8628 466.25 21.6228 468.378C17.0178 470.689 14.6419 475.842 16.9109 480.428C17.4599 481.539 19.1838 480.571 18.6368 479.464Z" fill="#B04C7E"/>
<path d="M18.6368 520.781C14.9398 528.255 28.5699 535.509 30.6769 527.321C30.9839 526.127 32.9128 526.633 32.6058 527.829C31.3888 532.56 25.8628 533.995 21.6228 531.867C17.0178 529.556 14.6419 524.403 16.9109 519.817C17.4599 518.705 19.1838 519.674 18.6368 520.781Z" fill="#B04C7E"/>
<path d="M31.5459 400.098L31.5459 466.781L35.1019 466.781L35.1019 400.098L31.5459 400.098Z" fill="#B04C7E"/>
<path d="M38.9902 400.098L38.9902 466.781L44.4722 466.781L44.4722 400.098L38.9902 400.098Z" fill="#B04C7E"/>
<path d="M22.9369 433.439C22.9369 427.359 26.4069 421.278 33.3469 418.418C35.7039 417.447 33.6689 414.153 31.3279 415.118C23.0579 418.526 18.9219 425.983 18.9219 433.439C18.9219 440.895 23.0569 448.351 31.3279 451.76C33.6689 452.725 35.7039 449.432 33.3469 448.46C26.4059 445.6 22.9369 439.52 22.9369 433.439Z" fill="#B04C7E"/>
<path d="M10.999 433.439C10.999 421.806 21.283 412.565 32.603 410.478C33.865 410.245 33.331 408.403 32.071 408.635C19.937 410.872 8.91402 421 8.99902 433.439C8.91402 445.878 19.937 456.006 32.071 458.243C33.331 458.475 33.865 456.633 32.603 456.401C21.283 454.314 10.999 445.072 10.999 433.439Z" fill="#B04C7E"/>
<path d="M29.1611 433.439C29.1601 430.064 30.994 426.688 34.674 424.777C35.805 424.189 34.7971 422.539 33.6651 423.127C29.3461 425.371 27.1851 429.405 27.1851 433.439C27.1851 437.473 29.3461 441.507 33.6651 443.751C34.7971 444.339 35.806 442.689 34.674 442.101C30.995 440.19 29.1601 436.814 29.1611 433.439Z" fill="#B04C7E"/>
<path d="M20.0382 433.439C19.8462 432.808 18.9912 432.363 18.3872 432.983C18.2262 433.148 18.0592 433.3 17.8872 433.439C18.0592 433.578 18.2262 433.73 18.3872 433.895C18.9912 434.515 19.8462 434.07 20.0382 433.439Z" fill="#B04C7E"/>
<path d="M11.0793 434.115C11.0793 433.665 11.0793 433.214 11.0793 432.764C11.3013 433.016 11.5392 433.241 11.7872 433.44C11.5382 433.638 11.3013 433.863 11.0793 434.115C11.0793 433.665 11.0793 433.214 11.0793 432.764C11.3013 433.015 11.5392 433.241 11.7872 433.44C11.5382 433.638 11.3013 433.863 11.0793 434.115ZM19.8022 434.334C16.9822 437.229 12.3433 437.143 9.66525 434.114C9.47925 433.904 9.38525 433.671 9.38525 433.438C9.38525 433.205 9.47825 432.973 9.66525 432.762C12.3433 429.733 16.9822 429.647 19.8022 432.542C20.0762 432.824 20.1262 433.15 20.0392 433.437C20.1262 433.727 20.0762 434.053 19.8022 434.334ZM18.3882 433.895C18.2272 433.73 18.0602 433.578 17.8872 433.439C18.0592 433.3 18.2272 433.148 18.3882 432.983C18.9922 432.363 19.8472 432.808 20.0392 433.439C19.8472 434.07 18.9912 434.515 18.3882 433.895Z" fill="#B04C7E"/>
<path d="M21.2212 429.541C18.9322 426.319 15.1912 424.9 11.1962 425.669C9.93516 425.912 10.4692 427.754 11.7282 427.512C14.7942 426.922 17.7412 428.037 19.4952 430.506C20.2132 431.517 21.9472 430.562 21.2212 429.541Z" fill="#B04C7E"/>
<path d="M21.2212 437.338C18.9322 440.56 15.1912 441.979 11.1962 441.21C9.93516 440.967 10.4692 439.125 11.7282 439.367C14.7942 439.957 17.7412 438.842 19.4952 436.373C20.2132 435.362 21.9472 436.317 21.2212 437.338Z" fill="#B04C7E"/>
<path d="M23.1051 425.083C22.1571 421.73 19.4601 419.116 15.9731 418.144C14.7351 417.799 14.2061 419.642 15.4411 419.987C18.2671 420.775 20.4091 422.879 21.1761 425.591C21.5121 426.777 23.4421 426.274 23.1051 425.083Z" fill="#B04C7E"/>
<path d="M23.1051 441.795C22.1571 445.148 19.4601 447.762 15.9731 448.734C14.7351 449.079 14.2061 447.236 15.4411 446.891C18.2671 446.103 20.4091 443.999 21.1761 441.286C21.5121 440.101 23.4421 440.605 23.1051 441.795Z" fill="#B04C7E"/>
<path d="M26.0529 420.468C25.3259 417.776 23.7719 415.405 21.5259 413.633C20.5409 412.856 19.1179 414.2 20.1119 414.984C22.1089 416.56 23.4769 418.577 24.1249 420.975C24.4459 422.165 26.3759 421.661 26.0529 420.468Z" fill="#B04C7E"/>
<path d="M26.0529 446.411C25.3259 449.103 23.7719 451.473 21.5259 453.246C20.5409 454.023 19.1179 452.679 20.1119 451.895C22.1089 450.319 23.4769 448.302 24.1249 445.904C24.4459 444.713 26.3759 445.218 26.0529 446.411Z" fill="#B04C7E"/>
<path d="M29.5182 418.336C29.9842 415.728 29.5102 413.181 28.0292 410.933C27.3452 409.895 25.6142 410.853 26.3022 411.897C27.4842 413.69 27.9642 415.728 27.5892 417.827C27.3742 419.031 29.3012 419.548 29.5182 418.336Z" fill="#B04C7E"/>
<path d="M29.5182 448.542C29.9842 451.15 29.5102 453.697 28.0292 455.944C27.3452 456.982 25.6142 456.024 26.3022 454.98C27.4842 453.187 27.9642 451.149 27.5892 449.05C27.3742 447.847 29.3012 447.331 29.5182 448.542Z" fill="#B04C7E"/>
<path d="M5.87589 433.439C5.85889 430.166 9.74288 427.783 12.7119 426.977C13.9479 426.642 13.4229 424.797 12.1799 425.135C8.75487 426.064 3.35986 429.467 3.35986 433.439C3.35986 437.411 8.75487 440.813 12.1799 441.743C13.4219 442.08 13.9479 440.236 12.7119 439.9C9.74288 439.095 5.85889 436.712 5.87589 433.439Z" fill="#B04C7E"/>
<path d="M11.4848 425.99C10.2168 423.705 10.0398 421.111 11.3748 418.806C12.6498 416.606 15.6018 414.373 18.1948 416.2C19.2318 416.93 20.2298 415.273 19.2038 414.55C16.1278 412.383 12.3258 414.25 10.2978 416.88C7.97383 419.894 7.95781 423.712 9.75681 426.954C10.3618 428.041 12.0888 427.077 11.4848 425.99Z" fill="#B04C7E"/>
<path d="M11.4848 440.888C10.2168 443.173 10.0398 445.767 11.3748 448.071C12.6498 450.271 15.6018 452.504 18.1948 450.677C19.2318 449.947 20.2298 451.604 19.2038 452.327C16.1278 454.494 12.3258 452.627 10.2978 449.997C7.97383 446.983 7.95781 443.165 9.75681 439.923C10.3618 438.837 12.0888 439.801 11.4848 440.888Z" fill="#B04C7E"/>
<path d="M19.74 414.542C19.891 412.124 20.881 409.877 22.858 408.302C25.07 406.54 29.396 405.106 31.321 408.059C32 409.101 33.731 408.142 33.048 407.094C31.001 403.953 26.905 403.992 23.713 405.512C20.045 407.259 17.98 410.7 17.741 414.541C17.663 415.77 19.664 415.766 19.74 414.542Z" fill="#B04C7E"/>
<path d="M19.74 452.336C19.891 454.754 20.881 457.001 22.858 458.576C25.07 460.338 29.396 461.772 31.321 458.819C32 457.777 33.731 458.736 33.048 459.783C31.001 462.924 26.905 462.885 23.713 461.365C20.045 459.618 17.98 456.177 17.741 452.336C17.663 451.108 19.664 451.112 19.74 452.336Z" fill="#B04C7E"/>
<path d="M1.88997 433.439C1.94997 433.328 1.99099 433.201 2.00499 433.056C2.322 429.746 5.29799 427.632 8.68099 427.95C9.96099 428.07 9.95199 426.159 8.68099 426.039C4.12999 425.611 0.414995 428.779 0.00499503 433.056C-0.00900498 433.201 0.00698013 433.328 0.0459801 433.439C0.00698013 433.549 -0.00900498 433.677 0.00499502 433.822C0.414995 438.099 4.12999 441.267 8.68099 440.839C9.95199 440.719 9.96099 438.808 8.68099 438.928C5.29799 439.246 2.32199 437.132 2.00499 433.822C1.99099 433.677 1.94997 433.55 1.88997 433.439Z" fill="#B04C7E"/>
<path d="M9.41181 425.332C6.81881 422.743 5.67483 418.698 7.59983 415.414C9.58783 412.023 15.4228 410.622 17.0068 415.204C17.4088 416.366 19.3408 415.868 18.9358 414.696C17.3118 409.997 11.2348 409.017 7.59184 412.307C3.22184 416.254 4.10981 422.799 7.99781 426.682C8.88881 427.573 10.3018 426.221 9.41181 425.332Z" fill="#B04C7E"/>
<path d="M9.41181 441.546C6.81881 444.135 5.67483 448.18 7.59983 451.464C9.58783 454.855 15.4228 456.256 17.0068 451.674C17.4088 450.512 19.3408 451.01 18.9358 452.182C17.3118 456.881 11.2348 457.861 7.59184 454.571C3.22184 450.624 4.10981 444.079 7.99781 440.196C8.88881 439.305 10.3018 440.657 9.41181 441.546Z" fill="#B04C7E"/>
<path d="M18.6368 412.781C14.9398 405.307 28.5699 398.053 30.6769 406.242C30.9839 407.436 32.9128 406.93 32.6058 405.734C31.3888 401.003 25.8628 399.568 21.6228 401.696C17.0178 404.007 14.6419 409.16 16.9109 413.746C17.4599 414.856 19.1838 413.888 18.6368 412.781Z" fill="#B04C7E"/>
<path d="M18.6368 454.098C14.9398 461.572 28.5699 468.826 30.6769 460.638C30.9839 459.445 32.9128 459.95 32.6058 461.146C31.3888 465.877 25.8628 467.312 21.6228 465.184C17.0178 462.873 14.6419 457.72 16.9109 453.134C17.4599 452.022 19.1838 452.991 18.6368 454.098Z" fill="#B04C7E"/>
<path d="M31.5459 333.415L31.5459 400.098L35.1019 400.098L35.1019 333.415L31.5459 333.415Z" fill="#B04C7E"/>
<path d="M38.9902 333.415L38.9902 400.098L44.4722 400.098L44.4722 333.415L38.9902 333.415Z" fill="#B04C7E"/>
<path d="M22.9369 366.756C22.9369 360.676 26.4069 354.595 33.3469 351.735C35.7039 350.764 33.6689 347.47 31.3279 348.435C23.0579 351.843 18.9219 359.299 18.9219 366.756C18.9219 374.213 23.0569 381.668 31.3279 385.077C33.6689 386.042 35.7039 382.749 33.3469 381.777C26.4059 378.917 22.9369 372.837 22.9369 366.756Z" fill="#B04C7E"/>
<path d="M10.999 366.756C10.999 355.123 21.283 345.882 32.603 343.795C33.865 343.562 33.331 341.72 32.071 341.952C19.937 344.189 8.91402 354.317 8.99902 366.756C8.91402 379.195 19.937 389.323 32.071 391.56C33.331 391.792 33.865 389.95 32.603 389.718C21.283 387.631 10.999 378.389 10.999 366.756Z" fill="#B04C7E"/>
<path d="M29.1611 366.756C29.1601 363.381 30.994 360.006 34.674 358.094C35.805 357.506 34.7971 355.856 33.6651 356.444C29.3461 358.688 27.1851 362.722 27.1851 366.756C27.1851 370.79 29.3461 374.824 33.6651 377.068C34.7971 377.656 35.806 376.006 34.674 375.418C30.995 373.507 29.1601 370.131 29.1611 366.756Z" fill="#B04C7E"/>
<path d="M20.0382 366.756C19.8462 366.125 18.9912 365.68 18.3872 366.3C18.2262 366.465 18.0592 366.617 17.8872 366.756C18.0592 366.895 18.2262 367.047 18.3872 367.212C18.9912 367.832 19.8462 367.387 20.0382 366.756Z" fill="#B04C7E"/>
<path d="M11.0793 367.432C11.0793 366.982 11.0793 366.531 11.0793 366.081C11.3013 366.333 11.5392 366.558 11.7872 366.757C11.5382 366.955 11.3013 367.18 11.0793 367.432C11.0793 366.982 11.0793 366.531 11.0793 366.081C11.3013 366.333 11.5392 366.558 11.7872 366.757C11.5382 366.955 11.3013 367.18 11.0793 367.432ZM19.8022 367.651C16.9822 370.546 12.3433 370.46 9.66525 367.431C9.47925 367.221 9.38525 366.988 9.38525 366.755C9.38525 366.522 9.47825 366.29 9.66525 366.079C12.3433 363.05 16.9822 362.964 19.8022 365.859C20.0762 366.141 20.1262 366.467 20.0392 366.754C20.1262 367.044 20.0762 367.37 19.8022 367.651ZM18.3882 367.212C18.2272 367.047 18.0602 366.895 17.8872 366.756C18.0592 366.617 18.2272 366.465 18.3882 366.3C18.9922 365.68 19.8472 366.125 20.0392 366.756C19.8472 367.387 18.9912 367.832 18.3882 367.212Z" fill="#B04C7E"/>
<path d="M21.2212 362.858C18.9322 359.636 15.1912 358.217 11.1962 358.986C9.93516 359.229 10.4692 361.071 11.7282 360.829C14.7942 360.239 17.7412 361.354 19.4952 363.823C20.2132 364.834 21.9472 363.879 21.2212 362.858Z" fill="#B04C7E"/>
<path d="M21.2212 370.655C18.9322 373.877 15.1912 375.296 11.1962 374.527C9.93516 374.284 10.4692 372.442 11.7282 372.684C14.7942 373.274 17.7412 372.159 19.4952 369.69C20.2132 368.679 21.9472 369.634 21.2212 370.655Z" fill="#B04C7E"/>
<path d="M23.1051 358.4C22.1571 355.047 19.4601 352.433 15.9731 351.461C14.7351 351.116 14.2061 352.959 15.4411 353.304C18.2671 354.092 20.4091 356.196 21.1761 358.908C21.5121 360.094 23.4421 359.591 23.1051 358.4Z" fill="#B04C7E"/>
<path d="M23.1051 375.112C22.1571 378.465 19.4601 381.079 15.9731 382.051C14.7351 382.396 14.2061 380.553 15.4411 380.208C18.2671 379.42 20.4091 377.316 21.1761 374.603C21.5121 373.418 23.4421 373.922 23.1051 375.112Z" fill="#B04C7E"/>
<path d="M26.0529 353.785C25.3259 351.093 23.7719 348.723 21.5259 346.95C20.5409 346.173 19.1179 347.517 20.1119 348.301C22.1089 349.877 23.4769 351.894 24.1249 354.292C24.4459 355.482 26.3759 354.978 26.0529 353.785Z" fill="#B04C7E"/>
<path d="M26.0529 379.728C25.3259 382.42 23.7719 384.791 21.5259 386.563C20.5409 387.34 19.1179 385.996 20.1119 385.212C22.1089 383.636 23.4769 381.619 24.1249 379.221C24.4459 378.03 26.3759 378.535 26.0529 379.728Z" fill="#B04C7E"/>
<path d="M29.5182 351.653C29.9842 349.045 29.5102 346.498 28.0292 344.251C27.3452 343.213 25.6142 344.171 26.3022 345.215C27.4842 347.008 27.9642 349.046 27.5892 351.145C27.3742 352.348 29.3012 352.865 29.5182 351.653Z" fill="#B04C7E"/>
<path d="M29.5182 381.859C29.9842 384.467 29.5102 387.014 28.0292 389.261C27.3452 390.299 25.6142 389.341 26.3022 388.297C27.4842 386.504 27.9642 384.466 27.5892 382.367C27.3742 381.164 29.3012 380.648 29.5182 381.859Z" fill="#B04C7E"/>
<path d="M5.87589 366.756C5.85889 363.483 9.74288 361.1 12.7119 360.295C13.9479 359.96 13.4229 358.115 12.1799 358.453C8.75487 359.382 3.35986 362.785 3.35986 366.757C3.35986 370.729 8.75487 374.132 12.1799 375.061C13.4219 375.398 13.9479 373.554 12.7119 373.218C9.74288 372.412 5.85889 370.029 5.87589 366.756Z" fill="#B04C7E"/>
<path d="M11.4848 359.307C10.2168 357.022 10.0398 354.428 11.3748 352.123C12.6498 349.923 15.6018 347.69 18.1948 349.517C19.2318 350.247 20.2298 348.59 19.2038 347.867C16.1278 345.7 12.3258 347.567 10.2978 350.197C7.97383 353.211 7.95781 357.029 9.75681 360.271C10.3618 361.358 12.0888 360.394 11.4848 359.307Z" fill="#B04C7E"/>
<path d="M11.4848 374.205C10.2168 376.49 10.0398 379.084 11.3748 381.389C12.6498 383.589 15.6018 385.822 18.1948 383.995C19.2318 383.265 20.2298 384.922 19.2038 385.645C16.1278 387.812 12.3258 385.945 10.2978 383.315C7.97383 380.301 7.95781 376.483 9.75681 373.241C10.3618 372.154 12.0888 373.118 11.4848 374.205Z" fill="#B04C7E"/>
<path d="M19.74 347.859C19.891 345.441 20.881 343.194 22.858 341.619C25.07 339.857 29.396 338.423 31.321 341.376C32 342.418 33.731 341.459 33.048 340.411C31.001 337.27 26.905 337.309 23.713 338.829C20.045 340.576 17.98 344.017 17.741 347.858C17.663 349.087 19.664 349.083 19.74 347.859Z" fill="#B04C7E"/>
<path d="M19.74 385.653C19.891 388.071 20.881 390.318 22.858 391.893C25.07 393.655 29.396 395.089 31.321 392.136C32 391.094 33.731 392.053 33.048 393.1C31.001 396.241 26.905 396.202 23.713 394.682C20.045 392.935 17.98 389.494 17.741 385.653C17.663 384.425 19.664 384.429 19.74 385.653Z" fill="#B04C7E"/>
<path d="M1.88997 366.756C1.94997 366.645 1.99099 366.518 2.00499 366.373C2.322 363.063 5.29799 360.949 8.68099 361.267C9.96099 361.387 9.95199 359.476 8.68099 359.356C4.12999 358.928 0.414995 362.096 0.00499503 366.373C-0.00900498 366.518 0.00698013 366.645 0.0459801 366.756C0.00698013 366.866 -0.00900498 366.994 0.00499502 367.139C0.414995 371.416 4.12999 374.584 8.68099 374.156C9.95199 374.036 9.96099 372.125 8.68099 372.245C5.29799 372.563 2.32199 370.449 2.00499 367.139C1.99099 366.994 1.94997 366.867 1.88997 366.756Z" fill="#B04C7E"/>
<path d="M9.41181 358.649C6.81881 356.06 5.67483 352.015 7.59983 348.732C9.58783 345.341 15.4228 343.94 17.0068 348.522C17.4088 349.684 19.3408 349.186 18.9358 348.014C17.3118 343.315 11.2348 342.335 7.59184 345.625C3.22184 349.572 4.10981 356.117 7.99781 360C8.88881 360.891 10.3018 359.538 9.41181 358.649Z" fill="#B04C7E"/>
<path d="M9.41181 374.863C6.81881 377.452 5.67483 381.497 7.59983 384.781C9.58783 388.172 15.4228 389.573 17.0068 384.99C17.4088 383.828 19.3408 384.326 18.9358 385.498C17.3118 390.197 11.2348 391.177 7.59184 387.887C3.22184 383.94 4.10981 377.395 7.99781 373.512C8.88881 372.622 10.3018 373.974 9.41181 374.863Z" fill="#B04C7E"/>
<path d="M18.6368 346.098C14.9398 338.624 28.5699 331.37 30.6769 339.558C30.9839 340.752 32.9128 340.246 32.6058 339.05C31.3888 334.319 25.8628 332.884 21.6228 335.012C17.0178 337.323 14.6419 342.476 16.9109 347.062C17.4599 348.173 19.1838 347.205 18.6368 346.098Z" fill="#B04C7E"/>
<path d="M18.6368 387.415C14.9398 394.889 28.5699 402.143 30.6769 393.954C30.9839 392.76 32.9128 393.266 32.6058 394.462C31.3888 399.193 25.8628 400.628 21.6228 398.5C17.0178 396.189 14.6419 391.036 16.9109 386.45C17.4599 385.339 19.1838 386.308 18.6368 387.415Z" fill="#B04C7E"/>
<path d="M31.5459 266.732L31.5459 333.415L35.1019 333.415L35.1019 266.732L31.5459 266.732Z" fill="#B04C7E"/>
<path d="M38.9902 266.732L38.9902 333.415L44.4722 333.415L44.4722 266.732L38.9902 266.732Z" fill="#B04C7E"/>
<path d="M22.9369 300.073C22.9369 293.993 26.4069 287.912 33.3469 285.052C35.7039 284.081 33.6689 280.787 31.3279 281.752C23.0579 285.16 18.9219 292.617 18.9219 300.073C18.9219 307.529 23.0569 314.985 31.3279 318.394C33.6689 319.359 35.7039 316.066 33.3469 315.094C26.4059 312.234 22.9369 306.154 22.9369 300.073Z" fill="#B04C7E"/>
<path d="M10.999 300.073C10.999 288.44 21.283 279.199 32.603 277.112C33.865 276.879 33.331 275.037 32.071 275.269C19.937 277.506 8.91402 287.634 8.99902 300.073C8.91402 312.512 19.937 322.64 32.071 324.877C33.331 325.109 33.865 323.267 32.603 323.034C21.283 320.948 10.999 311.706 10.999 300.073Z" fill="#B04C7E"/>
<path d="M29.1611 300.073C29.1601 296.698 30.994 293.322 34.674 291.411C35.805 290.823 34.7971 289.173 33.6651 289.761C29.3461 292.005 27.1851 296.039 27.1851 300.073C27.1851 304.107 29.3461 308.141 33.6651 310.385C34.7971 310.973 35.806 309.323 34.674 308.735C30.995 306.824 29.1601 303.448 29.1611 300.073Z" fill="#B04C7E"/>
<path d="M20.0382 300.073C19.8462 299.442 18.9912 298.997 18.3872 299.617C18.2262 299.782 18.0592 299.934 17.8872 300.073C18.0592 300.212 18.2262 300.364 18.3872 300.529C18.9912 301.149 19.8462 300.704 20.0382 300.073Z" fill="#B04C7E"/>
<path d="M11.0793 300.749C11.0793 300.299 11.0793 299.848 11.0793 299.398C11.3013 299.65 11.5392 299.875 11.7872 300.074C11.5382 300.272 11.3013 300.497 11.0793 300.749C11.0793 300.299 11.0793 299.848 11.0793 299.398C11.3013 299.65 11.5392 299.875 11.7872 300.074C11.5382 300.272 11.3013 300.497 11.0793 300.749ZM19.8022 300.968C16.9822 303.863 12.3433 303.777 9.66525 300.748C9.47925 300.538 9.38525 300.305 9.38525 300.072C9.38525 299.839 9.47825 299.607 9.66525 299.396C12.3433 296.367 16.9822 296.281 19.8022 299.176C20.0762 299.458 20.1262 299.784 20.0392 300.071C20.1262 300.361 20.0762 300.687 19.8022 300.968ZM18.3882 300.529C18.2272 300.364 18.0602 300.212 17.8872 300.073C18.0592 299.934 18.2272 299.782 18.3882 299.617C18.9922 298.997 19.8472 299.442 20.0392 300.073C19.8472 300.704 18.9912 301.149 18.3882 300.529Z" fill="#B04C7E"/>
<path d="M21.2212 296.175C18.9322 292.953 15.1912 291.534 11.1962 292.303C9.93516 292.546 10.4692 294.388 11.7282 294.145C14.7942 293.555 17.7412 294.67 19.4952 297.139C20.2132 298.151 21.9472 297.196 21.2212 296.175Z" fill="#B04C7E"/>
<path d="M21.2212 303.972C18.9322 307.194 15.1912 308.613 11.1962 307.844C9.93516 307.601 10.4692 305.759 11.7282 306.001C14.7942 306.591 17.7412 305.476 19.4952 303.007C20.2132 301.996 21.9472 302.951 21.2212 303.972Z" fill="#B04C7E"/>
<path d="M23.1051 291.717C22.1571 288.364 19.4601 285.75 15.9731 284.778C14.7351 284.433 14.2061 286.276 15.4411 286.621C18.2671 287.409 20.4091 289.513 21.1761 292.226C21.5121 293.411 23.4421 292.908 23.1051 291.717Z" fill="#B04C7E"/>
<path d="M23.1051 308.429C22.1571 311.782 19.4601 314.396 15.9731 315.368C14.7351 315.713 14.2061 313.87 15.4411 313.525C18.2671 312.737 20.4091 310.633 21.1761 307.921C21.5121 306.735 23.4421 307.239 23.1051 308.429Z" fill="#B04C7E"/>
<path d="M26.0529 287.102C25.3259 284.41 23.7719 282.04 21.5259 280.267C20.5409 279.49 19.1179 280.834 20.1119 281.618C22.1089 283.194 23.4769 285.211 24.1249 287.609C24.4459 288.799 26.3759 288.295 26.0529 287.102Z" fill="#B04C7E"/>
<path d="M26.0529 313.045C25.3259 315.737 23.7719 318.108 21.5259 319.88C20.5409 320.657 19.1179 319.313 20.1119 318.529C22.1089 316.953 23.4769 314.936 24.1249 312.538C24.4459 311.347 26.3759 311.852 26.0529 313.045Z" fill="#B04C7E"/>
<path d="M29.5182 284.97C29.9842 282.362 29.5102 279.815 28.0292 277.568C27.3452 276.53 25.6142 277.488 26.3022 278.532C27.4842 280.325 27.9642 282.363 27.5892 284.462C27.3742 285.665 29.3012 286.182 29.5182 284.97Z" fill="#B04C7E"/>
<path d="M29.5182 315.176C29.9842 317.784 29.5102 320.331 28.0292 322.578C27.3452 323.616 25.6142 322.658 26.3022 321.614C27.4842 319.821 27.9642 317.783 27.5892 315.684C27.3742 314.481 29.3012 313.965 29.5182 315.176Z" fill="#B04C7E"/>
<path d="M5.87589 300.073C5.85889 296.8 9.74288 294.417 12.7119 293.612C13.9479 293.277 13.4229 291.432 12.1799 291.769C8.75487 292.698 3.35986 296.101 3.35986 300.073C3.35986 304.045 8.75487 307.448 12.1799 308.377C13.4219 308.714 13.9479 306.87 12.7119 306.534C9.74288 305.729 5.85889 303.346 5.87589 300.073Z" fill="#B04C7E"/>
<path d="M11.4848 292.624C10.2168 290.339 10.0398 287.745 11.3748 285.44C12.6498 283.24 15.6018 281.007 18.1948 282.834C19.2318 283.564 20.2298 281.907 19.2038 281.184C16.1278 279.017 12.3258 280.884 10.2978 283.514C7.97383 286.528 7.95781 290.346 9.75681 293.588C10.3618 294.675 12.0888 293.711 11.4848 292.624Z" fill="#B04C7E"/>
<path d="M11.4848 307.522C10.2168 309.806 10.0398 312.401 11.3748 314.706C12.6498 316.906 15.6018 319.139 18.1948 317.312C19.2318 316.582 20.2298 318.239 19.2038 318.962C16.1278 321.129 12.3258 319.262 10.2978 316.632C7.97383 313.617 7.95781 309.8 9.75681 306.558C10.3618 305.471 12.0888 306.435 11.4848 307.522Z" fill="#B04C7E"/>
<path d="M19.74 281.176C19.891 278.758 20.881 276.511 22.858 274.936C25.07 273.174 29.396 271.74 31.321 274.693C32 275.735 33.731 274.776 33.048 273.729C31.001 270.588 26.905 270.627 23.713 272.147C20.045 273.894 17.98 277.335 17.741 281.177C17.663 282.405 19.664 282.4 19.74 281.176Z" fill="#B04C7E"/>
<path d="M19.74 318.97C19.891 321.388 20.881 323.635 22.858 325.21C25.07 326.972 29.396 328.406 31.321 325.453C32 324.411 33.731 325.37 33.048 326.418C31.001 329.559 26.905 329.52 23.713 328C20.045 326.253 17.98 322.812 17.741 318.971C17.663 317.742 19.664 317.746 19.74 318.97Z" fill="#B04C7E"/>
<path d="M1.88997 300.073C1.94997 299.962 1.99099 299.835 2.00499 299.69C2.322 296.38 5.29799 294.266 8.68099 294.584C9.96099 294.704 9.95199 292.793 8.68099 292.673C4.12999 292.245 0.414995 295.413 0.00499503 299.69C-0.00900498 299.835 0.00698013 299.962 0.0459801 300.073C0.00698013 300.183 -0.00900498 300.311 0.00499502 300.456C0.414995 304.733 4.12999 307.901 8.68099 307.473C9.95199 307.353 9.96099 305.442 8.68099 305.562C5.29799 305.88 2.32199 303.766 2.00499 300.456C1.99099 300.311 1.94997 300.184 1.88997 300.073Z" fill="#B04C7E"/>
<path d="M9.41181 291.966C6.81881 289.377 5.67483 285.332 7.59983 282.048C9.58783 278.657 15.4228 277.256 17.0068 281.838C17.4088 283 19.3408 282.502 18.9358 281.33C17.3118 276.631 11.2348 275.651 7.59184 278.941C3.22184 282.888 4.10981 289.433 7.99781 293.316C8.88881 294.207 10.3018 292.855 9.41181 291.966Z" fill="#B04C7E"/>
<path d="M9.41181 308.18C6.81881 310.769 5.67483 314.814 7.59983 318.098C9.58783 321.489 15.4228 322.89 17.0068 318.308C17.4088 317.146 19.3408 317.644 18.9358 318.816C17.3118 323.515 11.2348 324.495 7.59184 321.205C3.22184 317.258 4.10981 310.713 7.99781 306.83C8.88881 305.939 10.3018 307.291 9.41181 308.18Z" fill="#B04C7E"/>
<path d="M18.6368 279.415C14.9398 271.941 28.5699 264.687 30.6769 272.876C30.9839 274.07 32.9128 273.564 32.6058 272.368C31.3888 267.637 25.8628 266.202 21.6228 268.33C17.0178 270.641 14.6419 275.794 16.9109 280.38C17.4599 281.49 19.1838 280.522 18.6368 279.415Z" fill="#B04C7E"/>
<path d="M18.6368 320.732C14.9398 328.206 28.5699 335.46 30.6769 327.271C30.9839 326.078 32.9128 326.583 32.6058 327.779C31.3888 332.51 25.8628 333.945 21.6228 331.817C17.0178 329.506 14.6419 324.353 16.9109 319.767C17.4599 318.656 19.1838 319.625 18.6368 320.732Z" fill="#B04C7E"/>
<path d="M31.5459 200.049L31.5459 266.732L35.1019 266.732L35.1019 200.049L31.5459 200.049Z" fill="#B04C7E"/>
<path d="M38.9902 200.049L38.9902 266.732L44.4722 266.732L44.4722 200.049L38.9902 200.049Z" fill="#B04C7E"/>
<path d="M22.9369 233.39C22.9369 227.31 26.4069 221.229 33.3469 218.369C35.7039 217.398 33.6689 214.104 31.3279 215.069C23.0579 218.477 18.9219 225.933 18.9219 233.39C18.9219 240.846 23.0569 248.302 31.3279 251.711C33.6689 252.676 35.7039 249.383 33.3469 248.411C26.4059 245.551 22.9369 239.471 22.9369 233.39Z" fill="#B04C7E"/>
<path d="M10.999 233.39C10.999 221.757 21.283 212.516 32.603 210.429C33.865 210.196 33.331 208.354 32.071 208.586C19.937 210.823 8.91402 220.951 8.99902 233.39C8.91402 245.829 19.937 255.957 32.071 258.194C33.331 258.426 33.865 256.584 32.603 256.351C21.283 254.265 10.999 245.023 10.999 233.39Z" fill="#B04C7E"/>
<path d="M29.1611 233.39C29.1601 230.015 30.994 226.639 34.674 224.728C35.805 224.14 34.7971 222.49 33.6651 223.078C29.3461 225.322 27.1851 229.356 27.1851 233.39C27.1851 237.424 29.3461 241.458 33.6651 243.702C34.7971 244.29 35.806 242.64 34.674 242.052C30.995 240.141 29.1601 236.765 29.1611 233.39Z" fill="#B04C7E"/>
<path d="M20.0382 233.39C19.8462 232.759 18.9912 232.314 18.3872 232.934C18.2262 233.099 18.0592 233.251 17.8872 233.39C18.0592 233.529 18.2262 233.681 18.3872 233.846C18.9912 234.466 19.8462 234.021 20.0382 233.39Z" fill="#B04C7E"/>
<path d="M11.0793 234.066C11.0793 233.616 11.0793 233.165 11.0793 232.715C11.3013 232.967 11.5392 233.192 11.7872 233.391C11.5382 233.589 11.3013 233.814 11.0793 234.066C11.0793 233.616 11.0793 233.165 11.0793 232.715C11.3013 232.967 11.5392 233.192 11.7872 233.391C11.5382 233.589 11.3013 233.814 11.0793 234.066ZM19.8022 234.285C16.9822 237.18 12.3433 237.094 9.66525 234.065C9.47925 233.855 9.38525 233.622 9.38525 233.389C9.38525 233.156 9.47825 232.924 9.66525 232.713C12.3433 229.684 16.9822 229.598 19.8022 232.493C20.0762 232.775 20.1262 233.101 20.0392 233.388C20.1262 233.678 20.0762 234.004 19.8022 234.285ZM18.3882 233.846C18.2272 233.681 18.0602 233.529 17.8872 233.39C18.0592 233.251 18.2272 233.099 18.3882 232.934C18.9922 232.314 19.8472 232.759 20.0392 233.39C19.8472 234.021 18.9912 234.466 18.3882 233.846Z" fill="#B04C7E"/>
<path d="M21.2212 229.491C18.9322 226.269 15.1912 224.85 11.1962 225.619C9.93516 225.862 10.4692 227.704 11.7282 227.461C14.7942 226.871 17.7412 227.986 19.4952 230.455C20.2132 231.468 21.9472 230.513 21.2212 229.491Z" fill="#B04C7E"/>
<path d="M21.2212 237.289C18.9322 240.511 15.1912 241.93 11.1962 241.161C9.93516 240.918 10.4692 239.076 11.7282 239.318C14.7942 239.908 17.7412 238.793 19.4952 236.324C20.2132 235.313 21.9472 236.268 21.2212 237.289Z" fill="#B04C7E"/>
<path d="M23.1051 225.034C22.1571 221.681 19.4601 219.067 15.9731 218.095C14.7351 217.75 14.2061 219.593 15.4411 219.938C18.2671 220.726 20.4091 222.831 21.1761 225.543C21.5121 226.728 23.4421 226.225 23.1051 225.034Z" fill="#B04C7E"/>
<path d="M23.1051 241.746C22.1571 245.099 19.4601 247.713 15.9731 248.685C14.7351 249.03 14.2061 247.187 15.4411 246.842C18.2671 246.054 20.4091 243.949 21.1761 241.237C21.5121 240.052 23.4421 240.556 23.1051 241.746Z" fill="#B04C7E"/>
<path d="M26.0529 220.419C25.3259 217.727 23.7719 215.356 21.5259 213.584C20.5409 212.807 19.1179 214.151 20.1119 214.935C22.1089 216.511 23.4769 218.528 24.1249 220.926C24.4459 222.116 26.3759 221.612 26.0529 220.419Z" fill="#B04C7E"/>
<path d="M26.0529 246.362C25.3259 249.054 23.7719 251.425 21.5259 253.197C20.5409 253.974 19.1179 252.63 20.1119 251.846C22.1089 250.27 23.4769 248.253 24.1249 245.855C24.4459 244.664 26.3759 245.168 26.0529 246.362Z" fill="#B04C7E"/>
<path d="M29.5182 218.287C29.9842 215.679 29.5102 213.132 28.0292 210.885C27.3452 209.847 25.6142 210.805 26.3022 211.849C27.4842 213.642 27.9642 215.68 27.5892 217.779C27.3742 218.982 29.3012 219.499 29.5182 218.287Z" fill="#B04C7E"/>
<path d="M29.5182 248.493C29.9842 251.101 29.5102 253.647 28.0292 255.895C27.3452 256.933 25.6142 255.975 26.3022 254.93C27.4842 253.137 27.9642 251.099 27.5892 249C27.3742 247.798 29.3012 247.282 29.5182 248.493Z" fill="#B04C7E"/>
<path d="M5.87589 233.39C5.85889 230.117 9.74288 227.734 12.7119 226.929C13.9479 226.594 13.4229 224.749 12.1799 225.086C8.75487 226.016 3.35986 229.418 3.35986 233.39C3.35986 237.362 8.75487 240.765 12.1799 241.694C13.4219 242.031 13.9479 240.187 12.7119 239.851C9.74288 239.046 5.85889 236.663 5.87589 233.39Z" fill="#B04C7E"/>
<path d="M11.4848 225.941C10.2168 223.656 10.0398 221.062 11.3748 218.758C12.6498 216.558 15.6018 214.325 18.1948 216.152C19.2318 216.883 20.2298 215.225 19.2038 214.502C16.1278 212.335 12.3258 214.202 10.2978 216.832C7.97383 219.846 7.95781 223.664 9.75681 226.906C10.3618 227.992 12.0888 227.028 11.4848 225.941Z" fill="#B04C7E"/>
<path d="M11.4848 240.839C10.2168 243.124 10.0398 245.718 11.3748 248.022C12.6498 250.222 15.6018 252.455 18.1948 250.628C19.2318 249.898 20.2298 251.555 19.2038 252.278C16.1278 254.445 12.3258 252.578 10.2978 249.948C7.97383 246.933 7.95781 243.116 9.75681 239.874C10.3618 238.788 12.0888 239.752 11.4848 240.839Z" fill="#B04C7E"/>
<path d="M19.74 214.493C19.891 212.075 20.881 209.828 22.858 208.253C25.07 206.491 29.396 205.057 31.321 208.01C32 209.052 33.731 208.093 33.048 207.046C31.001 203.905 26.905 203.944 23.713 205.464C20.045 207.211 17.98 210.652 17.741 214.493C17.663 215.722 19.664 215.717 19.74 214.493Z" fill="#B04C7E"/>
<path d="M19.74 252.287C19.891 254.705 20.881 256.952 22.858 258.527C25.07 260.289 29.396 261.723 31.321 258.77C32 257.728 33.731 258.687 33.048 259.734C31.001 262.875 26.905 262.836 23.713 261.316C20.045 259.569 17.98 256.128 17.741 252.287C17.663 251.059 19.664 251.063 19.74 252.287Z" fill="#B04C7E"/>
<path d="M1.88997 233.39C1.94997 233.28 1.99099 233.152 2.00499 233.007C2.322 229.697 5.29799 227.583 8.68099 227.901C9.96099 228.021 9.95199 226.11 8.68099 225.99C4.12999 225.562 0.414995 228.73 0.00499503 233.007C-0.00900498 233.152 0.00698013 233.279 0.0459801 233.39C0.00698013 233.5 -0.00900498 233.628 0.00499502 233.773C0.414995 238.05 4.12999 241.218 8.68099 240.79C9.95199 240.67 9.96099 238.759 8.68099 238.879C5.29799 239.197 2.32199 237.083 2.00499 233.773C1.99099 233.628 1.94997 233.501 1.88997 233.39Z" fill="#B04C7E"/>
<path d="M9.41181 225.283C6.81881 222.694 5.67483 218.649 7.59983 215.365C9.58783 211.974 15.4228 210.573 17.0068 215.155C17.4088 216.317 19.3408 215.819 18.9358 214.647C17.3118 209.948 11.2348 208.968 7.59184 212.258C3.22184 216.205 4.10981 222.75 7.99781 226.633C8.88881 227.525 10.3018 226.172 9.41181 225.283Z" fill="#B04C7E"/>
<path d="M9.41181 241.497C6.81881 244.086 5.67483 248.131 7.59983 251.415C9.58783 254.806 15.4228 256.207 17.0068 251.624C17.4088 250.462 19.3408 250.96 18.9358 252.132C17.3118 256.831 11.2348 257.811 7.59184 254.521C3.22184 250.574 4.10981 244.029 7.99781 240.146C8.88881 239.256 10.3018 240.608 9.41181 241.497Z" fill="#B04C7E"/>
<path d="M18.6368 212.732C14.9398 205.258 28.5699 198.004 30.6769 206.192C30.9839 207.386 32.9128 206.88 32.6058 205.684C31.3888 200.953 25.8628 199.518 21.6228 201.646C17.0178 203.957 14.6419 209.11 16.9109 213.696C17.4599 214.807 19.1838 213.839 18.6368 212.732Z" fill="#B04C7E"/>
<path d="M18.6368 254.049C14.9398 261.523 28.5699 268.777 30.6769 260.588C30.9839 259.394 32.9128 259.9 32.6058 261.096C31.3888 265.827 25.8628 267.262 21.6228 265.134C17.0178 262.823 14.6419 257.67 16.9109 253.084C17.4599 251.973 19.1838 252.942 18.6368 254.049Z" fill="#B04C7E"/>
<path d="M31.5459 133.366L31.5459 200.049L35.1019 200.049L35.1019 133.366L31.5459 133.366Z" fill="#B04C7E"/>
<path d="M38.9902 133.366L38.9902 200.049L44.4722 200.049L44.4722 133.366L38.9902 133.366Z" fill="#B04C7E"/>
<path d="M22.9369 166.707C22.9369 160.627 26.4069 154.546 33.3469 151.686C35.7039 150.715 33.6689 147.421 31.3279 148.386C23.0579 151.794 18.9219 159.25 18.9219 166.707C18.9219 174.163 23.0569 181.619 31.3279 185.028C33.6689 185.993 35.7039 182.7 33.3469 181.728C26.4059 178.868 22.9369 172.788 22.9369 166.707Z" fill="#B04C7E"/>
<path d="M10.999 166.707C10.999 155.074 21.283 145.833 32.603 143.746C33.865 143.513 33.331 141.671 32.071 141.903C19.937 144.14 8.91402 154.268 8.99902 166.707C8.91402 179.146 19.937 189.274 32.071 191.511C33.331 191.743 33.865 189.901 32.603 189.668C21.283 187.582 10.999 178.34 10.999 166.707Z" fill="#B04C7E"/>
<path d="M29.1611 166.707C29.1601 163.332 30.994 159.956 34.674 158.045C35.805 157.457 34.7971 155.807 33.6651 156.395C29.3461 158.639 27.1851 162.673 27.1851 166.707C27.1851 170.741 29.3461 174.775 33.6651 177.019C34.7971 177.607 35.806 175.957 34.674 175.369C30.995 173.458 29.1601 170.082 29.1611 166.707Z" fill="#B04C7E"/>
<path d="M20.0382 166.707C19.8462 166.076 18.9912 165.631 18.3872 166.251C18.2262 166.416 18.0592 166.568 17.8872 166.707C18.0592 166.846 18.2262 166.998 18.3872 167.163C18.9912 167.783 19.8462 167.338 20.0382 166.707Z" fill="#B04C7E"/>
<path d="M11.0793 167.383C11.0793 166.933 11.0793 166.482 11.0793 166.032C11.3013 166.284 11.5392 166.509 11.7872 166.708C11.5382 166.906 11.3013 167.131 11.0793 167.383C11.0793 166.933 11.0793 166.482 11.0793 166.032C11.3013 166.284 11.5392 166.509 11.7872 166.708C11.5382 166.906 11.3013 167.131 11.0793 167.383ZM19.8022 167.603C16.9822 170.498 12.3433 170.412 9.66525 167.383C9.47925 167.173 9.38525 166.94 9.38525 166.708C9.38525 166.475 9.47825 166.243 9.66525 166.032C12.3433 163.003 16.9822 162.917 19.8022 165.812C20.0762 166.094 20.1262 166.42 20.0392 166.707C20.1262 166.995 20.0762 167.321 19.8022 167.603ZM18.3882 167.163C18.2272 166.998 18.0602 166.846 17.8872 166.707C18.0592 166.568 18.2272 166.416 18.3882 166.251C18.9922 165.631 19.8472 166.076 20.0392 166.707C19.8472 167.338 18.9912 167.783 18.3882 167.163Z" fill="#B04C7E"/>
<path d="M21.2212 162.809C18.9322 159.587 15.1912 158.168 11.1962 158.937C9.93516 159.18 10.4692 161.022 11.7282 160.78C14.7942 160.19 17.7412 161.305 19.4952 163.774C20.2132 164.785 21.9472 163.83 21.2212 162.809Z" fill="#B04C7E"/>
<path d="M21.2212 170.606C18.9322 173.828 15.1912 175.247 11.1962 174.478C9.93516 174.235 10.4692 172.393 11.7282 172.635C14.7942 173.225 17.7412 172.11 19.4952 169.641C20.2132 168.63 21.9472 169.585 21.2212 170.606Z" fill="#B04C7E"/>
<path d="M23.1051 158.351C22.1571 154.998 19.4601 152.384 15.9731 151.412C14.7351 151.067 14.2061 152.91 15.4411 153.255C18.2671 154.043 20.4091 156.147 21.1761 158.86C21.5121 160.045 23.4421 159.542 23.1051 158.351Z" fill="#B04C7E"/>
<path d="M23.1051 175.063C22.1571 178.416 19.4601 181.03 15.9731 182.002C14.7351 182.347 14.2061 180.504 15.4411 180.16C18.2671 179.372 20.4091 177.267 21.1761 174.555C21.5121 173.369 23.4421 173.873 23.1051 175.063Z" fill="#B04C7E"/>
<path d="M26.0529 153.736C25.3259 151.044 23.7719 148.673 21.5259 146.901C20.5409 146.124 19.1179 147.468 20.1119 148.252C22.1089 149.828 23.4769 151.845 24.1249 154.243C24.4459 155.433 26.3759 154.929 26.0529 153.736Z" fill="#B04C7E"/>
<path d="M26.0529 179.679C25.3259 182.371 23.7719 184.742 21.5259 186.514C20.5409 187.291 19.1179 185.947 20.1119 185.163C22.1089 183.587 23.4769 181.57 24.1249 179.172C24.4459 177.981 26.3759 178.486 26.0529 179.679Z" fill="#B04C7E"/>
<path d="M29.5182 151.604C29.9842 148.996 29.5102 146.449 28.0292 144.201C27.3452 143.163 25.6142 144.121 26.3022 145.165C27.4842 146.958 27.9642 148.996 27.5892 151.095C27.3742 152.299 29.3012 152.816 29.5182 151.604Z" fill="#B04C7E"/>
<path d="M29.5182 181.81C29.9842 184.418 29.5102 186.964 28.0292 189.212C27.3452 190.25 25.6142 189.292 26.3022 188.248C27.4842 186.455 27.9642 184.417 27.5892 182.318C27.3742 181.116 29.3012 180.599 29.5182 181.81Z" fill="#B04C7E"/>
<path d="M5.87589 166.707C5.85889 163.434 9.74288 161.051 12.7119 160.246C13.9479 159.911 13.4229 158.066 12.1799 158.403C8.75487 159.333 3.35986 162.735 3.35986 166.707C3.35986 170.679 8.75487 174.082 12.1799 175.011C13.4219 175.348 13.9479 173.504 12.7119 173.168C9.74288 172.363 5.85889 169.98 5.87589 166.707Z" fill="#B04C7E"/>
<path d="M11.4848 159.258C10.2168 156.973 10.0398 154.379 11.3748 152.074C12.6498 149.874 15.6018 147.641 18.1948 149.468C19.2318 150.199 20.2298 148.541 19.2038 147.818C16.1278 145.651 12.3258 147.518 10.2978 150.148C7.97383 153.162 7.95781 156.98 9.75681 160.222C10.3618 161.309 12.0888 160.345 11.4848 159.258Z" fill="#B04C7E"/>
<path d="M11.4848 174.156C10.2168 176.441 10.0398 179.035 11.3748 181.34C12.6498 183.54 15.6018 185.773 18.1948 183.946C19.2318 183.216 20.2298 184.873 19.2038 185.596C16.1278 187.763 12.3258 185.896 10.2978 183.266C7.97383 180.252 7.95781 176.434 9.75681 173.192C10.3618 172.105 12.0888 173.069 11.4848 174.156Z" fill="#B04C7E"/>
<path d="M19.74 147.81C19.891 145.392 20.881 143.145 22.858 141.57C25.07 139.808 29.396 138.374 31.321 141.327C32 142.369 33.731 141.41 33.048 140.363C31.001 137.222 26.905 137.261 23.713 138.781C20.045 140.528 17.98 143.969 17.741 147.81C17.663 149.038 19.664 149.034 19.74 147.81Z" fill="#B04C7E"/>
<path d="M19.74 185.604C19.891 188.022 20.881 190.269 22.858 191.844C25.07 193.606 29.396 195.04 31.321 192.087C32 191.045 33.731 192.004 33.048 193.051C31.001 196.192 26.905 196.153 23.713 194.633C20.045 192.886 17.98 189.445 17.741 185.604C17.663 184.376 19.664 184.38 19.74 185.604Z" fill="#B04C7E"/>
<path d="M1.88997 166.707C1.94997 166.597 1.99099 166.469 2.00499 166.324C2.322 163.014 5.29799 160.9 8.68099 161.218C9.96099 161.338 9.95199 159.427 8.68099 159.307C4.12999 158.879 0.414995 162.047 0.00499503 166.324C-0.00900498 166.469 0.00698013 166.596 0.0459801 166.707C0.00698013 166.817 -0.00900498 166.945 0.00499502 167.09C0.414995 171.367 4.12999 174.535 8.68099 174.107C9.95199 173.987 9.96099 172.076 8.68099 172.196C5.29799 172.514 2.32199 170.4 2.00499 167.09C1.99099 166.945 1.94997 166.818 1.88997 166.707Z" fill="#B04C7E"/>
<path d="M9.41181 158.6C6.81881 156.011 5.67483 151.966 7.59983 148.682C9.58783 145.291 15.4228 143.89 17.0068 148.472C17.4088 149.634 19.3408 149.136 18.9358 147.964C17.3118 143.265 11.2348 142.285 7.59184 145.575C3.22184 149.522 4.10981 156.067 7.99781 159.95C8.88881 160.842 10.3018 159.489 9.41181 158.6Z" fill="#B04C7E"/>
<path d="M9.41181 174.814C6.81881 177.403 5.67483 181.448 7.59983 184.732C9.58783 188.123 15.4228 189.524 17.0068 184.941C17.4088 183.779 19.3408 184.277 18.9358 185.449C17.3118 190.148 11.2348 191.128 7.59184 187.838C3.22184 183.891 4.10981 177.346 7.99781 173.463C8.88881 172.573 10.3018 173.925 9.41181 174.814Z" fill="#B04C7E"/>
<path d="M18.6368 146.049C14.9398 138.575 28.5699 131.321 30.6769 139.509C30.9839 140.703 32.9128 140.197 32.6058 139.001C31.3888 134.27 25.8628 132.835 21.6228 134.963C17.0178 137.274 14.6419 142.427 16.9109 147.013C17.4599 148.124 19.1838 147.156 18.6368 146.049Z" fill="#B04C7E"/>
<path d="M18.6368 187.366C14.9398 194.84 28.5699 202.094 30.6769 193.905C30.9839 192.711 32.9128 193.217 32.6058 194.413C31.3888 199.144 25.8628 200.579 21.6228 198.451C17.0178 196.14 14.6419 190.987 16.9109 186.401C17.4599 185.29 19.1838 186.259 18.6368 187.366Z" fill="#B04C7E"/>
<path d="M31.5459 66.683L31.5459 133.366L35.1019 133.366L35.1019 66.683L31.5459 66.683Z" fill="#B04C7E"/>
<path d="M38.9902 66.683L38.9902 133.366L44.4722 133.366L44.4722 66.683L38.9902 66.683Z" fill="#B04C7E"/>
<path d="M22.9369 100.024C22.9369 93.944 26.4069 87.863 33.3469 85.003C35.7039 84.032 33.6689 80.738 31.3279 81.703C23.0579 85.111 18.9219 92.567 18.9219 100.024C18.9219 107.48 23.0569 114.936 31.3279 118.345C33.6689 119.31 35.7039 116.017 33.3469 115.045C26.4059 112.185 22.9369 106.105 22.9369 100.024Z" fill="#B04C7E"/>
<path d="M10.999 100.024C10.999 88.391 21.283 79.15 32.603 77.063C33.865 76.83 33.331 74.988 32.071 75.22C19.937 77.457 8.91402 87.585 8.99902 100.024C8.91402 112.463 19.937 122.591 32.071 124.828C33.331 125.06 33.865 123.218 32.603 122.986C21.283 120.899 10.999 111.657 10.999 100.024Z" fill="#B04C7E"/>
<path d="M29.1611 100.024C29.1601 96.649 30.994 93.273 34.674 91.362C35.805 90.774 34.7971 89.124 33.6651 89.712C29.3461 91.956 27.1851 95.99 27.1851 100.024C27.1851 104.058 29.3461 108.092 33.6651 110.336C34.7971 110.924 35.806 109.274 34.674 108.686C30.995 106.775 29.1601 103.399 29.1611 100.024Z" fill="#B04C7E"/>
<path d="M20.0382 100.024C19.8462 99.393 18.9912 98.9479 18.3872 99.5679C18.2262 99.7329 18.0592 99.885 17.8872 100.024C18.0592 100.163 18.2262 100.315 18.3872 100.48C18.9912 101.1 19.8462 100.655 20.0382 100.024Z" fill="#B04C7E"/>
<path d="M11.0793 100.7C11.0793 100.25 11.0793 99.7989 11.0793 99.3489C11.3013 99.6009 11.5392 99.826 11.7872 100.025C11.5382 100.223 11.3013 100.448 11.0793 100.7C11.0793 100.25 11.0793 99.7989 11.0793 99.3489C11.3013 99.5999 11.5392 99.826 11.7872 100.025C11.5382 100.223 11.3013 100.448 11.0793 100.7ZM19.8022 100.92C16.9822 103.815 12.3433 103.729 9.66525 100.7C9.47925 100.49 9.38525 100.257 9.38525 100.025C9.38525 99.793 9.47825 99.5599 9.66525 99.3489C12.3433 96.3199 16.9822 96.234 19.8022 99.129C20.0762 99.411 20.1262 99.737 20.0392 100.024C20.1262 100.312 20.0762 100.638 19.8022 100.92ZM18.3882 100.48C18.2272 100.315 18.0602 100.163 17.8872 100.024C18.0592 99.885 18.2272 99.7329 18.3882 99.5679C18.9922 98.9479 19.8472 99.393 20.0392 100.024C19.8472 100.655 18.9912 101.1 18.3882 100.48Z" fill="#B04C7E"/>
<path d="M21.2212 96.126C18.9322 92.904 15.1912 91.485 11.1962 92.254C9.93516 92.497 10.4692 94.339 11.7282 94.097C14.7942 93.507 17.7412 94.622 19.4952 97.091C20.2132 98.102 21.9472 97.147 21.2212 96.126Z" fill="#B04C7E"/>
<path d="M21.2212 103.923C18.9322 107.145 15.1912 108.564 11.1962 107.795C9.93516 107.552 10.4692 105.71 11.7282 105.952C14.7942 106.542 17.7412 105.427 19.4952 102.958C20.2132 101.947 21.9472 102.902 21.2212 103.923Z" fill="#B04C7E"/>
<path d="M23.1051 91.668C22.1571 88.315 19.4601 85.701 15.9731 84.729C14.7351 84.384 14.2061 86.227 15.4411 86.572C18.2671 87.36 20.4091 89.464 21.1761 92.176C21.5121 93.362 23.4421 92.859 23.1051 91.668Z" fill="#B04C7E"/>
<path d="M23.1051 108.38C22.1571 111.733 19.4601 114.347 15.9731 115.319C14.7351 115.664 14.2061 113.821 15.4411 113.477C18.2671 112.689 20.4091 110.584 21.1761 107.872C21.5121 106.686 23.4421 107.19 23.1051 108.38Z" fill="#B04C7E"/>
<path d="M26.0529 87.053C25.3259 84.361 23.7719 81.9899 21.5259 80.2179C20.5409 79.4409 19.1179 80.7849 20.1119 81.5689C22.1089 83.1449 23.4769 85.1619 24.1249 87.5599C24.4459 88.7499 26.3759 88.246 26.0529 87.053Z" fill="#B04C7E"/>
<path d="M26.0529 112.996C25.3259 115.688 23.7719 118.058 21.5259 119.831C20.5409 120.608 19.1179 119.264 20.1119 118.48C22.1089 116.904 23.4769 114.887 24.1249 112.489C24.4459 111.298 26.3759 111.803 26.0529 112.996Z" fill="#B04C7E"/>
<path d="M29.5182 84.921C29.9842 82.313 29.5102 79.766 28.0292 77.518C27.3452 76.48 25.6142 77.438 26.3022 78.482C27.4842 80.275 27.9642 82.313 27.5892 84.412C27.3742 85.616 29.3012 86.133 29.5182 84.921Z" fill="#B04C7E"/>
<path d="M29.5182 115.127C29.9842 117.735 29.5102 120.282 28.0292 122.53C27.3452 123.568 25.6142 122.61 26.3022 121.565C27.4842 119.772 27.9642 117.734 27.5892 115.635C27.3742 114.433 29.3012 113.916 29.5182 115.127Z" fill="#B04C7E"/>
<path d="M5.87589 100.024C5.85889 96.751 9.74288 94.368 12.7119 93.563C13.9479 93.228 13.4229 91.383 12.1799 91.72C8.75487 92.649 3.35986 96.052 3.35986 100.024C3.35986 103.996 8.75487 107.399 12.1799 108.328C13.4219 108.665 13.9479 106.821 12.7119 106.485C9.74288 105.68 5.85889 103.297 5.87589 100.024Z" fill="#B04C7E"/>
<path d="M11.4848 92.575C10.2168 90.29 10.0398 87.6959 11.3748 85.3909C12.6498 83.1909 15.6018 80.958 18.1948 82.785C19.2318 83.515 20.2298 81.858 19.2038 81.135C16.1278 78.968 12.3258 80.835 10.2978 83.465C7.97383 86.48 7.95781 90.2969 9.75681 93.5389C10.3618 94.6259 12.0888 93.662 11.4848 92.575Z" fill="#B04C7E"/>
<path d="M11.4848 107.473C10.2168 109.758 10.0398 112.352 11.3748 114.657C12.6498 116.857 15.6018 119.09 18.1948 117.263C19.2318 116.532 20.2298 118.19 19.2038 118.913C16.1278 121.08 12.3258 119.213 10.2978 116.583C7.97383 113.569 7.95781 109.751 9.75681 106.509C10.3618 105.422 12.0888 106.387 11.4848 107.473Z" fill="#B04C7E"/>
<path d="M19.74 81.127C19.891 78.709 20.881 76.462 22.858 74.887C25.07 73.125 29.396 71.691 31.321 74.644C32 75.686 33.731 74.727 33.048 73.68C31.001 70.539 26.905 70.578 23.713 72.098C20.045 73.845 17.98 77.286 17.741 81.127C17.663 82.356 19.664 82.351 19.74 81.127Z" fill="#B04C7E"/>
<path d="M19.74 118.921C19.891 121.339 20.881 123.586 22.858 125.161C25.07 126.923 29.396 128.357 31.321 125.404C32 124.362 33.731 125.321 33.048 126.368C31.001 129.509 26.905 129.47 23.713 127.95C20.045 126.203 17.98 122.762 17.741 118.921C17.663 117.693 19.664 117.697 19.74 118.921Z" fill="#B04C7E"/>
<path d="M1.88997 100.024C1.94997 99.9129 1.99099 99.7859 2.00499 99.6409C2.322 96.3309 5.29799 94.2169 8.68099 94.5349C9.96099 94.6549 9.95199 92.7439 8.68099 92.6239C4.12999 92.1959 0.414995 95.3639 0.00499503 99.6409C-0.00900498 99.7859 0.00698013 99.9129 0.0459801 100.024C0.00698013 100.134 -0.00900498 100.262 0.00499502 100.407C0.414995 104.684 4.12999 107.852 8.68099 107.424C9.95199 107.304 9.96099 105.393 8.68099 105.513C5.29799 105.831 2.32199 103.717 2.00499 100.407C1.99099 100.262 1.94997 100.135 1.88997 100.024Z" fill="#B04C7E"/>
<path d="M9.41181 91.917C6.81881 89.328 5.67483 85.283 7.59983 82C9.58783 78.609 15.4228 77.208 17.0068 81.79C17.4088 82.952 19.3408 82.454 18.9358 81.282C17.3118 76.583 11.2348 75.603 7.59184 78.893C3.22184 82.84 4.10981 89.385 7.99781 93.268C8.88881 94.158 10.3018 92.806 9.41181 91.917Z" fill="#B04C7E"/>
<path d="M9.41181 108.131C6.81881 110.72 5.67483 114.765 7.59983 118.049C9.58783 121.44 15.4228 122.841 17.0068 118.259C17.4088 117.097 19.3408 117.595 18.9358 118.767C17.3118 123.466 11.2348 124.446 7.59184 121.156C3.22184 117.209 4.10981 110.664 7.99781 106.781C8.88881 105.89 10.3018 107.242 9.41181 108.131Z" fill="#B04C7E"/>
<path d="M18.6368 79.366C14.9398 71.892 28.5699 64.638 30.6769 72.826C30.9839 74.02 32.9128 73.5139 32.6058 72.3179C31.3888 67.5869 25.8628 66.152 21.6228 68.28C17.0178 70.591 14.6419 75.744 16.9109 80.33C17.4599 81.441 19.1838 80.473 18.6368 79.366Z" fill="#B04C7E"/>
<path d="M18.6368 120.683C14.9398 128.157 28.5699 135.411 30.6769 127.223C30.9839 126.029 32.9128 126.535 32.6058 127.731C31.3888 132.462 25.8628 133.897 21.6228 131.769C17.0178 129.458 14.6419 124.305 16.9109 119.719C17.4599 118.607 19.1838 119.576 18.6368 120.683Z" fill="#B04C7E"/>
<path d="M31.5459 6.10352e-05L31.5459 66.6831L35.1019 66.6831L35.1019 6.10776e-05L31.5459 6.10352e-05Z" fill="#B04C7E"/>
<path d="M38.9902 6.10352e-05L38.9902 66.6831L44.4722 66.6831L44.4722 6.11005e-05L38.9902 6.10352e-05Z" fill="#B04C7E"/>
<path d="M22.9369 33.3411C22.9369 27.2611 26.4069 21.1801 33.3469 18.3201C35.7039 17.3491 33.6689 14.0551 31.3279 15.0201C23.0579 18.4281 18.9219 25.8841 18.9219 33.3411C18.9219 40.7971 23.0569 48.2531 31.3279 51.6621C33.6689 52.6271 35.7039 49.3341 33.3469 48.3621C26.4059 45.5021 22.9369 39.4221 22.9369 33.3411Z" fill="#B04C7E"/>
<path d="M10.999 33.3411C10.999 21.7081 21.283 12.4671 32.603 10.3801C33.865 10.1471 33.331 8.30515 32.071 8.53715C19.937 10.7742 8.91402 20.9021 8.99902 33.3411C8.91402 45.7801 19.937 55.9081 32.071 58.1451C33.331 58.3771 33.865 56.5351 32.603 56.3031C21.283 54.2161 10.999 44.9741 10.999 33.3411Z" fill="#B04C7E"/>
<path d="M29.1611 33.3411C29.1601 29.9661 30.994 26.5901 34.674 24.6791C35.805 24.0911 34.7971 22.4411 33.6651 23.0291C29.3461 25.2731 27.1851 29.3071 27.1851 33.3411C27.1851 37.3751 29.3461 41.4091 33.6651 43.6531C34.7971 44.2411 35.806 42.5912 34.674 42.0032C30.995 40.0922 29.1601 36.7161 29.1611 33.3411Z" fill="#B04C7E"/>
<path d="M20.0382 33.3411C19.8462 32.7101 18.9912 32.2651 18.3872 32.8851C18.2262 33.0501 18.0592 33.2021 17.8872 33.3411C18.0592 33.4801 18.2262 33.6321 18.3872 33.7971C18.9912 34.4171 19.8462 33.9721 20.0382 33.3411Z" fill="#B04C7E"/>
<path d="M11.0793 34.0172C11.0793 33.5672 11.0793 33.1161 11.0793 32.6661C11.3013 32.9181 11.5392 33.1432 11.7872 33.3422C11.5382 33.5402 11.3013 33.7652 11.0793 34.0172C11.0793 33.5672 11.0793 33.1161 11.0793 32.6661C11.3013 32.9181 11.5392 33.1432 11.7872 33.3422C11.5382 33.5402 11.3013 33.7652 11.0793 34.0172ZM19.8022 34.2362C16.9822 37.1312 12.3433 37.0451 9.66525 34.0161C9.47925 33.8061 9.38525 33.5731 9.38525 33.3411C9.38525 33.1081 9.47825 32.8762 9.66525 32.6652C12.3433 29.6362 16.9822 29.5501 19.8022 32.4451C20.0762 32.7271 20.1262 33.0532 20.0392 33.3402C20.1262 33.6292 20.0762 33.9552 19.8022 34.2362ZM18.3882 33.7971C18.2272 33.6321 18.0602 33.4801 17.8872 33.3411C18.0592 33.2021 18.2272 33.0501 18.3882 32.8851C18.9922 32.2651 19.8472 32.7092 20.0392 33.3402C19.8472 33.9712 18.9912 34.4171 18.3882 33.7971Z" fill="#B04C7E"/>
<path d="M21.2212 29.4431C18.9322 26.2211 15.1912 24.8021 11.1962 25.5711C9.93516 25.8141 10.4692 27.6561 11.7282 27.4141C14.7942 26.8241 17.7412 27.9391 19.4952 30.4081C20.2132 31.4191 21.9472 30.4641 21.2212 29.4431Z" fill="#B04C7E"/>
<path d="M21.2212 37.2401C18.9322 40.4621 15.1912 41.881 11.1962 41.112C9.93516 40.869 10.4692 39.0271 11.7282 39.2691C14.7942 39.8591 17.7412 38.7441 19.4952 36.2751C20.2132 35.2641 21.9472 36.2191 21.2212 37.2401Z" fill="#B04C7E"/>
<path d="M23.1051 24.9851C22.1571 21.6321 19.4601 19.0181 15.9731 18.0461C14.7351 17.7011 14.2061 19.5441 15.4411 19.8891C18.2671 20.6771 20.4091 22.7811 21.1761 25.4931C21.5121 26.6791 23.4421 26.1761 23.1051 24.9851Z" fill="#B04C7E"/>
<path d="M23.1051 41.6971C22.1571 45.0501 19.4601 47.6641 15.9731 48.6361C14.7351 48.9811 14.2061 47.1381 15.4411 46.7931C18.2671 46.0051 20.4091 43.9011 21.1761 41.1881C21.5121 40.0031 23.4421 40.5071 23.1051 41.6971Z" fill="#B04C7E"/>
<path d="M26.0529 20.3701C25.3259 17.6781 23.7719 15.3071 21.5259 13.5351C20.5409 12.7581 19.1179 14.1021 20.1119 14.8861C22.1089 16.4621 23.4769 18.4791 24.1249 20.8771C24.4459 22.0671 26.3759 21.5631 26.0529 20.3701Z" fill="#B04C7E"/>
<path d="M26.0529 46.3131C25.3259 49.0051 23.7719 51.3751 21.5259 53.1471C20.5409 53.9241 19.1179 52.5801 20.1119 51.7961C22.1089 50.2201 23.4769 48.2031 24.1249 45.8051C24.4459 44.6151 26.3759 45.1201 26.0529 46.3131Z" fill="#B04C7E"/>
<path d="M29.5182 18.2382C29.9842 15.6302 29.5102 13.0831 28.0292 10.8351C27.3452 9.79714 25.6142 10.7551 26.3022 11.7991C27.4842 13.5921 27.9642 15.6301 27.5892 17.7291C27.3742 18.9331 29.3012 19.4502 29.5182 18.2382Z" fill="#B04C7E"/>
<path d="M29.5182 48.4441C29.9842 51.0521 29.5102 53.5991 28.0292 55.8471C27.3452 56.8851 25.6142 55.9271 26.3022 54.8831C27.4842 53.0901 27.9642 51.0521 27.5892 48.9531C27.3742 47.7491 29.3012 47.2331 29.5182 48.4441Z" fill="#B04C7E"/>
<path d="M5.87589 33.3411C5.85889 30.0681 9.74288 27.6851 12.7119 26.8791C13.9479 26.5441 13.4229 24.6991 12.1799 25.0371C8.75487 25.9661 3.35986 29.3691 3.35986 33.3411C3.35986 37.3131 8.75487 40.7151 12.1799 41.6451C13.4219 41.9821 13.9479 40.1381 12.7119 39.8021C9.74288 38.9971 5.85889 36.6141 5.87589 33.3411Z" fill="#B04C7E"/>
<path d="M11.4848 25.8921C10.2168 23.6071 10.0398 21.0131 11.3748 18.7081C12.6498 16.5081 15.6018 14.2752 18.1948 16.1022C19.2318 16.8322 20.2298 15.1751 19.2038 14.4521C16.1278 12.2851 12.3258 14.1522 10.2978 16.7822C7.97383 19.7972 7.95781 23.6141 9.75681 26.8561C10.3618 27.9441 12.0888 26.9791 11.4848 25.8921Z" fill="#B04C7E"/>
<path d="M11.4848 40.7901C10.2168 43.0751 10.0398 45.6691 11.3748 47.9731C12.6498 50.1731 15.6018 52.4061 18.1948 50.5791C19.2318 49.8481 20.2298 51.5061 19.2038 52.2291C16.1278 54.3961 12.3258 52.5291 10.2978 49.8991C7.97383 46.8841 7.95781 43.0671 9.75681 39.8251C10.3618 38.7391 12.0888 39.7041 11.4848 40.7901Z" fill="#B04C7E"/>
<path d="M19.74 14.4441C19.891 12.0261 20.881 9.77915 22.858 8.20415C25.07 6.44215 29.396 5.00811 31.321 7.96111C32 9.00311 33.731 8.04412 33.048 6.99712C31.001 3.85612 26.905 3.89515 23.713 5.41515C20.045 7.16215 17.98 10.6031 17.741 14.4441C17.663 15.6731 19.664 15.6681 19.74 14.4441Z" fill="#B04C7E"/>
<path d="M19.74 52.2381C19.891 54.6561 20.881 56.9031 22.858 58.4781C25.07 60.2401 29.396 61.674 31.321 58.721C32 57.679 33.731 58.638 33.048 59.685C31.001 62.826 26.905 62.7871 23.713 61.2671C20.045 59.5201 17.98 56.0791 17.741 52.2381C17.663 51.0101 19.664 51.0141 19.74 52.2381Z" fill="#B04C7E"/>
<path d="M1.88997 33.341C1.94997 33.23 1.99099 33.103 2.00499 32.958C2.322 29.648 5.29799 27.5341 8.68099 27.8521C9.96099 27.9721 9.95199 26.0611 8.68099 25.9411C4.12999 25.5131 0.414995 28.681 0.00499503 32.958C-0.00900498 33.103 0.00698013 33.23 0.0459801 33.341C0.00698013 33.451 -0.00900498 33.579 0.00499502 33.724C0.414995 38.001 4.12999 41.169 8.68099 40.741C9.95199 40.621 9.96099 38.71 8.68099 38.83C5.29799 39.148 2.32199 37.034 2.00499 33.724C1.99099 33.579 1.94997 33.452 1.88997 33.341Z" fill="#B04C7E"/>
<path d="M9.41181 25.2341C6.81881 22.6451 5.67483 18.6001 7.59983 15.3171C9.58783 11.9261 15.4228 10.5251 17.0068 15.1071C17.4088 16.2691 19.3408 15.7711 18.9358 14.5991C17.3118 9.90007 11.2348 8.92009 7.59184 12.2101C3.22184 16.1571 4.10981 22.7021 7.99781 26.5851C8.88881 27.4761 10.3018 26.1231 9.41181 25.2341Z" fill="#B04C7E"/>
<path d="M9.41181 41.4492C6.81881 44.0382 5.67483 48.0832 7.59983 51.3662C9.58783 54.7572 15.4228 56.1582 17.0068 51.5762C17.4088 50.4142 19.3408 50.9122 18.9358 52.0842C17.3118 56.7832 11.2348 57.7632 7.59184 54.4732C3.22184 50.5262 4.10981 43.9812 7.99781 40.0982C8.88881 39.2072 10.3018 40.5592 9.41181 41.4492Z" fill="#B04C7E"/>
<path d="M18.6368 12.6832C14.9398 5.20918 28.5699 -2.04482 30.6769 6.14418C30.9839 7.33718 32.9128 6.83218 32.6058 5.63618C31.3888 0.90518 25.8628 -0.529845 21.6228 1.59816C17.0178 3.90916 14.6419 9.06214 16.9109 13.6481C17.4599 14.7581 19.1838 13.7902 18.6368 12.6832Z" fill="#B04C7E"/>
<path d="M18.6368 54.0001C14.9398 61.4741 28.5699 68.7281 30.6769 60.5401C30.9839 59.3461 32.9128 59.8521 32.6058 61.0481C31.3888 65.7791 25.8628 67.2141 21.6228 65.0861C17.0178 62.7751 14.6419 57.6221 16.9109 53.0361C17.4599 51.9241 19.1838 52.8931 18.6368 54.0001Z" fill="#B04C7E"/>
</svg>
